<svg width="1440" height="2553" viewBox="0 0 1440 2553" fill="none" xmlns="http://www.w3.org/2000/svg">
<path d="M965.538 819.713L967.494 815.569L968.473 812.254H970.103V815.569L971.082 819.713L972.386 822.199L974.343 824.271L975.974 825.514L978.583 827.172V830.072L975.974 831.73L974.343 833.387L972.386 835.874L971.082 839.189L970.103 845.405L968.473 847.062L967.494 842.918L965.538 837.946L962.929 833.387L959.341 830.072V827.172L962.929 824.271L965.538 819.713Z" fill="#95729A"/>
<path d="M475.635 322.686L478.842 317.071L480.445 312.58H483.118V317.071L484.721 322.686L486.859 326.054L490.066 328.862L492.739 330.546L497.014 332.792V336.722L492.739 338.967L490.066 341.213L486.859 344.582L484.721 349.073L483.118 357.495L480.445 359.74L478.842 354.126L475.635 347.389L471.359 341.213L465.48 336.722V332.792L471.359 328.862L475.635 322.686Z" fill="#A83E86"/>
<path d="M980.751 371.123L988.043 370.808L986.81 372.244L984.755 374.636L980.985 377.103L975.909 379.165L969.529 380.822L964.381 381.044L959.18 379.886L955.248 378.213L950.868 376.098L946.006 372.621L941.108 368.225L938.282 361.896L936.314 355.529L935.616 348.648L936.222 342.17L938.151 336.558L939.705 332.344L942.117 328.093L945.404 324.264L948.728 321.356L951.713 320.767L951.785 322.607L950.195 325.901L948.212 330.134L947.087 334.329L947.339 340.769L947.555 346.29L949.039 351.294L951.364 355.802L954.546 360.272L958.605 365.166L963.896 368.624L973.03 371.456L980.751 371.123Z" fill="#785478" stroke="#785478" stroke-width="2"/>
<ellipse cx="231.377" cy="626.981" rx="3.20689" ry="3.36858" fill="#D9D9D9"/>
<ellipse cx="112.722" cy="1007.63" rx="3.20689" ry="3.36858" fill="#D9D9D9"/>
<ellipse cx="161.895" cy="912.188" rx="3.20689" ry="3.36858" fill="#D9D9D9"/>
<ellipse cx="436.618" cy="802.148" rx="3.20689" ry="3.36858" fill="#D9D9D9"/>
<ellipse cx="744.48" cy="961.594" rx="3.20689" ry="3.36858" fill="#D9D9D9"/>
<ellipse cx="1003.17" cy="446.201" rx="3.20689" ry="3.36858" fill="#D9D9D9"/>
<ellipse cx="1020.27" cy="808.885" rx="3.20689" ry="3.36858" fill="#D9D9D9"/>
<ellipse cx="161.895" cy="390.058" rx="3.20689" ry="3.36858" fill="#D9D9D9"/>
<ellipse cx="197.17" cy="421.498" rx="3.20689" ry="3.36858" fill="#D9D9D9"/>
<ellipse cx="531.756" cy="292.369" rx="3.20689" ry="3.36858" fill="#D9D9D9"/>
<ellipse cx="680.342" cy="299.106" rx="3.20689" ry="3.36858" fill="#D9D9D9"/>
<path d="M1330.57 442.271L1336.16 445.52L1340.64 447.157L1340.62 449.83L1336.13 449.796L1330.5 451.357L1327.12 453.469L1324.28 456.655L1322.58 459.315L1320.3 463.573L1316.37 463.544L1314.16 459.251L1311.93 456.562L1308.59 453.33L1304.11 451.158L1295.7 449.491L1293.48 446.802L1299.1 445.241L1305.87 442.085L1312.07 437.855L1316.61 432.01L1320.54 432.04L1324.43 437.949L1330.57 442.271Z" fill="#94387B"/>
<path d="M1134.65 385.486L1138.91 387.801L1142.32 388.968L1142.31 390.87L1138.89 390.844L1134.6 391.954L1132.02 393.456L1129.87 395.723L1128.57 397.615L1126.84 400.646L1123.84 400.624L1122.15 397.567L1120.46 395.652L1117.91 393.35L1114.5 391.802L1108.09 390.612L1106.39 388.697L1110.68 387.588L1115.83 385.344L1120.56 382.335L1124.01 378.176L1127.01 378.199L1129.97 382.406L1134.65 385.486Z" fill="#A27EA8"/>
<path d="M1053.72 1469.94L1057.85 1471.93L1061.16 1472.93L1061.14 1474.56L1057.83 1474.54L1053.68 1475.48L1051.18 1476.77L1049.09 1478.71L1047.84 1480.33L1046.16 1482.93L1043.26 1482.91L1041.62 1480.28L1039.98 1478.64L1037.51 1476.67L1034.2 1475.34L1027.99 1474.31L1026.35 1472.67L1030.5 1471.72L1035.49 1469.8L1040.06 1467.23L1043.41 1463.67L1046.31 1463.69L1049.18 1467.3L1053.72 1469.94Z" fill="#95729A"/>
<ellipse cx="1381.01" cy="7.03701" rx="3.20689" ry="3.36858" transform="rotate(90.4324 1381.01 7.03701)" fill="#D9D9D9"/>
<ellipse cx="1396.57" cy="28.5343" rx="3.20689" ry="3.36858" transform="rotate(90.4324 1396.57 28.5343)" fill="#D9D9D9"/>
<ellipse cx="1295.11" cy="230.877" rx="3.20689" ry="3.36858" transform="rotate(90.4324 1295.11 230.877)" fill="#D9D9D9"/>
<ellipse cx="1251.99" cy="737.254" rx="3.20689" ry="3.36858" transform="rotate(90.4324 1251.99 737.254)" fill="#D9D9D9"/>
<ellipse cx="872.242" cy="615.73" rx="3.20689" ry="3.36858" transform="rotate(90.4324 872.242 615.73)" fill="#D9D9D9"/>
<ellipse cx="967.311" cy="665.621" rx="3.20689" ry="3.36858" transform="rotate(90.4324 967.311 665.621)" fill="#D9D9D9"/>
<ellipse cx="1075.28" cy="941.167" rx="3.20689" ry="3.36858" transform="rotate(90.4324 1075.28 941.167)" fill="#D9D9D9"/>
<ellipse cx="913.51" cy="1247.82" rx="3.20689" ry="3.36858" transform="rotate(90.4324 913.51 1247.82)" fill="#D9D9D9"/>
<ellipse cx="1426.94" cy="1510.39" rx="3.20689" ry="3.36858" transform="rotate(90.4324 1426.94 1510.39)" fill="#D9D9D9"/>
<ellipse cx="1064.13" cy="1524.75" rx="3.20689" ry="3.36858" transform="rotate(90.4324 1064.13 1524.75)" fill="#D9D9D9"/>
<path d="M1002.54 1840.71L1004.49 1836.57L1005.47 1833.25H1007.1V1836.57L1008.08 1840.71L1009.39 1843.2L1011.34 1845.27L1012.97 1846.51L1015.58 1848.17V1851.07L1012.97 1852.73L1011.34 1854.39L1009.39 1856.87L1008.08 1860.19L1007.1 1866.4L1005.47 1868.06L1004.49 1863.92L1002.54 1858.95L999.929 1854.39L996.341 1851.07V1848.17L999.929 1845.27L1002.54 1840.71Z" fill="#95729A"/>
<path d="M512.635 1343.69L515.842 1338.07L517.445 1333.58H520.118V1338.07L521.721 1343.69L523.859 1347.05L527.066 1349.86L529.739 1351.55L534.014 1353.79V1357.72L529.739 1359.97L527.066 1362.21L523.859 1365.58L521.721 1370.07L520.118 1378.49L517.445 1380.74L515.842 1375.13L512.635 1368.39L508.359 1362.21L502.48 1357.72V1353.79L508.359 1349.86L512.635 1343.69Z" fill="#A83E86"/>
<path d="M1017.75 1392.12L1025.04 1391.81L1023.81 1393.24L1021.76 1395.64L1017.98 1398.1L1012.91 1400.16L1006.53 1401.82L1001.38 1402.04L996.18 1400.89L992.248 1399.21L987.868 1397.1L983.006 1393.62L978.108 1389.22L975.282 1382.9L973.314 1376.53L972.616 1369.65L973.222 1363.17L975.151 1357.56L976.705 1353.34L979.117 1349.09L982.404 1345.26L985.728 1342.36L988.713 1341.77L988.785 1343.61L987.195 1346.9L985.212 1351.13L984.087 1355.33L984.339 1361.77L984.555 1367.29L986.039 1372.29L988.364 1376.8L991.546 1381.27L995.605 1386.17L1000.9 1389.62L1010.03 1392.46L1017.75 1392.12Z" fill="#785478" stroke="#785478" stroke-width="2"/>
<ellipse cx="268.377" cy="1647.98" rx="3.20689" ry="3.36858" fill="#D9D9D9"/>
<ellipse cx="149.722" cy="2028.63" rx="3.20689" ry="3.36858" fill="#D9D9D9"/>
<ellipse cx="198.895" cy="1933.19" rx="3.20689" ry="3.36858" fill="#D9D9D9"/>
<ellipse cx="473.618" cy="1823.15" rx="3.20689" ry="3.36858" fill="#D9D9D9"/>
<ellipse cx="781.48" cy="1982.59" rx="3.20689" ry="3.36858" fill="#D9D9D9"/>
<ellipse cx="1040.17" cy="1467.2" rx="3.20689" ry="3.36858" fill="#D9D9D9"/>
<ellipse cx="1057.27" cy="1829.89" rx="3.20689" ry="3.36858" fill="#D9D9D9"/>
<ellipse cx="198.895" cy="1411.06" rx="3.20689" ry="3.36858" fill="#D9D9D9"/>
<ellipse cx="234.17" cy="1442.5" rx="3.20689" ry="3.36858" fill="#D9D9D9"/>
<ellipse cx="568.756" cy="1313.37" rx="3.20689" ry="3.36858" fill="#D9D9D9"/>
<ellipse cx="717.342" cy="1320.11" rx="3.20689" ry="3.36858" fill="#D9D9D9"/>
<path d="M1367.57 1463.27L1373.16 1466.52L1377.64 1468.16L1377.62 1470.83L1373.13 1470.8L1367.5 1472.36L1364.12 1474.47L1361.28 1477.65L1359.58 1480.31L1357.3 1484.57L1353.37 1484.54L1351.16 1480.25L1348.93 1477.56L1345.59 1474.33L1341.11 1472.16L1332.7 1470.49L1330.48 1467.8L1336.1 1466.24L1342.87 1463.08L1349.07 1458.86L1353.61 1453.01L1357.54 1453.04L1361.43 1458.95L1367.57 1463.27Z" fill="#94387B"/>
<path d="M1171.65 1406.49L1175.91 1408.8L1179.32 1409.97L1179.31 1411.87L1175.89 1411.84L1171.6 1412.95L1169.02 1414.46L1166.87 1416.72L1165.57 1418.62L1163.84 1421.65L1160.84 1421.62L1159.15 1418.57L1157.46 1416.65L1154.91 1414.35L1151.5 1412.8L1145.09 1411.61L1143.39 1409.7L1147.68 1408.59L1152.83 1406.34L1157.56 1403.34L1161.01 1399.18L1164.01 1399.2L1166.97 1403.41L1171.65 1406.49Z" fill="#A27EA8"/>
<path d="M1090.72 2490.94L1094.85 2492.93L1098.16 2493.93L1098.14 2495.56L1094.83 2495.54L1090.68 2496.48L1088.18 2497.77L1086.09 2499.71L1084.84 2501.33L1083.16 2503.93L1080.26 2503.91L1078.62 2501.28L1076.98 2499.64L1074.51 2497.67L1071.2 2496.34L1064.99 2495.31L1063.35 2493.67L1067.5 2492.72L1072.49 2490.8L1077.06 2488.23L1080.41 2484.67L1083.31 2484.69L1086.18 2488.3L1090.72 2490.94Z" fill="#95729A"/>
<ellipse cx="1418.01" cy="1028.04" rx="3.20689" ry="3.36858" transform="rotate(90.4324 1418.01 1028.04)" fill="#D9D9D9"/>
<ellipse cx="1433.57" cy="1049.53" rx="3.20689" ry="3.36858" transform="rotate(90.4324 1433.57 1049.53)" fill="#D9D9D9"/>
<ellipse cx="1332.11" cy="1251.88" rx="3.20689" ry="3.36858" transform="rotate(90.4324 1332.11 1251.88)" fill="#D9D9D9"/>
<ellipse cx="1288.99" cy="1758.25" rx="3.20689" ry="3.36858" transform="rotate(90.4324 1288.99 1758.25)" fill="#D9D9D9"/>
<ellipse cx="909.242" cy="1636.73" rx="3.20689" ry="3.36858" transform="rotate(90.4324 909.242 1636.73)" fill="#D9D9D9"/>
<ellipse cx="1004.31" cy="1686.62" rx="3.20689" ry="3.36858" transform="rotate(90.4324 1004.31 1686.62)" fill="#D9D9D9"/>
<ellipse cx="1112.28" cy="1962.17" rx="3.20689" ry="3.36858" transform="rotate(90.4324 1112.28 1962.17)" fill="#D9D9D9"/>
<ellipse cx="950.51" cy="2268.82" rx="3.20689" ry="3.36858" transform="rotate(90.4324 950.51 2268.82)" fill="#D9D9D9"/>
<ellipse cx="1101.13" cy="2545.75" rx="3.20689" ry="3.36858" transform="rotate(90.4324 1101.13 2545.75)" fill="#D9D9D9"/>
</svg>
