<svg width="1365" height="602" viewBox="0 0 1365 602" fill="none" xmlns="http://www.w3.org/2000/svg">
<path d="M1286.13 277.55C1286.13 395.84 1189.35 491.757 1069.94 491.757C950.52 491.757 853.738 395.84 853.738 277.55C853.738 159.259 950.52 63.3417 1069.94 63.3417C1189.35 63.3417 1286.13 159.259 1286.13 277.55Z" fill="#038AC4" stroke="#038AC4" stroke-width="3"/>
<path d="M1198.84 348.672H1170.67L1153.48 360.838L1139.16 372.068L1128.18 386.573L1119.59 397.803V405.29L1139.16 441.787L1170.67 463.311L1190.24 452.549L1211.73 441.787L1230.82 429.153L1248.49 405.29L1257.08 386.573L1264.72 367.857L1270.45 357.563L1276.18 337.91L1280.95 321.533V313.111V300.477H1270.45L1257.08 307.028L1242.76 317.79L1220.32 337.91L1198.84 348.672Z" fill="#4BAD7A" stroke="#4BAD7A" stroke-width="2"/>
<path d="M890.43 258.833H852.238V276.146L853.192 298.138L856.534 322.469L859.876 334.635L873.244 369.728L888.043 394.528L904.752 415.584L917.165 429.153L926.713 437.108V420.263V409.033V401.546V386.573L928.623 378.151L931.487 373.004L936.261 364.581L941.99 358.966L949.152 352.416L954.403 344.461L956.79 339.314L958.222 331.359V322.469V314.983V308.432L954.403 299.074L949.152 292.055L940.081 282.229L928.623 271.935L917.165 263.512L906.185 260.237L890.43 258.833Z" fill="#4BAD7A" stroke="#4BAD7A" stroke-width="2"/>
<path d="M966.816 137.176L938.648 108.165L950.106 99.7427L966.816 89.9165L985.434 80.5582L1002.62 74.9433L1018.38 70.2642L1033.18 66.9888L1046.07 65.1171H1062.77H1078.05L1092.85 66.9888L1114.33 70.2642L1130.09 74.9433V80.5582L1132.48 89.9165L1135.34 95.5315L1141.55 102.55L1149.66 110.037L1159.69 118.927L1168.76 129.221L1178.31 132.029L1186.9 133.9H1227.96L1235.6 143.259L1246.58 156.36L1259.47 177.416L1270.45 200.344L1259.47 210.638L1253.74 217.657L1248.49 221.868L1238.46 232.162L1227.96 240.117L1218.41 246.667L1206.47 252.282L1191.68 254.154H1178.31L1168.76 256.961L1159.69 260.237L1149.66 266.788L1141.55 274.742L1132.48 284.568L1123.88 289.247L1114.33 298.606L1101.92 301.881H1085.21H1072.32H1060.39L1049.41 298.606L1040.34 293.926L1034.61 289.247L1029.83 282.229L1025.06 274.742L1022.67 266.788V256.961L1020.76 246.667L1016.47 237.777L1010.74 232.162L1005.49 227.951L985.434 203.619L981.615 198.94L979.228 191.921V184.435V173.205V164.783L976.841 152.617L974.454 146.066L966.816 137.176Z" fill="#4BAD7A" stroke="#4BAD7A" stroke-width="2"/>
<ellipse cx="1094.44" cy="274.806" rx="203.376" ry="206.35" fill="#276D77" fill-opacity="0.25"/>
<path d="M1297.32 274.806C1297.32 388.501 1206.48 480.656 1094.44 480.656C982.406 480.656 891.569 388.501 891.569 274.806C891.569 161.112 982.406 68.9567 1094.44 68.9567C1206.48 68.9567 1297.32 161.112 1297.32 274.806Z" stroke="#276D77" stroke-opacity="0.13"/>
<path d="M1188.33 248.539L1192.63 246.199H1198.36H1208.38L1215.55 243.392L1221.27 239.649L1226.53 234.97L1235.12 226.079L1243.24 219.996L1247.53 216.721H1279.52L1286.2 219.996L1336.81 270.531L1340.15 278.953V286.908L1336.81 296.266L1331.08 302.349L1320.1 305.156H1303.39H1293.36H1286.2H1275.22L1266.15 299.542L1255.65 290.183L1247.53 284.568L1239.89 280.825L1235.12 278.953H1229.39H1221.27H1195.97L1188.33 276.146L1183.08 270.531L1180.69 263.512V257.429L1185.47 251.346L1188.33 248.539Z" fill="#C4B5C8"/>
<path d="M1247.53 216.721L1243.24 219.996L1235.12 226.079L1226.53 234.97L1221.27 239.649L1215.55 243.392L1208.38 246.199H1198.36H1192.63L1188.33 248.539L1185.47 251.346L1180.69 257.429V263.512L1183.08 270.531L1188.33 276.146L1195.97 278.953H1221.27H1229.39H1235.12L1239.89 280.825L1247.53 284.568L1255.65 290.183L1266.15 299.542L1275.22 305.156H1286.2H1293.36M1247.53 216.721H1279.52L1286.2 219.996L1336.81 270.531L1340.15 278.953V286.908L1336.81 296.266L1331.08 302.349L1320.1 305.156H1303.39H1293.36M1247.53 216.721L1255.65 219.996L1266.15 231.226L1298.14 263.512L1305.3 272.403L1308.16 278.953V284.568V290.183L1305.3 296.266L1301 299.542L1293.36 305.156" stroke="#C7A0CD" stroke-width="2"/>
<path d="M1278.37 231.72C1282.36 235.63 1287.1 239.046 1291.46 242.565C1293.46 244.18 1291.2 241.285 1290.86 240.772C1288.4 237.081 1285.79 233.107 1282.55 230.009C1280.77 228.303 1278.71 226.92 1276.86 225.29C1276.52 224.987 1275.63 223.974 1275.84 224.379C1276.8 226.26 1278.61 227.842 1280.06 229.346C1284.68 234.141 1289 239.093 1293.21 244.221C1294.05 245.248 1293.78 244.967 1292.35 243.876C1288.02 240.572 1283.68 237.275 1279.27 234.079C1276.38 231.984 1284.88 238.494 1287.66 240.73C1291.87 244.112 1296.02 247.559 1300.19 250.983C1300.26 251.037 1302.52 253.053 1302.08 252.224C1301.76 251.632 1301.24 251.081 1300.83 250.569C1298.48 247.666 1296.14 244.752 1293.74 241.889C1291.94 239.738 1290.06 237.657 1288.21 235.542C1288.16 235.482 1287.01 234.121 1286.68 233.859C1286.52 233.74 1286.69 234.254 1286.78 234.424C1288.85 238.356 1292.18 241.567 1295.04 244.939C1297.58 247.941 1299.77 251.211 1302.26 254.253C1302.88 255.003 1304.3 257.445 1304.11 256.502C1303.84 255.185 1301.02 253.408 1300.11 252.583C1297.68 250.385 1295.18 248.302 1292.97 245.891C1291.22 243.981 1289.8 241.791 1288 239.93C1286.41 238.282 1284.75 236.629 1283.35 234.811C1281.81 232.797 1279.78 231.171 1277.86 229.498C1276.73 228.515 1275.41 227.775 1274.32 226.752C1273.65 226.133 1272.53 225.32 1271.67 225.014C1270.26 224.511 1268.28 223.32 1267.16 222.337C1266.17 221.46 1264.59 221.114 1263.62 220.35C1262.98 219.848 1261.07 219.301 1260.25 219.301C1259.22 219.301 1257.95 219.064 1256.97 218.791C1256.41 218.634 1255.81 218.209 1255.18 218.073C1253.95 217.804 1254.17 218.059 1255.51 218.059C1256.53 218.059 1257.54 218.053 1258.56 218.087C1262.73 218.225 1266.89 218.423 1271.06 218.404C1273.51 218.393 1276.05 218.132 1278.5 218.363C1281 218.6 1284.94 219.868 1286.76 221.674C1289.64 224.534 1291.14 228.673 1294.39 231.223C1297.66 233.784 1300.96 236.585 1303.91 239.475C1304.54 240.088 1304.96 240.893 1305.61 241.531C1307.11 243.002 1308.24 245.058 1309.92 246.374C1310.64 246.94 1311.67 247.836 1312.13 248.609C1312.76 249.658 1315 250.713 1316 251.479C1317.12 252.331 1317.75 253.565 1318.66 254.57C1319.06 255.01 1319.69 255.91 1319.93 256.433C1320.37 257.393 1321.24 258.02 1321.96 258.793C1323.89 260.881 1325.67 263.167 1327.42 265.374C1328.12 266.262 1328.46 266.89 1328.86 267.927C1329.1 268.562 1329.79 268.978 1330.07 269.597C1330.56 270.687 1332.06 271.811 1332.91 272.646C1333.56 273.281 1335.27 275.438 1335.39 273.447C1335.48 271.893 1334.17 271.868 1333 271.211C1331.76 270.52 1330.99 269.345 1329.81 268.603C1328.7 267.902 1327.92 266.67 1327.03 265.747C1325.83 264.506 1324.29 262.752 1323.42 261.276C1322.29 259.36 1320.1 258.38 1318.4 257.04C1316.46 255.519 1314.32 254.084 1312.22 252.776C1309.59 251.148 1307.19 249.107 1304.47 247.63C1302.19 246.389 1299.79 245.107 1297.74 243.518C1296.91 242.87 1295.95 242.256 1295.04 241.71C1294.65 241.477 1293.63 240.575 1294.39 241.324C1296.56 243.446 1298.52 245.759 1300.71 247.864C1304.45 251.457 1308.5 254.765 1312.48 258.089C1313.67 259.079 1315.18 259.987 1316.13 261.221C1316.36 261.522 1316.57 261.867 1316.89 262.021" stroke="#C7A0CD" stroke-width="3" stroke-linecap="round"/>
<path d="M1259.87 220.294C1260.63 220.443 1261.39 221.515 1261.87 222.019C1262.23 222.395 1263.33 223.275 1262.8 223.275C1262.14 223.275 1261.63 221.97 1261.14 221.661C1260.11 221.011 1258.94 220.219 1257.84 219.743C1257.04 219.393 1257.5 219.456 1258.1 220.046C1259 220.927 1260.12 221.535 1261.01 222.406C1262.04 223.414 1263.04 224.392 1264.05 225.386C1264.92 226.239 1265.9 227.458 1266.52 228.491C1267.18 229.602 1268.17 230.343 1268.99 231.347C1269.84 232.378 1271.06 233.243 1272.04 234.203C1273.14 235.287 1274.86 236.142 1275.64 237.432C1276.37 238.647 1278.11 239.455 1278.88 240.771C1279.47 241.785 1280.81 243 1281.67 243.89C1282.33 244.575 1282.79 245.485 1283.5 246.181C1284.49 247.155 1285.6 248.022 1286.59 248.995C1287.48 249.867 1288.27 251.449 1289.41 252.086C1289.94 252.381 1290.47 253.016 1290.91 253.452C1291.71 254.236 1292.76 254.763 1293.58 255.564C1294.98 256.935 1296.74 257.904 1298.01 259.427C1298.71 260.26 1303.49 266.181 1303.71 265.747" stroke="#C7A0CD" stroke-width="3" stroke-linecap="round"/>
<path d="M1295.06 252.071C1293.33 250.673 1291.76 249.229 1290.26 247.578C1290.2 247.504 1289.52 246.602 1289.38 246.673C1289.29 246.718 1289.5 246.835 1289.56 246.924C1289.77 247.3 1290.02 247.648 1290.3 247.988C1291.81 249.867 1293.64 251.487 1295.41 253.128C1295.89 253.578 1296.44 254.126 1296.79 254.687C1297.02 255.063 1297.62 255.464 1297.95 255.784C1299 256.816 1295.86 253.699 1294.88 252.599C1292.63 250.068 1290.88 247.141 1288.45 244.757C1287.63 243.956 1286.69 243.256 1285.79 242.55C1284.69 241.693 1283.74 240.633 1282.69 239.729C1281.43 238.657 1280.72 237.194 1279.47 236.128C1278.66 235.44 1278.18 234.476 1277.41 233.756C1276.92 233.295 1276.53 232.664 1276.13 232.117C1274.57 229.944 1272.47 228.071 1269.97 227.003C1269.42 226.768 1268.9 226.499 1268.37 226.237C1267.77 225.944 1268.09 226.272 1268.37 226.514C1268.87 226.937 1269.43 227.267 1269.92 227.69C1270.58 228.258 1271.11 228.943 1271.76 229.521C1272.47 230.156 1273.14 230.837 1273.83 231.496C1275.41 233.007 1277.13 234.567 1278.45 236.313C1279.24 237.36 1280.23 238.281 1280.99 239.345C1281.26 239.728 1281.56 240.093 1281.83 240.475C1281.88 240.552 1282.33 241.116 1282.25 241.116C1282.01 241.116 1281.61 240.539 1281.47 240.389C1280.9 239.756 1280.31 239.118 1279.71 238.513C1277.96 236.763 1276.55 234.791 1274.92 232.95C1273.75 231.632 1272.98 230.093 1271.52 229.058C1270.81 228.551 1269.53 227.74 1269.07 226.977C1268.93 226.749 1268.51 226.544 1268.31 226.382C1268.13 226.245 1268.04 225.983 1267.88 225.907" stroke="#C7A0CD" stroke-width="3" stroke-linecap="round"/>
<path d="M1265.7 224.123C1265.7 223.527 1265.15 223.045 1264.92 222.524C1264.72 222.088 1264.45 221.844 1264.12 221.506C1263.86 221.238 1263.74 220.89 1263.51 220.614C1263.07 220.071 1264.31 221.773 1264.75 222.312C1266.17 224.014 1267.64 225.663 1269.19 227.241C1270.3 228.371 1270.77 229.999 1271.64 231.285C1272.15 232.023 1272.6 232.734 1273.25 233.373C1273.62 233.739 1273.79 233.86 1273.69 233.201C1273.6 232.553 1273.27 231.937 1273.11 231.304C1272.84 230.262 1272.67 229.205 1272.37 228.166C1271.86 226.374 1271.17 224.71 1270.44 222.999C1270.06 222.092 1269.72 221.123 1269.12 220.317C1268.37 219.296 1267.52 219.194 1266.33 218.982C1265.99 218.922 1265.67 218.79 1265.39 219.009C1265.29 219.094 1265.82 219.009 1265.99 219.009C1268.34 219.009 1270.53 220.017 1272.86 220.079C1274.82 220.131 1276.82 220.399 1278.8 220.436C1279.56 220.45 1280.41 220.705 1281.16 220.852C1281.58 220.934 1282.05 220.893 1282.44 221.057C1282.68 221.153 1284.35 221.83 1284.33 221.837C1284.03 221.952 1283.52 221.61 1283.24 221.533C1282.25 221.256 1281.16 221.206 1280.14 221.149C1278.33 221.048 1276.52 221.03 1274.7 221.03C1273.49 221.03 1272.3 221.033 1271.1 221.215C1270.84 221.255 1268.8 221.625 1269.97 221.625C1272.52 221.625 1275.13 221.8 1277.64 222.345C1280 222.86 1272.76 222.365 1270.4 222.874C1269.91 222.978 1269.39 222.942 1270 223.079C1271.71 223.466 1273.51 223.713 1275.26 223.885C1275.6 223.918 1276.8 223.835 1277.08 224.03C1277.64 224.431 1276.3 224.479 1276.17 224.479C1274.67 224.479 1273.17 224.479 1271.67 224.479C1271 224.479 1273 224.269 1273.67 224.248C1275.58 224.189 1277.5 224.241 1279.41 224.241C1279.71 224.241 1279.98 224.219 1280.26 224.334C1280.34 224.365 1280.53 224.482 1280.5 224.407C1280.41 224.188 1280.01 224.078 1279.83 223.931C1279.4 223.565 1278.96 223.13 1278.59 222.695C1278.52 222.612 1278.23 222.035 1278.1 222.035C1278.01 222.035 1278.68 222.919 1278.7 222.947C1280.07 224.371 1281.78 225.588 1283.41 226.713C1284.37 227.371 1285.08 228.138 1285.9 228.939C1286.75 229.769 1287.66 230.564 1288.39 231.496C1288.67 231.851 1288.95 232.242 1289.28 232.553C1289.67 232.917 1288.68 231.683 1288.34 231.271C1286.16 228.582 1283.28 226.616 1280.61 224.44C1280.31 224.196 1280.09 223.912 1279.84 223.62C1279.7 223.455 1278.9 222.739 1279.32 223.376C1279.93 224.294 1280.84 225.074 1281.61 225.854C1282.85 227.113 1284.19 228.282 1285.54 229.421C1286.73 230.419 1287.98 231.27 1289.12 232.329C1289.2 232.403 1291 233.952 1291.03 233.914C1291.26 233.628 1288.82 230.789 1288.63 230.545C1287.33 228.88 1285.83 227.354 1284.41 225.788C1283.63 224.92 1282.92 223.993 1282.08 223.171C1281.86 222.959 1280.92 222.343 1280.92 222.008C1280.92 221.883 1281.5 222.151 1281.5 222.154C1282.57 222.737 1283.67 223.28 1284.74 223.885C1286.71 225.01 1288.46 226.269 1289.96 227.928C1290.17 228.162 1290.55 228.727 1290.03 228.232C1289.52 227.739 1288.93 227.327 1288.39 226.858C1288.22 226.707 1287.6 226.048 1287.32 226.078C1287.27 226.085 1287.8 227.038 1287.81 227.056C1288.47 228.249 1289.14 229.39 1289.97 230.479C1291.24 232.148 1292.83 233.497 1294.33 234.945C1294.6 235.202 1294.85 235.447 1295.16 235.659C1295.32 235.772 1294.57 235.173 1294.47 235.104C1291.27 232.901 1287.41 231.775 1283.89 230.188C1283.07 229.822 1282.27 229.373 1281.53 228.88C1280.93 228.484 1281.79 229.075 1281.95 229.23C1286.43 233.617 1291.81 237.225 1297.41 240.099C1299.16 240.998 1301.25 241.709 1302.65 243.078C1303.34 243.756 1301.51 241.5 1300.81 240.839C1298.47 238.659 1296.01 236.661 1293.98 234.185C1293.66 233.787 1293.31 233.436 1292.96 233.062C1292.8 232.893 1293.4 233.639 1293.45 233.69C1295.4 235.824 1297.48 237.875 1299.65 239.801C1300.16 240.253 1300.87 240.653 1301.22 241.248C1301.27 241.319 1301.36 241.446 1301.47 241.433C1301.53 241.426 1300.79 240.59 1300.77 240.574C1298.25 238.404 1294.66 238.004 1291.96 236.134C1291.75 235.988 1289.65 234.113 1290.65 234.113C1292.02 234.113 1293.51 234.889 1294.67 235.54C1295.59 236.053 1296.23 236.741 1297.06 237.35C1297.82 237.909 1298.5 238.521 1299.24 239.101C1299.86 239.583 1300.62 240.04 1301.1 240.654C1302.49 242.404 1304.49 243.589 1306.08 245.146C1306.5 245.564 1306.93 245.901 1307.44 246.27C1307.75 246.496 1308.06 246.731 1308.29 247.016C1308.53 247.315 1307.88 246.572 1307.8 246.455C1307.18 245.535 1306.04 245.008 1305.16 244.34C1304.43 243.784 1303.73 243.317 1303.07 242.675C1302.48 242.096 1301.89 241.52 1301.31 240.951C1300.99 240.631 1300.63 240.319 1300.25 240.059C1299.71 239.686 1299.35 239.03 1298.89 238.572C1297.93 237.632 1297.09 236.628 1296.33 235.546C1296.1 235.218 1295.83 234.951 1295.64 234.588C1295.55 234.416 1296.08 235.103 1296.11 235.143C1297.16 236.395 1298.21 237.641 1299.23 238.916C1300.34 240.307 1301.31 241.594 1301.86 243.27C1302.18 244.26 1302.43 245.378 1303.06 246.23C1303.32 246.58 1303.95 247.28 1303.23 246.666C1301.64 245.298 1300.05 243.926 1298.52 242.49C1297.38 241.42 1296.31 240.088 1294.91 239.319C1293.76 238.68 1292.26 238.252 1290.94 238.156C1289.72 238.068 1288.52 238.037 1287.3 238.037C1286.93 238.037 1286.39 237.943 1286.03 238.044C1285.45 238.207 1284.75 239.053 1284.38 239.464C1283.83 240.089 1282.44 241.197 1282.44 242.127C1282.44 242.135 1283.52 242.791 1283.56 242.821C1284.93 243.862 1286.47 244.94 1287.59 246.237C1288.94 247.783 1290.26 249.387 1291.73 250.822C1292.93 252.004 1294.29 252.918 1295.61 253.921C1296.42 254.536 1297.11 255.313 1297.91 255.929C1298 255.995 1298.66 256.443 1298.65 256.127C1298.61 254.7 1297.59 252.724 1296.64 251.661C1296.04 250.993 1295.47 250.331 1294.94 249.6C1294.58 249.1 1294.5 249.282 1294.84 249.771C1296.01 251.428 1297.63 252.798 1299.19 254.092C1300.32 255.036 1301.36 256.079 1302.46 257.059C1303.32 257.822 1304.4 258.017 1305.5 258.017" stroke="#C7A0CD" stroke-width="3" stroke-linecap="round"/>
<path d="M1303.07 264.796C1302.93 263.512 1302.52 262.519 1301.92 261.334C1301.37 260.259 1301.25 259.001 1300.64 257.925C1300.15 257.059 1299.06 254.28 1299.46 255.189C1300.01 256.433 1301.49 257.407 1302.48 258.268C1304.55 260.063 1306.58 261.926 1308.5 263.878C1309.51 264.905 1312.37 268.111 1311.24 267.208C1310.33 266.474 1309.55 265.739 1308.5 265.153C1306.5 264.031 1304.35 263.222 1302.3 262.18C1300.54 261.279 1298.8 259.992 1297.61 258.4C1297.46 258.199 1297.22 258.043 1297.06 257.839C1296.57 257.228 1297.25 257.825 1297.64 257.958C1300.52 258.923 1303.56 259.344 1306.54 259.92C1306.64 259.939 1307.61 260.203 1307.53 259.894C1307.33 259.064 1306.97 258.254 1306.68 257.449C1306.11 255.822 1305.42 254.04 1304.41 252.619C1303.97 251.993 1304.19 252.672 1304.45 252.989C1305.68 254.5 1307.45 255.58 1308.94 256.821C1311.21 258.707 1313.5 260.584 1315.81 262.418C1316.41 262.895 1316.97 263.419 1317.51 263.964C1317.67 264.122 1317.74 264.393 1317.9 264.532C1318.03 264.646 1317.73 263.704 1317.73 263.686C1317.22 262.46 1316.33 261.354 1315.56 260.283C1314.71 259.109 1313.86 257.951 1312.85 256.901C1311.26 255.231 1309.62 253.491 1308.19 251.681C1307.66 251.019 1307.24 250.33 1306.47 249.93C1305.58 249.467 1305.77 248.951 1306.1 248.206C1306.24 247.911 1306.32 247.433 1306.71 247.433C1307.89 247.433 1309.13 247.314 1310.3 247.459C1311.06 247.553 1311.39 248.129 1311.94 248.562C1312.71 249.181 1313.53 249.875 1314.16 250.637C1314.4 250.929 1314.46 251.27 1314.63 251.595C1314.75 251.829 1314.85 252.072 1314.96 252.309C1315.05 252.483 1315.38 252.872 1315.18 252.85C1314.97 252.828 1314.51 252.32 1314.36 252.183C1313.84 251.723 1313.33 251.25 1312.78 250.829C1311.81 250.088 1310.8 249.423 1309.93 248.569C1308.88 247.539 1307.56 246.835 1306.5 245.794C1306.3 245.603 1305.49 244.821 1305.57 245.232C1306.05 247.52 1306.97 249.779 1307.86 251.932C1308.62 253.793 1309.46 255.628 1310.6 257.297C1311.84 259.097 1313.25 260.764 1314.57 262.503C1315.96 264.347 1317.19 266.325 1318.6 268.152C1319.02 268.69 1319.44 269.225 1319.87 269.751C1320.1 270.031 1321.37 271.458 1320.07 270.082C1317.09 266.909 1314 263.834 1311.01 260.66C1309.93 259.513 1309.01 258.22 1308 257.013C1307.73 256.692 1308.9 258.434 1308.91 258.44C1311.01 261.49 1313.16 264.514 1315.39 267.479C1316.84 269.401 1318.25 271.346 1319.64 273.306C1320.17 274.053 1320.89 274.857 1321.25 275.711C1321.29 275.822 1321.43 276.155 1321.39 276.041C1321.08 275.125 1320.61 274.434 1320.03 273.636C1317.68 270.394 1315.03 267.383 1312.55 264.234C1311.94 263.455 1311.35 262.621 1310.68 261.896C1310.21 261.399 1310.67 261.959 1310.82 262.18C1313.48 266.136 1316.81 269.976 1320.49 273.068C1321.11 273.589 1321.78 273.999 1322.46 274.429C1322.94 274.733 1322.7 273.884 1322.65 273.636C1321.95 270.508 1319.97 267.41 1317.63 265.219C1316 263.694 1313.93 262.326 1312.67 260.468C1312.55 260.294 1312.31 260.022 1312.29 259.801C1312.27 259.342 1314.28 261.156 1314.41 261.255C1317.3 263.508 1320.2 265.748 1323.01 268.1C1324.23 269.12 1325.43 270.198 1326.46 271.403C1326.51 271.463 1327 272.126 1326.89 271.846C1326.55 270.94 1325.87 270.09 1325.32 269.302C1323.58 266.785 1321.55 264.6 1319.53 262.305C1318.42 261.051 1317.27 259.855 1316.05 258.731C1315.58 258.291 1315.31 257.684 1314.9 257.191C1314.51 256.718 1314.08 256.279 1313.68 255.817C1313.48 255.587 1313.24 255.4 1313.05 255.163C1312.91 254.992 1312.37 254.687 1312.59 254.687C1312.9 254.687 1313.5 255.709 1313.68 255.903C1314.58 256.886 1315.48 257.881 1316.54 258.704C1318.01 259.846 1319.61 260.964 1321.27 261.823C1322.26 262.336 1323.36 263.001 1324.25 263.673C1325.23 264.423 1326.09 265.041 1326.73 266.131C1327.54 267.492 1328.08 268.979 1328.8 270.386C1329.66 272.087 1330.34 273.647 1331.59 275.143C1331.95 275.574 1332.33 276.033 1332.31 275.235C1332.3 274.567 1331.97 273.884 1331.8 273.24C1331.62 272.53 1331.5 271.753 1331.22 271.073C1330.94 270.379 1330.27 269.829 1330.01 269.13C1329.87 268.767 1329.58 268.259 1329.33 267.948C1328.74 267.198 1328.27 266.247 1327.85 265.391C1327.71 265.091 1327.56 264.537 1327.28 264.32C1326.96 264.069 1327.22 264.176 1327.34 264.386C1327.7 265.001 1328.55 265.458 1329.07 265.959C1330.12 266.993 1331.03 268.244 1332.1 269.289C1332.37 269.555 1332.68 269.867 1332.98 270.095C1333.34 270.366 1333.43 270.949 1333.71 271.284C1334.05 271.692 1334.21 272.23 1334.5 272.672C1334.88 273.255 1335.32 273.803 1335.69 274.403C1336.68 276.06 1336.89 278.297 1337.32 280.138C1337.54 281.101 1337.41 282.185 1337.41 283.17C1337.41 284.291 1337.41 285.412 1337.41 286.533C1337.41 287.466 1336.99 290.268 1335.93 290.577C1334.92 290.869 1333.65 290.755 1332.61 290.841C1330.49 291.018 1328.46 291.4 1326.31 291.31C1323.16 291.179 1321.12 288.072 1319.24 285.965C1317.96 284.539 1316.59 283.127 1315.44 281.611C1313.69 279.295 1312.41 276.506 1310.35 274.429C1309.09 273.159 1307.91 271.868 1306.71 270.624C1305.8 269.674 1305.13 268.626 1304.31 267.624C1304.15 267.432 1303.99 267.11 1303.86 266.877C1303.34 265.964 1304.96 266.533 1305.29 266.639C1307.29 267.293 1308.27 268.491 1309.39 270.227C1310.33 271.672 1311.22 273.126 1312.32 274.456C1315.23 277.959 1318.37 281.23 1320.54 285.258C1320.85 285.817 1321.19 286.344 1321.52 286.89C1321.53 286.918 1322.04 287.752 1322.09 287.67C1322.36 287.266 1320.73 285.15 1320.54 284.816C1319.57 283.012 1318.39 281.353 1317.36 279.583C1315.27 275.986 1313.5 272.219 1311.44 268.602C1310.6 267.129 1309.44 265.841 1308.59 264.38C1308.5 264.226 1308.27 263.726 1308.05 263.726C1307.63 263.726 1308.96 266.108 1309 266.184C1311.71 270.641 1315.65 274.375 1319.22 278.156C1320.33 279.322 1321.37 280.567 1322.12 281.981C1322.62 282.919 1322.96 283.928 1323.4 284.888C1323.44 284.993 1323.66 285.528 1323.55 285.106C1323.16 283.591 1322.11 282.083 1321.39 280.706C1319.28 276.643 1317.08 272.61 1314.99 268.536C1314.36 267.317 1313.87 266.338 1312.9 265.391C1312.41 264.913 1312.03 264.342 1311.57 263.838C1310.76 262.959 1310.12 261.994 1309.39 261.056C1309.03 260.596 1308.58 260.175 1307.99 260.046C1306.87 259.803 1307.92 260.769 1308.25 261.189C1311.2 264.924 1314.76 267.97 1318.28 271.165C1319.46 272.235 1320.72 273.215 1321.51 274.614C1321.77 275.074 1321.82 275.612 1322.06 276.081C1322.19 276.332 1322.34 276.548 1321.9 276.365C1320.54 275.806 1319.23 275.193 1317.83 274.694C1316.44 274.191 1314.9 273.703 1313.92 272.526C1313.07 271.491 1313.05 270.214 1313.02 268.959C1313.01 268.348 1312.76 267.72 1312.65 267.122C1312.64 267.051 1312.51 266.939 1312.59 267.049C1312.98 267.585 1313.58 268.035 1314.1 268.437C1316.08 269.976 1318.35 271.259 1320.69 272.203C1321.95 272.712 1323.5 273.44 1324.91 273.359C1325.43 273.329 1324.66 270.421 1324.58 270.148C1324.13 268.711 1323.35 267.526 1323.21 266.038C1323.14 265.355 1322.97 264.649 1322.97 263.964C1322.97 263.84 1322.99 263.955 1323.03 264.016C1323.23 264.369 1323.56 264.655 1323.87 264.915C1324.78 265.664 1325.74 266.332 1326.58 267.148C1327.2 267.742 1327.87 268.334 1328.07 269.196C1328.35 270.447 1328.57 271.718 1328.85 272.976C1328.91 273.249 1329 273.591 1328.74 273.161C1328.01 271.944 1327.02 271.215 1325.76 270.531C1323.94 269.535 1321.61 268.932 1319.96 267.65C1319.84 267.55 1319.7 267.087 1319.7 267.247C1319.7 268.072 1320.52 269.048 1320.93 269.699C1322.92 272.891 1325.54 275.486 1327.81 278.453C1328.18 278.934 1328.36 279.509 1328.65 280.019C1328.73 280.16 1328.77 280.288 1328.89 280.402C1328.95 280.463 1328.92 280.385 1328.92 280.296C1328.92 279.636 1328.92 278.975 1328.92 278.314C1328.92 276.363 1328.92 274.412 1328.92 272.46C1328.92 272.234 1329.11 270.88 1328.85 270.696C1328.7 270.59 1328.92 273.516 1328.94 273.663C1329.31 276.488 1329.96 279.271 1330.54 282.06C1330.75 283.042 1330.86 284.047 1331.22 284.987C1331.24 285.041 1331.45 285.672 1331.56 285.344C1331.86 284.461 1331.59 283.08 1331.59 282.173C1331.59 281.058 1331.59 279.944 1331.59 278.83C1331.59 278.801 1331.59 279.851 1331.59 280.025C1331.59 282.128 1331.93 284.028 1332.54 286.038C1332.59 286.189 1333.15 287.443 1333.16 287.419C1333.32 286.52 1332.77 285.434 1332.56 284.584C1331.9 281.818 1331.66 278.948 1331.44 276.121C1331.38 275.443 1331.34 274.779 1331.34 274.099C1331.34 273.598 1331.51 274.915 1331.55 275.011C1332.46 277.78 1334.16 280.243 1335.04 283.032C1335.15 283.372 1335.26 283.732 1335.22 283.144C1335.16 282.211 1334.77 281.321 1334.5 280.435C1334.09 279.132 1333.71 277.729 1333.65 276.359C1333.63 275.929 1333.69 277.224 1333.8 277.64C1334.03 278.54 1334.53 279.353 1334.84 280.23C1334.93 280.504 1335.11 280.839 1335.11 281.135C1335.11 281.496 1334.85 280.449 1334.63 280.158C1332.23 276.921 1328.86 274.464 1325.84 271.826C1325.5 271.534 1325.1 271.053 1324.67 270.888C1324.46 270.809 1324.68 273.055 1324.7 273.174C1324.91 274.846 1325.22 276.577 1325.67 278.208C1325.78 278.606 1325.9 279.058 1326.1 279.424C1326.17 279.56 1326.29 279.533 1326.24 279.371C1326.23 279.325 1326.05 279.186 1326.08 279.186C1326.29 279.186 1326.5 279.526 1326.67 279.662C1326.97 279.893 1326.5 279.645 1326.49 279.781C1326.42 280.975 1326.6 282.16 1326.61 283.349C1326.62 283.728 1326.69 284.21 1326.6 284.584C1326.55 284.807 1326.14 283.779 1326.12 283.732C1325.33 281.465 1325.08 279.037 1324.44 276.729C1324.41 276.607 1324 275.194 1323.65 275.394C1323.4 275.529 1323.58 276.87 1323.58 277.072C1323.58 278.248 1323.56 279.415 1323.67 280.587C1323.71 280.982 1323.75 282.052 1324.18 282.305C1324.5 282.485 1324.77 282.828 1325.04 283.058C1325.62 283.541 1326.29 283.925 1326.85 284.419C1327.15 284.683 1328.26 285.902 1328.73 285.542C1329.59 284.888 1329.65 282.761 1329.65 281.829C1329.62 279.416 1326.8 277.926 1325.4 276.213C1324.23 274.788 1323.34 273.261 1322.49 271.648C1322.31 271.31 1322.12 270.959 1322.12 270.571C1322.12 270.053 1322.74 270.517 1323.02 270.65C1324.73 271.464 1327.19 272.664 1327.95 274.522C1328.09 274.879 1328.24 275.838 1328.04 276.213C1327.32 277.544 1325.51 274.481 1324.97 275.156C1324.24 276.068 1323.64 277.177 1322.97 278.142C1322.61 278.658 1322.23 279.25 1321.78 279.702C1321.72 279.771 1321.39 280.013 1321.39 279.781C1321.39 279.185 1325.07 279.425 1325.38 279.418C1327.01 279.38 1328.67 279.098 1330.25 278.711C1331 278.526 1331.64 277.886 1332.31 277.548C1332.8 277.307 1333.74 277.06 1334.11 276.662C1334.44 276.303 1334.58 274.949 1334.08 274.667C1333.93 274.585 1333.81 274.479 1333.74 274.72C1333.59 275.256 1333.63 275.886 1333.62 276.425C1333.58 278.161 1333.53 279.909 1333.65 281.644C1333.79 283.557 1334.04 285.446 1334.01 287.366C1334 288.366 1333.61 289.674 1333.9 290.656C1333.98 290.926 1334.18 290.517 1334.2 290.465C1334.64 289.235 1334.88 287.946 1335.1 286.666C1335.28 285.584 1336.04 283.159 1334.71 282.278C1334.28 281.992 1333.67 281.915 1333.19 281.723C1331.68 281.116 1330.24 280.308 1328.79 279.57C1328.31 279.327 1326.7 278.493 1326.03 278.175C1325.92 278.122 1325.7 277.896 1325.65 278.063C1325.56 278.376 1325.64 278.971 1325.65 279.252C1325.67 280.527 1325.73 281.794 1325.95 283.052C1326.2 284.498 1326.54 285.93 1326.98 287.333C1327.27 288.292 1327.59 289.235 1328.04 290.128C1328.1 290.245 1327.94 289.388 1327.89 289.269C1327.49 288.169 1326.81 287.245 1326.1 286.322C1325.58 285.651 1325.05 284.952 1324.43 284.366C1324.22 284.16 1323.97 283.706 1323.64 283.706C1323.16 283.706 1323.56 286.992 1323.63 287.366C1323.71 287.749 1323.81 289.62 1324.43 289.652C1324.78 289.67 1325.39 289.751 1325.7 289.586C1327.11 288.844 1328.79 288.664 1330.36 288.522C1331.25 288.442 1332.29 288.54 1333.14 288.251C1333.91 287.99 1333.52 287.878 1332.89 287.868C1331.35 287.844 1329.82 287.63 1328.27 287.63C1327.53 287.63 1327.51 287.283 1327.09 286.725C1325.77 284.978 1324.06 283.447 1322.49 281.922C1321.75 281.21 1320.96 280.563 1320.33 279.755C1319.9 279.21 1319.64 278.565 1319.21 278.023C1318.3 276.89 1317.36 275.896 1316.17 275.024C1314.85 274.052 1313.52 272.894 1312 272.236C1311.6 272.064 1307.44 271.001 1307.44 272.11C1307.44 272.522 1307.88 273.419 1308.14 273.742C1308.29 273.929 1308.26 274.263 1308.47 274.429C1308.78 274.668 1309.26 275.66 1309.38 276.035C1309.55 276.561 1309.99 277.375 1310.32 277.786C1310.48 277.977 1310.41 278.415 1310.48 278.645C1310.59 279.006 1310.74 279.422 1310.85 279.821C1311.48 282.146 1311.71 284.818 1311.33 287.214C1311.22 287.923 1311.27 288.759 1310.93 289.414C1310.82 289.624 1310.55 290.567 1310.48 289.771C1310.32 287.924 1310.52 286.054 1310.36 284.201C1310.24 282.762 1310.03 281.227 1310.11 279.781C1310.15 279.073 1310.77 278.062 1311.19 277.541C1311.48 277.191 1311.43 277.427 1311.45 277.713C1311.52 278.449 1311.85 279.148 1312.04 279.854C1312.9 282.934 1312.66 286.203 1312.66 289.361C1312.66 289.637 1312.66 289.912 1312.66 290.187C1312.66 290.509 1312.88 290.247 1312.89 290.055C1313.12 287.469 1314.03 284.994 1314.65 282.477C1314.7 282.3 1314.78 281.93 1314.69 282.331C1314.51 283.175 1314.79 284 1314.96 284.829C1315.15 285.731 1316.56 293.572 1317 293.524C1317.5 293.469 1316.03 285.695 1315.94 285.153C1315.72 283.804 1315.57 282.472 1315.44 281.116C1315.41 280.73 1315.51 281.43 1315.54 281.486C1316.11 282.968 1316.92 284.372 1317.63 285.793C1318.3 287.134 1318.83 288.396 1319.21 289.837C1319.31 290.206 1319.53 290.583 1319.57 290.96C1319.63 291.519 1320.41 291.899 1320.91 291.912C1321.42 291.925 1321.8 291.41 1322.1 291.079C1323.15 289.935 1324.08 288.656 1324.96 287.379C1326.25 285.496 1327.47 283.572 1328.65 281.618C1328.83 281.309 1328.99 280.94 1329.22 280.666C1329.59 280.227 1329.86 279.801 1329.13 280.23C1328.51 280.594 1327.82 280.749 1327.16 281.023C1325.52 281.708 1323.97 282.575 1322.42 283.441C1320.12 284.727 1318.31 286.32 1316.66 288.344C1316.11 289.02 1315.72 289.712 1315.33 290.485C1315.21 290.711 1314.78 291.793 1314.6 291.793" stroke="#C7A0CD" stroke-width="3" stroke-linecap="round"/>
<path d="M1309.99 291.079C1309.99 291.967 1309.03 293.292 1308.48 293.993C1308.04 294.545 1307.71 295.346 1307.55 296.015C1307.46 296.44 1307.39 297.152 1307.01 297.435C1306.41 297.899 1305.64 298.314 1305.01 298.743C1303.51 299.75 1302.03 301.051 1300.4 301.809C1299.79 302.091 1299.26 302.418 1298.7 302.76C1298.38 302.955 1297.85 303.305 1297.58 303.54C1297.45 303.66 1296.66 304.122 1296.9 304.155C1297.74 304.272 1298.88 303.952 1299.73 303.864C1300.78 303.754 1301.81 303.685 1302.88 303.685C1306.15 303.685 1309.43 302.734 1312.72 302.734C1315.62 302.734 1318.5 302.734 1321.39 302.734C1322.86 302.734 1324.26 302.377 1325.7 302.377C1326.16 302.377 1326.8 302 1327.16 301.73C1327.69 301.32 1328.5 301.218 1329.1 300.891C1329.53 300.654 1330.07 300.62 1330.52 300.355C1330.79 300.202 1331.08 300.123 1331.34 299.972C1331.6 299.822 1331.81 299.572 1332.07 299.43C1333.35 298.736 1334.1 297.419 1335.11 296.431C1336.61 294.961 1336.44 292.755 1336.44 290.788C1336.44 290.395 1336.22 290.911 1336.14 291.026C1335.66 291.778 1334.79 292.251 1334.13 292.876C1331.95 294.927 1330.14 297.254 1328.01 299.338C1327.56 299.786 1326.48 300.405 1325.88 300.567C1325.09 300.783 1324.27 300.921 1323.48 301.162C1322.94 301.326 1324.64 300.657 1324.82 300.593C1325.96 300.193 1327.01 299.768 1328.04 299.14C1328.83 298.661 1329.4 297.929 1330.13 297.382C1331.13 296.639 1332.21 296.129 1333.26 295.479C1334.02 295.01 1333.3 295.955 1332.66 295.955C1330.01 295.955 1327.36 295.943 1324.77 296.563C1322.8 297.034 1321.1 297.903 1319.27 298.69C1317.26 299.557 1315.15 299.896 1313.03 300.415C1312.34 300.584 1311.58 300.485 1310.9 300.659C1310.08 300.868 1309.2 301.115 1308.36 301.181C1307.49 301.249 1306.59 301.188 1305.71 301.188C1305.54 301.188 1303.49 301.172 1303.49 301.162C1303.54 300.784 1312.99 301.763 1314.09 301.783C1315.13 301.802 1316.12 301.765 1317.15 301.637C1318.76 301.436 1320.38 301.304 1322 301.095C1322.93 300.975 1324.08 300.945 1324.91 300.448C1325.26 300.238 1325.68 299.798 1326 299.523C1326.22 299.336 1326.78 299.047 1326.16 299.047C1324.4 299.047 1322.64 298.982 1320.9 299.292C1319.18 299.599 1317.53 300.199 1315.81 300.527C1313.62 300.945 1311.21 300.117 1309.03 299.88C1308.42 299.814 1307.17 299.314 1307.76 298.73C1309.35 297.176 1310.72 295.374 1311.9 293.524C1312.27 292.957 1312.53 292.048 1312.63 291.383C1312.7 290.915 1313.21 289.373 1312.87 288.965C1312.8 288.872 1312.6 289.517 1312.6 289.52C1312.13 290.742 1311.77 292.006 1311.35 293.246C1310.63 295.386 1309.96 297.529 1309.38 299.708C1309.32 299.944 1308.85 300.771 1309.48 300.567C1309.78 300.468 1310 300.166 1310.16 299.919C1310.91 298.787 1311.42 297.451 1311.97 296.219C1312.5 295.013 1313.06 293.791 1313.44 292.526C1313.49 292.354 1313.52 292.227 1313.63 292.09C1313.79 291.889 1313.96 291.664 1314.17 291.502C1314.5 291.251 1314.19 292.469 1314.16 292.585C1313.81 293.831 1313.41 295.024 1312.97 296.239C1312.9 296.421 1311.73 299.034 1312 299.034C1312.24 299.034 1312.7 298.553 1312.87 298.426C1313.76 297.729 1314.68 297.145 1315.64 296.537C1317.5 295.348 1319.32 294.094 1321.2 292.936C1321.88 292.521 1322.69 291.985 1323.43 291.7C1323.61 291.632 1323.71 291.561 1323.43 291.555C1322.61 291.537 1321.79 291.555 1320.98 291.555C1318.91 291.555 1316.92 291.523 1314.9 291.885C1314.46 291.963 1314.12 292.162 1313.87 292.533C1313.62 292.898 1313.09 293.31 1312.93 293.695C1312.87 293.821 1315.12 293.814 1315.3 293.814C1315.45 293.814 1317.2 293.785 1317.12 293.933C1317.01 294.118 1316.45 294.207 1316.27 294.264C1315.58 294.482 1314.87 294.655 1314.17 294.858C1313.96 294.918 1312.26 295.242 1313.03 295.242C1314.15 295.242 1315.18 295.518 1316.22 295.882C1317.54 296.351 1315.62 296.862 1315.09 297.138C1315.02 297.174 1314 297.739 1314.54 297.739C1315.56 297.739 1316.73 297.381 1317.71 297.138C1319.06 296.801 1320.44 296.348 1321.68 295.717C1322.3 295.403 1322.82 294.905 1323.44 294.601C1324.44 294.111 1325.54 293.932 1326.61 293.669C1327.4 293.475 1328.32 293.101 1329.13 293.101C1329.59 293.101 1331.71 292.807 1331.71 292.387" stroke="#C7A0CD" stroke-width="3" stroke-linecap="round"/>
<path d="M924.326 219.06L933.874 210.17L943.9 205.023L979.228 202.683L984.48 205.023L992.596 208.766L998.802 213.913L1004.05 219.06L1006.44 220.932V225.143L1004.05 227.015L1002.14 228.887H982.093H931.965H928.146L926.236 227.015L924.326 225.143V220.932V219.06Z" fill="#D7C5DB"/>
<path d="M943.9 205.023L933.874 210.17L924.326 219.06V220.932V225.143L926.236 227.015L928.146 228.887H931.965H982.093M943.9 205.023H955.835H962.519L970.158 206.895L976.364 210.17L980.661 213.913L984.48 217.189L985.912 220.932V223.74L984.48 227.015L982.093 228.887M943.9 205.023L979.228 202.683L984.48 205.023L992.596 208.766L998.802 213.913L1004.05 219.06L1006.44 220.932V225.143L1004.05 227.015L1002.14 228.887H982.093" stroke="#C9A2D1" stroke-width="2"/>
<path d="M986.103 210.562C986.427 210.72 986.771 210.903 986.987 211.2C987.134 211.401 986.537 210.978 986.323 210.848C985.681 210.461 984.999 210.174 984.308 209.884C981.978 208.905 979.511 208.256 977.247 207.134C976.181 206.606 975.01 206.111 973.989 205.518C973.662 205.328 973.121 205.238 972.845 205.022C972.579 204.814 971.788 204.824 971.436 204.814C971.07 204.803 970.699 204.696 970.305 204.696C969.558 204.696 968.939 204.931 968.211 204.931C967.891 204.931 967.447 205.01 967.14 204.925C966.732 204.81 966.529 204.462 967.154 204.462C968.125 204.462 969.109 204.579 970.059 204.579C970.467 204.579 970.886 204.696 971.323 204.696C973.379 204.696 975.439 204.426 977.499 204.338C978.396 204.3 979.28 204.11 980.172 204.11C980.329 204.11 980.638 204.167 980.305 204.253C979.729 204.403 979.127 204.335 978.537 204.345C977.499 204.361 976.493 204.785 975.452 204.814C974.739 204.833 974.025 204.931 973.297 204.931C973.076 204.931 971.638 204.99 971.622 205.283C971.576 206.086 973.115 206.758 973.749 206.899C974.511 207.069 975.445 207.242 976.05 207.746C977.191 208.697 978.65 209.253 979.82 210.144C980.24 210.465 980.811 210.621 981.249 210.972C981.648 211.292 982.051 211.593 982.446 211.91C982.844 212.23 983.03 212.732 983.523 212.908C983.946 213.058 984.467 213.935 984.667 214.315C984.928 214.812 985.282 215.234 985.531 215.723C985.68 216.014 986.069 216.477 986.103 216.778C986.163 217.31 986.535 217.837 986.728 218.329C986.925 218.831 987.073 219.298 987.24 219.822C987.565 220.841 987.779 221.754 987.779 222.878C987.779 223.2 987.877 223.598 987.599 223.816C987.144 224.173 987.173 224.786 987.001 225.348C986.842 225.865 986.835 226.171 986.515 226.573C986.406 226.711 985.997 227.353 985.997 227.511C985.997 227.897 988.917 227.805 989.481 227.805C990.685 227.805 991.838 227.687 993.045 227.687C993.907 227.687 994.719 227.805 995.558 227.805C996.567 227.805 997.678 227.689 998.643 227.362C998.978 227.248 999.125 226.523 999.268 226.514C999.644 226.493 1000.03 226.514 1000.41 226.514C1000.92 226.514 1001.73 226.19 1002.19 225.928C1002.67 225.662 1003.04 225.142 1003.52 224.872C1004.06 224.573 1004.29 223.488 1004.29 222.937C1004.29 222.109 1003.42 221.685 1002.74 221.353C1001.04 220.52 1000.52 218.842 999.089 217.717C998.639 217.364 997.947 216.919 997.593 216.485C997.33 216.163 998.196 217.066 998.543 217.3C999.001 217.608 999.545 217.846 999.96 218.212C1000.94 219.076 1002.4 219.291 1003.07 220.532C1003.23 220.826 1002.82 220.319 1002.73 220.226C1002.02 219.505 1001.14 218.925 1000.35 218.303C999.162 217.376 998.064 216.419 996.994 215.371C996.422 214.81 995.593 214.702 995.019 214.139C993.666 212.812 992.216 211.111 990.345 210.444C989.565 210.166 988.967 209.361 988.204 209.147C987.905 209.063 987.538 208.762 987.233 208.626C986.72 208.397 985.932 208.216 985.505 207.864C984.948 207.404 983.964 207.359 983.444 206.951C983.269 206.814 982.751 206.716 982.513 206.599C982.123 206.408 981.712 206.303 981.316 206.13C980.768 205.891 979.753 205.869 979.162 205.869C978.803 205.869 978.444 205.869 978.085 205.869C977.7 205.869 977.687 205.936 978.011 206.254C979.275 207.493 980.755 208.461 982.187 209.493C983.225 210.24 984.17 210.969 985.146 211.793C986.237 212.714 987.53 213.504 988.497 214.556C988.867 214.959 989.329 215.297 989.667 215.723C989.869 215.978 990.053 216.263 990.345 216.427C991.096 216.847 990.702 215.602 990.531 215.254C989.917 213.996 989.258 212.733 988.404 211.617C988.272 211.445 987.806 211.074 988.171 211.396C989.28 212.374 990.693 213.102 991.914 213.937C993.057 214.718 994.161 215.674 994.96 216.804C995.617 217.735 996.69 218.424 997.593 219.111C997.713 219.203 998.107 219.477 998.045 219.333C997.746 218.641 996.734 218.129 996.15 217.71C993.658 215.926 990.806 215.03 988.091 213.67C987.572 213.41 987.005 213.078 986.436 212.934C985.955 212.811 986.999 214.612 987.067 214.732C987.865 216.134 988.747 217.549 989.401 219.014C989.787 219.879 990.39 220.633 990.817 221.47C991.11 222.044 991.219 222.287 990.704 222.767C989.986 223.438 988.856 224.434 988.856 225.485C988.856 225.92 988.65 226.549 989.122 226.371C990.259 225.942 991.233 225.601 992.473 225.576C994.767 225.529 997.309 225.639 999.534 225.016C1000.03 224.877 1000.19 224.574 1000.56 224.194C1000.65 224.1 1001.57 223.076 1001.52 223.021C1001.31 222.82 1000.41 222.884 1000.15 222.872C999.095 222.821 998.055 222.761 996.994 222.761C995.277 222.761 993.468 222.697 991.801 223.171C990.501 223.541 989.694 223.668 988.909 222.409C987.836 220.687 989.267 218.488 990.771 217.424C992.666 216.082 992.478 218.898 993.104 220.004C993.275 220.306 993.13 220.759 993.191 221.092C993.234 221.332 993.35 221.625 993.277 221.874C993.193 222.165 992.745 221.616 992.712 221.562C992.302 220.891 991.922 220.088 991.635 219.359C991.524 219.076 991.263 218.564 991.263 218.251C991.263 218.114 991.442 218.31 991.449 218.316C991.768 218.608 992.194 218.79 992.566 219.007C993.585 219.602 994.586 220.193 995.704 220.558C996.311 220.757 997.02 220.856 997.593 221.092C997.931 221.232 998.374 221.027 998.723 221.125C998.893 221.173 999.681 221.641 999.202 221.171C998.697 220.676 997.994 220.481 997.38 220.154C996.473 219.671 995.629 219.3 994.62 219.066C993.886 218.895 993.478 218.643 992.872 218.303C992.679 218.195 992.189 217.667 992.327 217.6" stroke="#C9A2D1" stroke-width="3" stroke-linecap="round"/>
<path d="M846.509 138.058L852.238 134.836H854.625H903.32L907.14 135.757L911.436 138.058L919.552 144.962L924.326 150.024L931.01 155.087L936.262 156.928L941.513 158.769H947.719H954.403L959.655 160.149L963.951 162.451L967.771 165.212L970.158 168.894L971.112 176.258V180.86L967.771 185.003L961.087 189.605L957.268 190.986H951.539H852.238H835.528L829.322 187.764L825.025 182.701L822.638 179.94L821.683 167.053L823.116 162.451L825.75 158.769L832.664 149.104L839.586 143.581L846.509 138.058Z" fill="#E7D9EA"/>
<path d="M852.238 190.986H951.539H957.268L961.087 189.605L967.771 185.003L971.112 180.86V176.258L970.158 168.894L967.771 165.212L963.951 162.451L959.655 160.149L954.403 158.769H947.719H941.513L936.262 156.928L931.01 155.087L924.326 150.024L919.552 144.962L911.436 138.058L907.14 135.757L903.32 134.836H854.625M852.238 190.986H835.528L829.322 187.764L825.025 182.701L822.638 179.94L821.683 167.053L823.116 162.451L825.75 158.769M852.238 190.986L859.876 185.003L865.128 180.86L871.811 178.099L876.585 176.258H880.882H884.224H889.953L894.727 179.94L898.546 182.701L903.32 186.383L907.14 187.764L911.436 189.605H943.9L948.674 187.764L951.539 185.003L954.403 180.86V176.258V171.656L951.539 167.053L947.719 162.451L943.9 160.149H936.262H927.668L919.552 156.928L911.436 152.325L903.32 144.962L898.546 141.28L896.159 139.439L891.385 136.677L886.611 135.757L854.625 134.836M854.625 134.836H852.238L846.509 138.058L839.586 143.581M839.586 143.581L832.664 149.104L825.75 158.769M839.586 143.581L825.75 158.769" stroke="#D9ACDD" stroke-width="2"/>
<path d="M892.729 135.904C895.156 135.904 897.43 136.601 899.848 136.601C902.166 136.601 904.238 136.332 906.539 136.911C907.441 137.139 908.517 137.703 909.173 138.346C909.798 138.958 910.722 139.34 911.38 139.95C912.208 140.719 913.193 141.309 914.014 142.113C914.772 142.856 915.472 143.912 916.078 144.803C916.763 145.81 917.416 146.547 918.348 147.346C918.878 147.801 919.438 148.241 919.993 148.664C920.687 149.192 920.073 148.585 919.89 148.152C919.528 147.294 918.801 146.605 918.324 145.811C917.949 145.186 916.156 145.127 915.588 145.036C914.049 144.79 912.63 144.405 911.166 143.927C909.804 143.482 908.602 142.44 907.488 141.578C906.563 140.862 905.625 140.159 904.657 139.501C903.526 138.732 902.073 138.307 900.773 137.919C899.492 137.537 898.216 137.02 896.858 137.02C896.431 137.02 894.282 136.657 895.719 137.361C896.848 137.915 898.071 138.209 898.993 139.113C900.26 140.355 901.955 140.967 903.264 142.183C905.306 144.079 907.482 146.003 909.213 148.183C909.672 148.762 910.171 149.289 910.779 149.718C910.975 149.857 911.572 150.422 911.664 150.625C911.798 150.92 912.514 151.42 912.803 151.602C912.987 151.718 913.348 152.075 913.571 152.075C913.711 152.075 913.439 151.83 913.357 151.718C912.997 151.227 912.625 150.745 912.234 150.276C911.404 149.282 910.393 148.451 909.561 147.455C908.816 146.563 908.152 145.607 907.393 144.726C906.672 143.888 905.977 143.028 905.187 142.253C904.646 141.723 904.123 141.152 903.628 140.578C903.02 139.873 902.487 139.493 903.755 140.121C906.186 141.326 908.438 142.594 910.636 144.168C911.124 144.517 911.6 144.878 912.092 145.222C912.184 145.286 912.812 145.643 912.574 145.307C911.008 143.091 908.434 141.807 906.539 139.95C906.116 139.536 905.672 139.125 905.258 138.694C905.005 138.433 904.918 138.093 904.617 137.857C903.19 136.738 907.962 139.31 909.576 140.152C911.3 141.05 912.678 142.199 914.053 143.547C914.704 144.186 915.493 145.055 915.762 145.951C915.779 146.007 916.018 146.593 915.872 146.586C915.008 146.544 913.812 145.521 913.017 145.191C912.114 144.816 911.162 144.569 910.257 144.206C909.412 143.868 911.04 145.449 911.206 145.617C913.151 147.586 915.39 149.261 917.359 151.191C917.694 151.519 917.396 151.213 917.185 151.052C916.218 150.31 915.301 149.486 914.29 148.803C914.079 148.66 912.715 147.555 912.408 147.796C912.299 147.881 913.156 148.982 913.238 149.09C914.063 150.181 915.226 151.032 916.331 151.811C917.094 152.349 917.6 153.244 918.427 153.695C918.775 153.884 919.049 154.16 919.424 154.323C919.675 154.433 920.694 154.959 919.922 154.602C919.017 154.183 918.039 153.97 917.075 153.734C916.684 153.638 915.875 153.514 915.651 153.129C915.344 152.602 915.366 152.227 915.366 151.602C915.366 150.259 918.204 152.019 918.609 152.23C919.539 152.713 920.562 153.139 921.425 153.734C921.922 154.076 921.526 153.74 921.346 153.486C920.2 151.863 918.529 150.155 916.877 149.028C916.71 148.914 916.273 148.499 916.442 148.61C916.974 148.957 917.438 149.653 917.945 150.067C919.502 151.339 921.324 152.209 922.77 153.625C923.717 154.554 922.81 152.609 922.627 152.23C922.334 151.622 922.086 151.073 921.71 150.493C921.538 150.229 921.239 149.914 920.99 149.718C920.861 149.617 920.781 149.521 920.998 149.656C921.708 150.099 922.346 150.639 923.054 151.083C924.459 151.962 925.434 153.225 926.764 154.121C926.969 154.26 928.389 155.324 927.523 154.734C925.854 153.596 923.897 152.91 922.2 151.811C921.405 151.296 920.455 150.806 919.811 150.106C919.574 149.848 918.597 149.02 919.092 149.958C920.037 151.754 921.411 153.545 922.833 155.005C923.295 155.479 923.89 155.987 924.478 156.308C925.674 156.959 926.781 157.302 928.116 157.54C928.601 157.627 929.439 157.72 928.449 157.323C927.361 156.887 925.821 156.495 924.652 156.416C924.211 156.386 923.478 156.011 923.054 155.827C922.623 155.639 922.175 155.579 921.702 155.579C921.464 155.579 920.384 155.465 920.942 155.656C922.516 156.196 924.245 156.332 925.87 156.695C927.381 157.033 928.977 157.812 930.529 157.812C930.805 157.812 931.404 158.017 931.668 158.16C932.331 158.521 930.755 157.262 930.568 157.114C930.342 156.933 929.074 155.919 930.173 156.447C931.396 157.035 932.481 157.899 933.724 158.432C934.78 158.884 933.423 158.649 932.87 158.649C932.103 158.649 931.336 158.649 930.568 158.649C930.324 158.649 929.844 158.568 929.603 158.68C929.07 158.927 927.485 159.622 927.927 159.238C928.195 159.004 929.429 159.207 929.746 159.207C931.17 159.207 932.587 159.304 934.009 159.354C935.806 159.417 937.642 159.626 939.427 159.626C939.789 159.626 940.759 160.016 940.503 159.765C939.924 159.198 938.756 158.908 938.011 158.579C937.406 158.312 936.803 157.992 936.232 157.672C935.439 157.228 937.913 158.384 938.794 158.618C939.11 158.701 939.861 158.956 940.629 159.207C942.064 159.675 943.48 160.233 944.98 160.463C946.086 160.632 947.418 160.663 948.381 161.292C948.719 161.513 948.99 161.579 949.401 161.579C950.237 161.579 950.899 161.98 951.56 162.455C952.785 163.335 953.515 164.301 954.313 165.517C954.468 165.754 955.225 166.978 954.598 166.231C953.547 164.978 952.41 163.772 951.046 162.843C950.526 162.488 949.959 162.158 949.464 161.781C949.339 161.685 949.204 161.506 949.116 161.378C948.691 160.753 950.167 162.472 950.706 163.006C952.1 164.386 953.441 165.749 954.234 167.548C954.387 167.895 954.662 168.199 954.977 168.417C955.174 168.553 955.515 169.126 955.515 168.89C955.515 168.357 955.072 167.882 954.811 167.448C954.375 166.721 954.032 165.975 953.664 165.215C953.201 164.256 952.575 163.184 951.814 162.416C951.242 161.84 950.397 161.562 949.678 161.192C949.163 160.926 948.833 160.44 948.389 160.114C948.208 159.981 948.076 159.744 947.906 159.633C947.772 159.546 948.229 159.633 948.389 159.649C949.917 159.804 951.436 160.088 952.953 160.323C955.321 160.69 957.434 161.22 959.51 162.339C960.131 162.674 960.745 163.154 961.416 163.393C961.764 163.517 961.772 163.497 961.4 163.308C959.935 162.561 958.575 162.346 956.939 162.029C955.884 161.824 954.779 161.475 953.696 161.44C953.393 161.43 953.329 161.312 953.585 161.61C955.193 163.476 957.186 164.956 959.13 166.448C959.175 166.482 959.727 166.9 959.549 166.789C958.26 165.985 957.117 164.946 955.895 164.052C955.246 163.577 954.553 163.181 953.886 162.734C953.203 162.276 954.447 162.788 954.447 162.789C956.612 163.546 958.742 164.385 960.894 165.176C961.38 165.355 962.37 165.843 962.887 165.843C963.305 165.843 962.235 165.329 961.89 165.099C961.305 164.707 960.633 164.41 959.96 164.199C958.513 163.745 962.612 165.669 964.01 166.254C964.513 166.464 966.193 167.358 966.193 166.455C966.193 165.872 965.7 165.434 966.083 166.184C966.166 166.348 965.725 165.949 965.624 165.874C965.148 165.524 964.676 165.169 964.2 164.82C964.053 164.712 963.485 164.299 963.836 164.742C964.584 165.684 965.245 166.684 965.972 167.641C967.198 169.258 968.412 170.366 968.471 172.463C968.488 173.073 968.49 174.295 968.471 172.851C968.455 171.63 968.044 170.407 968.044 169.192C968.044 168.816 967.588 168.394 967.403 168.068C967.076 167.49 967.371 168.222 967.498 168.463C968.104 169.605 968.59 170.882 968.614 172.184C968.644 173.9 968.708 175.67 968.463 177.347C968.38 177.917 968.1 178.51 967.838 179.022C967.606 179.478 967.513 179.089 967.396 178.712C967.021 177.51 966.55 176.331 966.225 175.115C965.844 173.687 965.392 172.222 964.659 170.928C964.386 170.447 964.019 170.189 963.836 169.603C963.481 168.462 963.412 167.289 962.942 166.176C962.526 165.19 964.147 167.955 964.762 168.835C965.626 170.074 966.509 171.417 966.968 172.859C966.999 172.956 967.53 174.315 967.301 174.246C966.581 174.029 966.016 173.246 965.481 172.773C964.478 171.887 963.601 170.859 962.681 169.89C962.099 169.275 961.563 168.622 960.957 168.029C960.453 167.535 960.461 167.972 960.593 168.525C961.218 171.142 962.665 173.564 963.623 176.068C964.256 177.725 962.086 172.864 961.242 171.301C960.358 169.665 959.37 168.13 958.236 166.649C957.916 166.231 957.465 165.083 957.145 165.502C956.86 165.873 957.081 167.166 957.081 167.564C957.081 171.275 957.224 182.407 957.224 178.696C957.224 177.567 956.884 176.455 956.733 175.339C956.558 174.04 956.654 172.694 956.654 171.386C956.654 171.362 956.513 170.163 956.441 170.277C956.241 170.591 956.37 171.373 956.37 171.696C956.37 173.222 956.418 174.756 956.275 176.277C956.209 176.978 956.41 179.101 955.231 178.851C954.339 178.663 953.983 177.317 953.838 176.588C953.52 174.985 953.507 173.315 953.522 171.688C953.528 171.103 953.494 170.162 953.807 169.626C954.132 169.069 954.072 170.883 954.171 171.518C954.462 173.389 954.86 175.244 955.159 177.115C955.337 178.225 955.504 179.363 955.729 180.464C955.758 180.608 955.8 180.743 955.8 180.89C955.8 181.392 956.452 180.117 956.765 179.719C957.839 178.354 958.7 176.834 959.581 175.347C960.25 174.218 961.11 173.034 961.574 171.797C961.834 171.102 961.712 170.916 961.368 171.766C960.546 173.797 959.841 175.885 959.217 177.983C958.993 178.738 958.79 179.414 958.79 180.2C958.79 182.394 958.932 175.813 958.932 173.618C958.932 172.878 958.961 172.124 958.647 171.432C958.566 171.253 958.223 171.202 958.078 171.068C957.766 170.778 957.457 170.478 957.224 170.122C956.962 169.724 956.963 169.606 957.224 170.184C958.455 172.909 959.667 175.693 959.494 178.743C959.402 180.368 957.742 181.407 956.876 182.642C956.659 182.951 956.339 183.126 955.998 183.286C955.258 183.632 954.626 184.157 953.949 184.603C952.311 185.683 950.905 186.815 949.116 187.604C947.881 188.149 946.678 188.731 945.581 189.487C944.281 190.384 946.628 189.864 947.084 189.797C948.971 189.521 950.714 188.61 952.249 187.511C954.585 185.837 957.326 183.698 958.355 180.975C958.421 180.8 959.351 177.927 958.932 177.905C957.126 177.812 955.211 179.747 954.297 181.115C953.905 181.702 953.664 182.71 953.664 183.417C953.664 183.532 953.504 183.79 953.617 183.758C953.909 183.677 954.147 183.415 954.36 183.223C955.168 182.499 955.967 181.765 956.749 181.014C959.063 178.793 961.321 176.571 962.776 173.719C962.936 173.405 963.083 173.125 963.346 172.882C963.805 172.457 963.612 173.796 963.599 173.936C963.435 175.733 962.658 177.373 961.89 178.991C961.711 179.369 960.941 180.174 960.941 180.603C960.941 180.863 961.293 180.214 961.471 180.022C962.113 179.331 962.74 178.634 963.338 177.905C964.202 176.854 965.018 175.717 966.027 174.789C968.106 172.879 961.893 178.713 960.388 181.084C960.384 181.089 959.956 181.763 960.103 181.751C960.978 181.679 962.326 180.438 962.95 179.937C964.181 178.947 965.208 177.75 966.415 176.743C967.197 176.089 966.608 176.79 966.296 177.239C964.99 179.121 963.288 180.779 961.859 182.58C961.735 182.736 963.038 181.657 963.243 181.502C964.735 180.374 966.25 179.261 967.696 178.076C967.742 178.038 968.267 177.485 968.297 177.518C968.623 177.878 968.137 179.333 968.076 179.688C967.997 180.145 967.471 181.673 968.4 181.673C968.999 181.673 969.682 179.523 969.824 179.022C969.897 178.764 969.895 178.519 969.895 178.254C969.895 178.177 969.736 177.416 969.642 177.611C969.353 178.209 969.585 179.356 969.468 180.03C969.3 180.996 969.148 181.959 969.009 182.929C968.876 183.855 968.217 184.464 967.261 184.464C966.114 184.464 965.301 184.81 964.342 185.332C963.781 185.638 963.369 186.299 962.887 186.697C962.107 187.339 961.23 188.099 960.285 188.511C958.197 189.42 955.867 189.457 953.633 189.735C952.159 189.919 950.658 190.045 949.172 190.045C949.006 190.045 947.927 190.045 948.634 190.045C950.79 190.045 953.096 190.262 955.183 189.627C956.399 189.257 957.254 188.144 958.157 187.317C959.269 186.299 960.379 185.284 961.55 184.332C962.174 183.825 962.606 183.174 963.203 182.642C963.878 182.041 964.634 181.612 965.339 181.053C966.157 180.404 966.789 179.544 967.617 178.913C967.85 178.736 968.288 178.413 968.012 178.944C966.932 181.027 965.558 182.386 963.567 183.557C962.948 183.921 962.166 184.153 961.487 184.386C960.834 184.61 960.21 184.736 959.565 185.03C958.515 185.508 957.592 186.254 956.512 186.666C955.688 186.98 954.702 187.31 953.838 187.503C953.464 187.586 953.045 187.788 952.668 187.813C952.563 187.82 952.879 187.818 952.984 187.813C953.686 187.779 954.282 187.435 954.883 187.107C956.388 186.285 957.407 185.389 958.513 184.169C958.969 183.666 959.441 183.222 959.984 182.805C960.675 182.275 959.831 183.02 959.644 183.208C959.353 183.501 959.054 183.844 958.821 184.185C958.681 184.391 958.436 184.428 958.205 184.495C957.365 184.738 956.55 185.014 955.737 185.332C954.233 185.92 952.716 186.623 951.165 187.084C950.491 187.285 949.894 187.299 949.322 187.735C948.931 188.033 948.666 188.194 948.183 188.449C947.739 188.683 947.169 188.712 946.799 189.038C946.387 189.401 945.448 189.208 944.98 189.208C944.188 189.208 943.438 189.29 942.67 189.348C942.094 189.391 941.58 189.891 941.057 190.038C940.736 190.127 940.36 190.093 940.06 190.177C939.854 190.235 939.55 190.185 939.34 190.185C938.253 190.185 937.177 190.317 936.089 190.325C934.389 190.336 932.897 190.045 931.217 190.045C928.708 190.045 926.171 190.166 923.679 189.836C922.338 189.659 920.964 189.906 919.606 189.906C916.321 189.906 913.035 189.906 909.75 189.906C908.34 189.906 906.92 189.957 905.511 189.906C905.156 189.893 904.617 189.543 904.309 189.41C901.356 188.137 898.297 187.068 895.371 185.751C893.483 184.901 891.875 183.669 890.269 182.386C889.484 181.759 889.409 180.681 889.114 179.758C888.93 179.18 890.149 180.421 890.657 180.766C891.001 181 891.316 181.265 891.645 181.518C891.783 181.624 892.096 181.953 892.096 181.782C892.096 181.542 891.435 180.884 891.305 180.665C891.005 180.159 890.719 179.725 890.309 179.301C890.134 179.121 890.121 178.969 889.881 178.851C889.37 178.601 891.051 179.837 891.179 179.944C893.385 181.803 895.495 183.687 897.538 185.689C898.124 186.263 898.821 186.803 899.531 187.224C900.261 187.656 901.197 187.68 902.046 187.813C902.872 187.942 904.422 188.177 905.084 188.681C906.089 189.447 902.755 187.656 901.667 187.007C900.829 186.507 900.044 185.912 899.349 185.231C899.034 184.922 898.562 184.809 898.21 184.541C898.019 184.396 896.858 183.981 896.889 184.045C897.776 185.88 899.143 187.722 900.417 189.317C900.65 189.608 900.854 189.93 901.129 190.185C901.535 190.561 900.89 190.203 900.615 190.108C898.319 189.309 895.814 188.005 893.33 187.952C892.426 187.933 891.231 187.612 890.372 187.309C889.468 186.99 888.927 186.089 888.173 185.72" stroke="#D9ACDD" stroke-width="3" stroke-linecap="round"/>
<path d="M856.709 189.208C856.163 189.208 854.629 189.766 855.174 189.766C857.558 189.766 859.641 188.95 861.834 188.092C864.02 187.237 866.194 186.35 868.32 185.363C868.695 185.189 868.729 185.022 868.177 185.022C866.658 185.022 865.023 185.459 863.542 185.751C861.961 186.063 860.117 186.691 858.702 187.425C858.418 187.573 858.137 187.71 857.848 187.844C857.229 188.131 858.693 187.085 858.797 186.991C861.079 184.928 863.421 182.642 866.137 181.115C866.765 180.762 867.404 180.145 868.067 179.89C868.463 179.737 868.853 179.629 869.237 179.44C870.811 178.669 872.64 178.345 874.315 177.836C876.692 177.113 879.73 176.921 882.201 177.278C884.046 177.544 885.906 177.693 887.746 177.975C888.515 178.093 889.251 178.174 890.016 178.324C890.467 178.412 890.81 178.782 891.234 178.875C891.769 178.991 891.232 178.897 890.941 178.875C889.608 178.77 888.299 178.743 886.955 178.743C883.262 178.743 879.643 178.967 876.008 179.65C874.706 179.894 873.385 180.02 872.101 180.347C870.948 180.641 869.964 181.321 868.81 181.603C867.345 181.962 865.473 182.568 864.254 183.456C863.951 183.677 862.838 184.207 863.527 184.185C867.211 184.066 870.902 183.019 874.474 182.231C878.357 181.375 882.139 180.618 886.085 180.138C887.526 179.963 888.898 179.91 890.309 180.247C890.579 180.311 891.07 180.364 891.274 180.588C891.356 180.678 891.041 180.698 890.918 180.689C890.218 180.638 889.523 180.564 888.822 180.526C885.898 180.365 883.078 180.404 880.2 181.006C877.389 181.595 874.651 182.501 871.832 183.038C870.593 183.273 868.836 182.862 867.703 183.518C866.146 184.42 864.97 185.867 863.432 186.805C863.127 186.991 862.862 187.199 862.546 187.363C862.333 187.474 862.406 187.726 862.19 187.89C861.831 188.164 860.441 189.69 861.13 189.774C862.473 189.939 863.758 190.185 865.124 190.185C866.265 190.185 867.415 190.133 868.533 189.898C870.042 189.582 871.53 189.627 873.066 189.627C873.281 189.627 875.232 189.811 875.336 189.557C875.378 189.454 874.926 189.488 874.901 189.487C874.383 189.476 873.907 189.282 873.398 189.208C870.742 188.825 868.035 188.599 865.393 188.201C865.071 188.152 864.263 188.108 864.001 187.921C863.684 187.695 865.247 187.813 865.377 187.813C868.97 187.813 872.559 187.686 876.15 187.673C878.199 187.666 880.383 187.891 882.415 187.565C883.328 187.418 882.57 186.93 882.067 186.728C879.664 185.759 876.943 185.562 874.394 185.231C873.763 185.15 872.88 185.115 872.322 184.751C871.949 184.507 873.219 184.751 873.667 184.774C875.437 184.865 877.2 184.992 878.974 185.014C881.012 185.039 883.05 185.022 885.088 185.022C886.694 185.022 881.885 184.743 880.279 184.743C877.724 184.743 875.275 185.028 872.749 185.371C871.947 185.48 871.176 185.58 870.368 185.58C869.785 185.58 869.2 185.441 868.597 185.441C867.446 185.441 870.886 185.149 871.998 184.859C875.72 183.89 879.416 182.539 883.269 182.177C884.594 182.053 886.304 181.857 887.603 182.239C888.565 182.522 889.455 182.924 890.388 183.27C891.728 183.768 893.577 183.761 894.651 184.813C895.032 185.186 896.146 187.038 896.146 185.689C896.146 184.563 895.592 184.145 895.007 183.317C894.821 183.053 894.626 182.897 894.406 182.681C894.043 182.325 895.41 182.898 895.893 183.069C896.811 183.393 897.95 183.687 898.709 184.324C899.234 184.765 898.256 184.028 898.139 183.937C896.547 182.694 894.59 181.683 892.555 181.565C889.805 181.405 886.976 182.64 884.471 183.596C882.287 184.43 880.049 185.653 877.701 185.968C877.618 185.979 876.885 185.971 877.361 186.076C878.616 186.354 879.891 186.565 881.149 186.836C885.215 187.713 889.269 187.96 893.393 188.371C893.545 188.386 895.593 188.585 895.26 188.371C894.287 187.748 892.903 187.651 891.811 187.363C890.102 186.913 888.334 186.624 886.638 186.138C886.402 186.071 884.864 185.58 885.737 185.58C887.936 185.58 890.135 185.58 892.333 185.58C892.489 185.58 894.812 185.655 894.026 185.363C892.078 184.639 889.814 184.883 887.777 184.883C886.761 184.883 883.716 184.743 884.732 184.743C887.212 184.743 889.773 185.036 892.191 185.58C893.028 185.769 893.954 186.029 894.366 186.836C894.676 187.444 894.967 188.228 895.505 188.65C895.821 188.898 895.358 188.79 895.141 188.79C894.364 188.79 893.586 188.79 892.808 188.79C891.951 188.79 891.094 188.79 890.237 188.79C889.54 188.79 888.922 189.069 888.236 189.069C887.456 189.069 886.675 189.069 885.895 189.069C882.365 189.069 878.834 189.069 875.304 189.069C872.071 189.069 881.769 189.132 885.001 189.201C887.41 189.252 889.835 189.348 892.238 189.348C894.06 189.348 895.924 189.766 897.712 189.766" stroke="#D9ACDD" stroke-width="3" stroke-linecap="round"/>
<path d="M392.493 218.125L395.358 213.446L396.79 209.702H399.177V213.446L400.609 218.125L402.519 220.932L405.383 223.272L407.77 224.676L411.59 226.547V229.823L407.77 231.694L405.383 233.566L402.519 236.373L400.609 240.117L399.177 247.135L396.79 249.007L395.358 244.328L392.493 238.713L388.674 233.566L383.422 229.823V226.547L388.674 223.272L392.493 218.125Z" fill="#94387B"/>
<path d="M343.094 381.761L345.133 378.195L346.152 375.343H347.852V378.195L348.871 381.761L350.23 383.9L352.27 385.682L353.969 386.752L356.688 388.178V390.673L353.969 392.099L352.27 393.525L350.23 395.664L348.871 398.516L347.852 403.864L346.152 405.29L345.133 401.725L343.094 397.447L340.375 393.525L336.636 390.673V388.178L340.375 385.682L343.094 381.761Z" fill="#A27EA8"/>
<path d="M1312.27 442.389L1314.01 438.935L1314.89 436.172H1316.34V438.935L1317.22 442.389L1318.38 444.461L1320.13 446.188L1321.59 447.224L1323.92 448.605V451.023L1321.59 452.404L1320.13 453.786L1318.38 455.858L1317.22 458.621L1316.34 463.801L1314.89 465.183L1314.01 461.729L1312.27 457.585L1309.94 453.786L1306.73 451.023V448.605L1309.94 446.188L1312.27 442.389Z" fill="#95729A"/>
<path d="M86.2154 64.2482L88.5458 61.3516L89.711 59.0344H91.653V61.3516L92.8182 64.2482L94.3718 65.9862L96.7022 67.4345L98.6442 68.3035L101.751 69.4621V71.4898L98.6442 72.6484L96.7022 73.807L94.3718 75.545L92.8182 77.8623L91.653 82.2072L89.711 83.3658L88.5458 80.4692L86.2154 76.9933L83.1082 73.807L78.8358 71.4898V69.4621L83.1082 67.4345L86.2154 64.2482Z" fill="#E7BDED"/>
<path d="M874.676 28.152L877.54 23.4729L878.972 19.7296H881.359V23.4729L882.792 28.152L884.701 30.9595L887.566 33.299L889.953 34.7028L893.772 36.5744V39.8498L889.953 41.7215L887.566 43.5931L884.701 46.4006L882.792 50.1439L881.359 57.1626L878.972 59.0342L877.54 54.3551L874.676 48.7401L870.856 43.5931L865.605 39.8498V36.5744L870.856 33.299L874.676 28.152Z" fill="#A83E86"/>
<path d="M318.017 23.941H309.901L311.334 22.5372L313.721 20.1977L318.017 17.8581L323.746 15.9864L330.907 14.5827H336.636L342.365 15.9864L346.662 17.8581L351.436 20.1977L356.688 23.941L361.939 28.6201L364.803 35.1709L366.713 41.7216L367.191 48.7403L366.236 55.2911L363.849 60.9061L361.939 65.1173L359.075 69.3285L355.255 73.0718L351.436 75.8793L348.094 76.3472V74.4755L350.004 71.2001L352.391 66.9889L353.823 62.7777V56.2269V50.612L352.391 45.4649L350.004 40.7858L346.662 36.1067L342.365 30.9597L336.636 27.2163L326.611 23.941H318.017Z" fill="#9F82F1" stroke="#2A9E9E" stroke-width="2"/>
<path d="M1325.85 68.5206L1332.37 68.2585L1331.27 69.4549L1329.43 71.449L1326.06 73.5047L1321.53 75.2233L1315.83 76.6048L1311.23 76.7898L1306.59 75.8247L1303.07 74.4299L1299.16 72.6672L1294.82 69.7697L1290.44 66.1054L1287.92 60.8305L1286.16 55.5247L1285.54 49.7893L1286.08 44.391L1287.8 39.7133L1289.19 36.2011L1291.35 32.6581L1294.28 29.4676L1297.25 27.0439L1299.92 26.5526L1299.98 28.0861L1298.56 30.8315L1296.79 34.3591L1295.79 37.8559L1296.01 43.2233L1296.2 47.824L1297.53 51.995L1299.61 55.7518L1302.45 59.4778L1306.07 63.5562L1310.8 66.4383L1318.96 68.7982L1325.85 68.5206Z" fill="#785478" stroke="#785478" stroke-width="2"/>
<ellipse cx="16.7728" cy="21.6014" rx="2.86445" ry="2.80748" fill="#D9D9D9"/>
<ellipse cx="3.40535" cy="178.82" rx="2.86445" ry="2.80748" fill="#D9D9D9"/>
<ellipse cx="22.5017" cy="165.718" rx="2.86445" ry="2.80748" fill="#D9D9D9"/>
<ellipse cx="203.917" cy="249.007" rx="2.86445" ry="2.80748" fill="#D9D9D9"/>
<ellipse cx="656.5" cy="281.761" rx="2.86445" ry="2.80748" fill="#D9D9D9"/>
<ellipse cx="550.515" cy="599.006" rx="2.86445" ry="2.80748" fill="#D9D9D9"/>
<ellipse cx="594.437" cy="519.46" rx="2.86445" ry="2.80748" fill="#D9D9D9"/>
<ellipse cx="839.825" cy="427.75" rx="2.86445" ry="2.80748" fill="#D9D9D9"/>
<ellipse cx="1114.81" cy="560.637" rx="2.86445" ry="2.80748" fill="#D9D9D9"/>
<ellipse cx="1345.88" cy="131.093" rx="2.86445" ry="2.80748" fill="#D9D9D9"/>
<ellipse cx="1361.16" cy="433.365" rx="2.86445" ry="2.80748" fill="#D9D9D9"/>
<ellipse cx="122.757" cy="43.1253" rx="2.86445" ry="2.80748" fill="#D9D9D9"/>
<ellipse cx="279.347" cy="48.7403" rx="2.86445" ry="2.80748" fill="#D9D9D9"/>
<ellipse cx="594.437" cy="84.3016" rx="2.86445" ry="2.80748" fill="#D9D9D9"/>
<ellipse cx="625.946" cy="110.505" rx="2.86445" ry="2.80748" fill="#D9D9D9"/>
<ellipse cx="924.804" cy="2.88475" rx="2.86445" ry="2.80748" fill="#D9D9D9"/>
<ellipse cx="1057.52" cy="8.4998" rx="2.86445" ry="2.80748" fill="#D9D9D9"/>
</svg>
