<svg width="383" height="164" viewBox="0 0 383 164" fill="none" xmlns="http://www.w3.org/2000/svg">
<path d="M218.738 147.5L214.805 135.31H217.036L219.934 144.556L222.97 135.31H225.04L228.053 144.556L230.974 135.31H233.205L229.249 147.5H226.903L224.005 138.507L221.107 147.5H218.738ZM240.716 147.73C239.72 147.73 238.853 147.554 238.117 147.201C237.397 146.833 236.799 146.342 236.323 145.729C235.863 145.116 235.518 144.441 235.288 143.705C235.058 142.954 234.943 142.187 234.943 141.405C234.943 140.638 235.051 139.879 235.265 139.128C235.495 138.377 235.84 137.694 236.3 137.081C236.776 136.468 237.366 135.985 238.071 135.632C238.792 135.264 239.643 135.08 240.624 135.08C241.667 135.08 242.587 135.318 243.384 135.793C244.182 136.268 244.81 136.974 245.27 137.909C245.73 138.844 245.96 140.017 245.96 141.428V142.072H237.151C237.197 142.762 237.358 143.398 237.634 143.981C237.926 144.548 238.332 145.008 238.853 145.361C239.375 145.698 239.996 145.867 240.716 145.867C241.345 145.867 241.851 145.767 242.234 145.568C242.633 145.353 242.947 145.108 243.177 144.832C243.407 144.556 243.561 144.318 243.637 144.119C243.729 143.904 243.775 143.797 243.775 143.797H245.822C245.822 143.797 245.784 143.935 245.707 144.211C245.631 144.472 245.493 144.794 245.293 145.177C245.094 145.56 244.803 145.951 244.419 146.35C244.036 146.733 243.545 147.063 242.947 147.339C242.349 147.6 241.606 147.73 240.716 147.73ZM237.174 140.37H243.821C243.791 139.573 243.622 138.929 243.315 138.438C243.009 137.932 242.618 137.556 242.142 137.311C241.667 137.066 241.161 136.943 240.624 136.943C239.658 136.943 238.869 137.257 238.255 137.886C237.642 138.499 237.282 139.327 237.174 140.37ZM254.243 147.5V135.31H256.428V137.081H256.52C256.642 136.851 256.834 136.583 257.095 136.276C257.355 135.954 257.708 135.678 258.153 135.448C258.613 135.203 259.188 135.08 259.878 135.08C260.782 135.08 261.541 135.302 262.155 135.747C262.783 136.176 263.251 136.759 263.558 137.495H263.581C263.918 136.82 264.393 136.253 265.007 135.793C265.635 135.318 266.448 135.08 267.445 135.08C268.763 135.08 269.775 135.532 270.481 136.437C271.201 137.326 271.562 138.476 271.562 139.887V147.5H269.377V140.002C269.377 139.097 269.162 138.369 268.733 137.817C268.303 137.25 267.682 136.966 266.87 136.966C266.164 136.966 265.597 137.158 265.168 137.541C264.754 137.924 264.455 138.4 264.271 138.967C264.087 139.534 263.995 140.102 263.995 140.669V147.5H261.81V140.002C261.81 139.097 261.595 138.369 261.166 137.817C260.752 137.25 260.131 136.966 259.303 136.966C258.597 136.966 258.03 137.158 257.601 137.541C257.187 137.924 256.888 138.407 256.704 138.99C256.52 139.557 256.428 140.117 256.428 140.669V147.5H254.243ZM280.062 135.08C280.829 135.08 281.473 135.203 281.994 135.448C282.515 135.693 282.937 135.985 283.259 136.322C283.581 136.644 283.826 136.951 283.995 137.242H284.133V135.31H286.318V147.5H284.133V145.568H283.995C283.826 145.859 283.581 146.174 283.259 146.511C282.937 146.848 282.515 147.14 281.994 147.385C281.473 147.615 280.829 147.73 280.062 147.73C279.142 147.73 278.337 147.554 277.647 147.201C276.957 146.833 276.382 146.35 275.922 145.752C275.462 145.139 275.117 144.456 274.887 143.705C274.657 142.954 274.542 142.187 274.542 141.405C274.542 140.623 274.657 139.856 274.887 139.105C275.117 138.354 275.462 137.679 275.922 137.081C276.382 136.468 276.957 135.985 277.647 135.632C278.337 135.264 279.142 135.08 280.062 135.08ZM280.43 136.943C279.617 136.943 278.935 137.165 278.383 137.61C277.831 138.039 277.417 138.591 277.141 139.266C276.88 139.941 276.75 140.654 276.75 141.405C276.75 142.141 276.88 142.854 277.141 143.544C277.417 144.219 277.831 144.778 278.383 145.223C278.935 145.652 279.617 145.867 280.43 145.867C281.243 145.867 281.917 145.652 282.454 145.223C283.006 144.778 283.412 144.219 283.673 143.544C283.949 142.854 284.087 142.141 284.087 141.405C284.087 140.654 283.949 139.941 283.673 139.266C283.412 138.591 283.006 138.039 282.454 137.61C281.917 137.165 281.243 136.943 280.43 136.943ZM289.759 147.5V130.02H291.944V140.186L296.797 135.31H299.649L294.037 140.853L299.764 147.5H296.981L291.944 141.635V147.5H289.759ZM306.797 147.73C305.8 147.73 304.934 147.554 304.198 147.201C303.477 146.833 302.879 146.342 302.404 145.729C301.944 145.116 301.599 144.441 301.369 143.705C301.139 142.954 301.024 142.187 301.024 141.405C301.024 140.638 301.131 139.879 301.346 139.128C301.576 138.377 301.921 137.694 302.381 137.081C302.856 136.468 303.446 135.985 304.152 135.632C304.872 135.264 305.723 135.08 306.705 135.08C307.747 135.08 308.667 135.318 309.465 135.793C310.262 136.268 310.891 136.974 311.351 137.909C311.811 138.844 312.041 140.017 312.041 141.428V142.072H303.232C303.278 142.762 303.439 143.398 303.715 143.981C304.006 144.548 304.412 145.008 304.934 145.361C305.455 145.698 306.076 145.867 306.797 145.867C307.425 145.867 307.931 145.767 308.315 145.568C308.713 145.353 309.028 145.108 309.258 144.832C309.488 144.556 309.641 144.318 309.718 144.119C309.81 143.904 309.856 143.797 309.856 143.797H311.903C311.903 143.797 311.864 143.935 311.788 144.211C311.711 144.472 311.573 144.794 311.374 145.177C311.174 145.56 310.883 145.951 310.5 146.35C310.116 146.733 309.626 147.063 309.028 147.339C308.43 147.6 307.686 147.73 306.797 147.73ZM303.255 140.37H309.902C309.871 139.573 309.702 138.929 309.396 138.438C309.089 137.932 308.698 137.556 308.223 137.311C307.747 137.066 307.241 136.943 306.705 136.943C305.739 136.943 304.949 137.257 304.336 137.886C303.722 138.499 303.362 139.327 303.255 140.37ZM324.785 147.73C323.85 147.73 323.075 147.6 322.462 147.339C321.864 147.078 321.389 146.756 321.036 146.373C320.683 145.974 320.423 145.583 320.254 145.2C320.085 144.801 319.978 144.472 319.932 144.211C319.886 143.95 319.863 143.82 319.863 143.82H322.071C322.071 143.82 322.094 143.927 322.14 144.142C322.201 144.341 322.316 144.579 322.485 144.855C322.669 145.116 322.945 145.353 323.313 145.568C323.696 145.767 324.202 145.867 324.831 145.867C325.552 145.867 326.111 145.698 326.51 145.361C326.909 145.008 327.108 144.579 327.108 144.073C327.108 143.628 326.947 143.276 326.625 143.015C326.318 142.754 325.874 142.555 325.291 142.417L323.635 142.026C323.022 141.873 322.447 141.666 321.91 141.405C321.373 141.144 320.936 140.792 320.599 140.347C320.277 139.887 320.116 139.32 320.116 138.645C320.116 137.602 320.507 136.751 321.289 136.092C322.071 135.417 323.091 135.08 324.348 135.08C325.191 135.08 325.889 135.203 326.441 135.448C326.993 135.678 327.43 135.969 327.752 136.322C328.089 136.675 328.335 137.027 328.488 137.38C328.657 137.733 328.764 138.032 328.81 138.277C328.856 138.507 328.879 138.622 328.879 138.622H326.763C326.763 138.622 326.74 138.538 326.694 138.369C326.648 138.185 326.541 137.986 326.372 137.771C326.219 137.541 325.981 137.342 325.659 137.173C325.337 136.989 324.908 136.897 324.371 136.897C323.635 136.897 323.098 137.066 322.761 137.403C322.424 137.74 322.255 138.108 322.255 138.507C322.255 138.89 322.408 139.205 322.715 139.45C323.037 139.68 323.451 139.856 323.957 139.979L325.636 140.37C326.679 140.615 327.537 141.022 328.212 141.589C328.902 142.141 329.247 142.938 329.247 143.981C329.247 144.656 329.071 145.284 328.718 145.867C328.365 146.434 327.859 146.887 327.2 147.224C326.541 147.561 325.736 147.73 324.785 147.73ZM337.321 147.73C336.324 147.73 335.458 147.554 334.722 147.201C334.001 146.833 333.403 146.342 332.928 145.729C332.468 145.116 332.123 144.441 331.893 143.705C331.663 142.954 331.548 142.187 331.548 141.405C331.548 140.638 331.655 139.879 331.87 139.128C332.1 138.377 332.445 137.694 332.905 137.081C333.38 136.468 333.971 135.985 334.676 135.632C335.397 135.264 336.248 135.08 337.229 135.08C338.272 135.08 339.192 135.318 339.989 135.793C340.786 136.268 341.415 136.974 341.875 137.909C342.335 138.844 342.565 140.017 342.565 141.428V142.072H333.756C333.802 142.762 333.963 143.398 334.239 143.981C334.53 144.548 334.937 145.008 335.458 145.361C335.979 145.698 336.6 145.867 337.321 145.867C337.95 145.867 338.456 145.767 338.839 145.568C339.238 145.353 339.552 145.108 339.782 144.832C340.012 144.556 340.165 144.318 340.242 144.119C340.334 143.904 340.38 143.797 340.38 143.797H342.427C342.427 143.797 342.389 143.935 342.312 144.211C342.235 144.472 342.097 144.794 341.898 145.177C341.699 145.56 341.407 145.951 341.024 146.35C340.641 146.733 340.15 147.063 339.552 147.339C338.954 147.6 338.21 147.73 337.321 147.73ZM333.779 140.37H340.426C340.395 139.573 340.227 138.929 339.92 138.438C339.613 137.932 339.222 137.556 338.747 137.311C338.272 137.066 337.766 136.943 337.229 136.943C336.263 136.943 335.473 137.257 334.86 137.886C334.247 138.499 333.886 139.327 333.779 140.37ZM345.547 147.5V135.31H347.732V137.081H347.87C347.977 136.897 348.153 136.644 348.399 136.322C348.659 136 349.027 135.716 349.503 135.471C349.978 135.21 350.576 135.08 351.297 135.08C352.186 135.08 352.945 135.287 353.574 135.701C354.202 136.1 354.678 136.644 355 137.334C355.337 138.024 355.506 138.798 355.506 139.657V147.5H353.321V139.795C353.321 138.982 353.091 138.308 352.631 137.771C352.186 137.234 351.534 136.966 350.676 136.966C349.986 136.966 349.426 137.142 348.997 137.495C348.567 137.832 348.245 138.285 348.031 138.852C347.831 139.404 347.732 139.994 347.732 140.623V147.5H345.547ZM363.193 147.73C362.258 147.73 361.483 147.6 360.87 147.339C360.272 147.078 359.797 146.756 359.444 146.373C359.091 145.974 358.831 145.583 358.662 145.2C358.493 144.801 358.386 144.472 358.34 144.211C358.294 143.95 358.271 143.82 358.271 143.82H360.479C360.479 143.82 360.502 143.927 360.548 144.142C360.609 144.341 360.724 144.579 360.893 144.855C361.077 145.116 361.353 145.353 361.721 145.568C362.104 145.767 362.61 145.867 363.239 145.867C363.96 145.867 364.519 145.698 364.918 145.361C365.317 145.008 365.516 144.579 365.516 144.073C365.516 143.628 365.355 143.276 365.033 143.015C364.726 142.754 364.282 142.555 363.699 142.417L362.043 142.026C361.43 141.873 360.855 141.666 360.318 141.405C359.781 141.144 359.344 140.792 359.007 140.347C358.685 139.887 358.524 139.32 358.524 138.645C358.524 137.602 358.915 136.751 359.697 136.092C360.479 135.417 361.499 135.08 362.756 135.08C363.599 135.08 364.297 135.203 364.849 135.448C365.401 135.678 365.838 135.969 366.16 136.322C366.497 136.675 366.743 137.027 366.896 137.38C367.065 137.733 367.172 138.032 367.218 138.277C367.264 138.507 367.287 138.622 367.287 138.622H365.171C365.171 138.622 365.148 138.538 365.102 138.369C365.056 138.185 364.949 137.986 364.78 137.771C364.627 137.541 364.389 137.342 364.067 137.173C363.745 136.989 363.316 136.897 362.779 136.897C362.043 136.897 361.506 137.066 361.169 137.403C360.832 137.74 360.663 138.108 360.663 138.507C360.663 138.89 360.816 139.205 361.123 139.45C361.445 139.68 361.859 139.856 362.365 139.979L364.044 140.37C365.087 140.615 365.945 141.022 366.62 141.589C367.31 142.141 367.655 142.938 367.655 143.981C367.655 144.656 367.479 145.284 367.126 145.867C366.773 146.434 366.267 146.887 365.608 147.224C364.949 147.561 364.144 147.73 363.193 147.73ZM375.729 147.73C374.733 147.73 373.866 147.554 373.13 147.201C372.41 146.833 371.812 146.342 371.336 145.729C370.876 145.116 370.531 144.441 370.301 143.705C370.071 142.954 369.956 142.187 369.956 141.405C369.956 140.638 370.064 139.879 370.278 139.128C370.508 138.377 370.853 137.694 371.313 137.081C371.789 136.468 372.379 135.985 373.084 135.632C373.805 135.264 374.656 135.08 375.637 135.08C376.68 135.08 377.6 135.318 378.397 135.793C379.195 136.268 379.823 136.974 380.283 137.909C380.743 138.844 380.973 140.017 380.973 141.428V142.072H372.164C372.21 142.762 372.371 143.398 372.647 143.981C372.939 144.548 373.345 145.008 373.866 145.361C374.388 145.698 375.009 145.867 375.729 145.867C376.358 145.867 376.864 145.767 377.247 145.568C377.646 145.353 377.96 145.108 378.19 144.832C378.42 144.556 378.574 144.318 378.65 144.119C378.742 143.904 378.788 143.797 378.788 143.797H380.835C380.835 143.797 380.797 143.935 380.72 144.211C380.644 144.472 380.506 144.794 380.306 145.177C380.107 145.56 379.816 145.951 379.432 146.35C379.049 146.733 378.558 147.063 377.96 147.339C377.362 147.6 376.619 147.73 375.729 147.73ZM372.187 140.37H378.834C378.804 139.573 378.635 138.929 378.328 138.438C378.022 137.932 377.631 137.556 377.155 137.311C376.68 137.066 376.174 136.943 375.637 136.943C374.671 136.943 373.882 137.257 373.268 137.886C372.655 138.499 372.295 139.327 372.187 140.37Z" fill="white"/>
<path d="M169.5 60.5L130.5 116.5H155L190.5 66.5H229.5H258H263L266.5 71V74.5V78L263 80.5L255.5 83H248H194.5L220 118.5H240.5L229.5 100.5H253.5L255.5 104L260 108.5L263 112.5L269 118.5H318V90L343 110L347 114.5L353.5 118.5L379 116.5L339.5 85V80.5L343 76.5L379 49.5H374.5H369H362H353.5L347 52L343 55L318 74.5V49.5H297V99H292.5H289H284H281H278L276 96.5L278 94.5L281 92L284 90L289 85L292.5 80.5V74.5V66.5L289 60.5L286.5 58L281 55L273 52L265.5 49.5H261H255.5H229.5H186.5H181.5L177.5 52L173.5 55L169.5 60.5Z" fill="white" stroke="white"/>
<path d="M116.5 138.5L123 131.5L123.5 132L123 133.5L122 134.5L121 136L120 137L118.5 138.5L117.5 140L116.5 141.5L115.5 143L115 144.5L114.5 146V147.5V149L116.5 150H120H123L126.5 149L143.5 141L177 120.5L204.5 100.5L227.5 83.5L237.5 74.5L245 67.5L266 50L277.5 38L285 30L291 23L292.5 21L294.5 18.5L295.5 16.5L296.5 15V13.5V12.5V10.5L295.5 9.5L293.5 9L291 9.5L288.5 10L285 11L281.5 11.5L285.5 9.5L289 8L293.5 6L297 4.5L302 2.5L306 1H311L313.5 4.5L311 9.5L301 24L289 35.5L273 51L254 67.5L236 82.5L229.5 88L220.5 95L213 100.5L205.5 106L197.5 112L188.5 118.5L180 124L170 131.5L159 138.5L148 145L135.5 152.5L123 158.5L116.5 161L110.5 163.5H105H101V158.5L105 152.5L110.5 145L116.5 138.5Z" fill="#FF0000" stroke="#FF0000"/>
<path d="M68 125.5L2 12.5H19L67 91.7982L76 82.8772L82.5 93.7807L82 103.693L74 115.588L72 118.561L70.5 121.039L69.5 123.022L68 125.5Z" stroke="white" stroke-width="2"/>
<path d="M115 125.5L50.5 12.5H132L130.5 17.4561L107 55.6184L103 61.5658V64.0439V69.9912L104 72.4693L119.5 97.7456L123.5 105.675V111.623L115 125.5Z" stroke="white" stroke-width="2"/>
<path d="M17.1183 28.2883C18.0972 29.2384 19.0592 30.2092 20.0571 31.1405C20.9371 31.9617 19.3148 27.3429 19.1545 26.903C17.8376 23.291 16.4111 19.6649 15.313 15.9833C15.3091 15.9703 14.9658 15.1801 15.0191 15.6981C15.2102 17.5522 16.7148 19.7107 17.6221 21.2598C20.4727 26.1269 24.065 30.4471 27.4251 34.9705C27.5077 35.0817 29.5872 37.663 29.5872 37.0892C29.5872 35.9961 28.1097 34.4183 27.4881 33.5852C26.2597 31.9389 24.9371 30.3668 23.7096 28.7365C22.0127 26.4829 18.9779 24.9592 16.9294 22.9711C14.5688 20.6801 12.2278 18.6449 10.6109 15.8203C10.2825 15.2466 9.56973 14.9402 9.26748 14.3535C8.97985 13.7952 9.56136 13.3521 9.56136 14.1701C9.56136 15.1073 11.6589 14.7202 12.3952 14.7202C13.0679 14.7202 14.9986 15.0458 15.5229 14.6387C16.5462 13.8442 17.874 13.6157 17.874 15.0869C17.874 16.8256 20.261 18.9635 21.0857 20.4041C21.9138 21.8507 23.851 23.1967 24.3184 24.7842C24.5156 25.4543 25.6808 27.0027 26.1866 27.5549C26.4432 27.8351 27.6504 29.3853 27.698 29.7551C27.8682 31.0766 29.6805 33.6171 30.5528 34.7057C31.828 36.2969 34.6161 39.0968 34.8771 41.123C34.9738 41.8738 36.4221 43.749 35.9896 43.1195C35.0772 41.7912 33.2098 40.4537 32.0222 39.371C29.0371 36.6494 26.206 33.5785 22.6181 31.5887C20.3154 30.3117 19.328 27.1078 17.874 25.0694C16.3771 22.971 14.3821 20.4659 11.6395 19.8744C8.46896 19.1906 7.98294 17.4808 6.2447 15.3721C5.15075 14.045 5.00809 13.8377 6.7485 14.272C9.45431 14.9473 12.0527 16.1481 14.0955 18.0205C15.5457 19.3497 13.5965 18.3757 12.7731 18.0205C11.3239 17.3955 9.98667 16.7423 8.61674 16.0037C7.8549 15.5929 7.27302 15.058 6.53858 14.6387C6.21993 14.4568 4.42189 12.8696 5.11116 13.5386C9.29 17.5942 14.3282 20.8279 15.9847 26.4548C16.1771 27.1082 17.2562 28.5852 17.79 29.1032C18.9533 30.2321 18.6297 27.3625 18.6297 26.8215C18.6297 24.8398 17.9127 22.8549 17.3072 20.9746C16.9455 19.8511 16.9928 20.0286 17.4961 20.9542C18.5193 22.8357 20.3974 24.2973 21.9883 25.701C22.7824 26.4016 25.1301 29.1379 23.5417 26.74C21.9081 24.2737 20.2775 21.6042 18.7136 19.1207C18.4564 18.7121 18.7043 20.7403 18.7976 21.0357C19.5674 23.4735 21.5448 25.9512 22.9539 28.0846C24.3549 30.2057 25.5656 32.7258 27.1522 34.7057C28.265 36.0942 29.4841 37.2707 30.5318 38.7394C30.7832 39.0917 32.5465 41.7283 31.8543 40.5526C30.9053 38.9409 28.9705 37.7067 27.614 36.4373C25.995 34.9221 22.8551 33.4343 21.7364 31.5887C20.6837 29.8519 18.6368 28.5615 17.3072 26.9845C16.2578 25.7396 15.6615 24.3075 14.4734 23.1544C13.4131 22.1255 11.7499 21.0359 10.9888 19.8541C10.7785 19.5275 10.311 19.3185 10.0232 19.0392C7.92995 17.0077 12.5556 24.2363 13.9696 26.7604C15.3633 29.2482 16.6375 30.7189 18.6297 32.6888C19.5348 33.5838 21.0177 34.7074 21.6524 35.7854C21.9484 36.2881 23.0451 36.9577 23.5417 37.2522C24.5898 37.8738 24.8248 38.4638 25.5149 39.208C26.2035 39.9505 27.4666 40.9898 27.9919 41.8564C28.5546 42.7849 29.1525 44.2463 30.133 44.7901C30.8119 45.1665 32.5857 47.7466 31.6444 45.1364C30.7375 42.6215 29.6114 39.7729 28.0758 37.5374C27.5332 36.7475 25.6494 34.8521 26.9423 36.804C28.1337 38.6026 31.9527 43.7911 31.0146 41.8564C30.3204 40.4246 27.1162 35.9891 25.4309 35.9891" stroke="white" stroke-width="3" stroke-linecap="round"/>
<path d="M23.9405 38.8113C23.9405 37.7284 24.3499 36.0188 23.5825 35.1458C23.342 34.8724 22.8185 34.2272 22.5082 34.0507C22.3949 33.9863 22.0549 33.6702 22.0109 33.562C21.6935 32.7822 21.2999 32.0865 20.9068 31.3265C20.4624 30.4673 20.224 29.503 19.6436 28.7108" stroke="white" stroke-width="3" stroke-linecap="round"/>
<path d="M7.82617 19.0426C7.82617 20.7986 9.22928 22.2386 10.3725 23.4523C11.6393 24.7972 12.2878 26.3026 13.3764 27.805C14.7424 29.6902 16.3727 31.226 18.0315 32.899C19.4193 34.2987 20.4821 35.9818 21.4333 37.6984C21.9239 38.5839 22.4859 39.4121 23.0049 40.2549C23.327 40.7782 23.0029 40.2948 23.0446 40.2549" stroke="white" stroke-width="3" stroke-linecap="round"/>
<path d="M25.0871 43.9585C24.2391 43.1105 23.5176 42.0856 22.5935 41.3296C22.2317 41.0336 21.5008 40.0444 22.045 41.1871C22.7879 42.7473 23.7512 44.2442 24.7452 45.6542C24.8987 45.872 25.73 46.955 25.6998 46.8796C25.3175 45.9236 24.3734 45.0965 23.8047 44.2435C23.5338 43.8372 23.1264 43.5141 22.8358 43.1178C22.2606 42.3335 21.6875 41.3125 21.2969 40.4248C20.7418 39.1632 20.1318 37.7951 19.2521 36.72C18.8039 36.1722 18.1261 35.6791 17.7845 35.0529C17.3915 34.3324 17.2558 33.5732 16.6517 33.0295C16.2572 32.6745 15.8749 31.7609 15.6257 31.2626C15.0885 30.1881 14.7243 28.4745 15.1484 27.2871C15.4132 26.5456 15.4341 25.6739 15.6257 24.9075C16.1653 22.7492 16.8066 20.573 17.4995 18.4598C17.6508 17.9983 17.7848 17.3482 18.0338 16.928C18.144 16.7421 18.2903 16.5455 18.2903 16.3224C18.2903 15.7051 18.532 16.2984 18.6465 16.5148C18.8223 16.8467 19.2923 17.0711 19.473 17.4125C19.9186 18.2541 20.2998 19.0622 20.6557 19.9773C20.9709 20.7878 21.1554 21.6349 21.4964 22.4424C22.4837 24.7809 22.5223 26.9332 22.5223 29.4957C22.5223 31.6115 22.3277 33.6931 22.2729 35.8009C22.2469 36.8046 22.4452 37.9698 22.2373 38.9571C22.0468 39.862 21.3998 39.5573 20.7269 39.3703C20.1189 39.2014 19.6513 38.8841 19.2593 38.38C19.0742 38.1421 18.5057 37.8836 18.4257 37.6034C18.3685 37.4033 18.2903 36.4955 18.2903 37.1047C18.2903 38.029 18.774 38.8848 18.9315 39.7907C19.1124 40.8307 19.7604 41.7961 20.4704 42.5479C21.1139 43.2292 21.4773 44.196 22.1376 44.8562" stroke="white" stroke-width="3" stroke-linecap="round"/>
<path d="M22.5225 44.9845C22.99 45.8261 23.6923 46.4506 23.9331 47.4139C24.031 47.8054 24.3735 48.4923 24.5815 48.8389C25.2381 49.9333 26.0973 51.0914 26.9824 52.0093C27.8235 52.8815 27.7311 54.2663 28.5783 55.2438C29.2981 56.0743 29.9439 56.9866 30.7014 57.7802C30.814 57.8981 31.7881 59.0071 31.6704 58.6707C30.4295 55.1253 28.8698 51.5688 28.3717 47.8058C28.2256 46.7017 28.6042 44.7966 27.7091 43.9015C27.3494 43.5418 27.5396 44.2487 27.5809 44.4573C27.8991 46.0635 28.9196 47.6024 29.6256 49.0668C30.0465 49.9397 30.8171 51.2208 29.2623 50.8266C27.5141 50.3834 26.6372 48.7211 26.3412 47.0933C26.0047 45.2423 24.8308 43.5644 24.8308 41.6573C24.8308 41.0398 26.2029 43.3125 26.2415 43.3743C28.8468 47.5491 31.2823 51.8295 33.8505 56.0275C34.3359 56.821 34.854 57.5859 35.3609 58.3644C35.5048 58.5853 35.5849 58.9095 35.7884 59.084C36.2096 59.445 35.9879 58.0263 35.9879 57.8657C35.9879 53.5335 35.6653 49.2977 34.8622 45.0415C34.7002 44.1832 35.1094 45.9608 35.1899 46.1529C36.2183 48.6052 37.4967 50.8958 38.7522 53.2347C38.7827 53.2915 39.5938 54.6896 39.3649 54.6739C37.8703 54.5708 36.3477 52.3859 35.596 51.3609C33.7825 48.888 32.4795 46.2169 31.1717 43.4598C30.941 42.9736 30.5927 41.8738 30.1529 41.5219C29.9356 41.3481 30.2306 42.0806 30.3452 42.3341C32.2973 46.6523 34.7652 50.7435 36.7716 55.0443C37.6801 56.9918 38.9673 59.3117 39.1868 61.5063C39.2498 62.1364 39.1713 60.346 39.1654 60.2595C38.893 56.2717 37.3514 51.4083 34.5772 48.3259C33.1532 46.7437 32.953 44.9117 32.7889 42.8614C32.7522 42.4018 32.7447 41.9845 32.6536 41.5291C32.527 40.8961 32.3658 41.2899 32.4256 41.7357C32.7987 44.5172 34.9238 46.5207 36.2444 48.8317C36.4953 49.2709 37.2208 49.8729 37.655 50.1141C38.831 50.7675 39.7558 51.9766 40.5761 53.0067C40.9384 53.4617 41.1029 54.1035 41.5664 54.4744C41.6579 54.5475 42.2575 55.6573 42.2575 55.3578C42.2575 54.9436 41.7128 54.4536 41.5308 54.0896C41.3074 53.6428 41.0188 53.251 40.7969 52.8072C40.4689 52.1511 39.9972 51.5926 39.6499 50.9477C39.3416 50.3751 39.2596 49.7172 39.0372 49.1167C38.8518 48.6162 38.467 48.0809 38.168 47.6491C37.8153 47.1396 37.4675 46.6718 37.0779 46.1956C36.7535 45.7991 36.6106 45.1532 36.0449 44.9916C34.6063 44.5806 32.9259 44.7544 31.9839 46.0104C30.7242 47.6899 31.3023 50.3656 32.5253 51.938C33.7516 53.5147 34.5632 55.6428 35.2825 57.4881C36.1284 59.6578 36.7403 61.998 37.4626 64.2208C37.8486 65.4082 38.0498 66.8083 38.5527 67.9398C38.6132 68.0759 38.9188 69.097 38.7807 69.1937C38.3602 69.4881 36.0483 66.4525 35.8667 66.0803C35.0617 64.43 34.7684 62.5487 33.8719 60.9506C33.4375 60.1764 33.0217 59.4145 32.6536 58.6066C32.396 58.0415 31.9435 57.6055 31.6989 57.0463C31.2782 56.0848 31.4881 58.1068 31.5065 58.457C31.6346 60.8897 32.7806 63.5783 34.5131 65.3108C35.5232 66.3209 36.2356 67.7019 36.8856 68.9657C37.5545 70.2664 38.2239 71.5814 39.0942 72.7417C39.5226 73.313 39.831 73.9834 40.284 74.5371C40.5277 74.835 41.0049 75.3361 41.1104 75.7055C41.2154 76.0728 41.6443 76.7995 41.9511 77.045C42.1103 77.1723 42.019 76.6851 42.0152 76.5462C41.9785 75.2067 41.5122 73.7133 40.9252 72.5137C40.1196 70.8676 39.7632 69.0803 38.9659 67.4268C38.635 66.7404 38.5708 65.9669 38.2962 65.2609C38.0066 64.5162 37.7102 63.82 37.5268 63.0381C37.323 62.1696 37.0564 61.3062 36.8214 60.4447C36.7043 60.0152 36.186 58.8332 36.5008 59.1481C37.3589 60.0061 38 61.4149 38.6168 62.4467C39.906 64.6033 40.7745 66.9766 41.887 69.2222C42.7842 71.0332 43.6407 72.9639 44.9078 74.5514C45.3032 75.0467 45.6743 75.6803 46.1831 76.076C46.5014 76.3236 46.3857 76.0357 46.3185 75.7198C45.8208 73.3805 45.0145 71.0198 44.1312 68.8019C42.6991 65.2056 40.0883 62.1463 38.6809 58.5496C38.3094 57.6001 37.2538 54.7337 37.5339 55.714C37.8591 56.8523 39.0043 57.9026 39.6784 58.8346C40.5675 60.0638 41.427 61.3168 42.2076 62.6177C43.2596 64.371 43.8823 66.3003 45.0361 68.011C45.8374 69.1992 46.6903 70.3432 47.4014 71.5876C47.4595 71.6893 47.6277 71.8764 47.5866 71.6303C47.3734 70.3508 46.8322 69.0471 46.3755 67.84C45.7398 66.16 45.0441 64.4864 44.2096 62.8956C43.6521 61.8329 42.9868 60.8466 42.4285 59.7893C41.9004 58.7893 41.3524 57.7773 40.7969 56.7899C40.598 56.4362 39.687 55.6381 40.0417 55.8352C41.1468 56.4491 42.2304 57.1586 43.1409 58.0367C43.6539 58.5314 44.0058 59.1033 44.4803 59.6326C44.64 59.8106 45.6198 61.4049 45.2213 60.63C44.752 59.7175 43.8945 59.0024 43.4259 58.0651C43.2267 57.6667 42.9129 57.1704 42.9129 56.7186C42.9129 56.5812 42.7847 56.1893 42.7847 56.3268C42.7847 57.1039 43.1063 57.7828 43.4401 58.4712C44.5488 60.7579 45.5577 63.0877 46.6604 65.3749C47.1756 66.4433 47.4848 67.548 48.2991 68.4527C48.753 68.957 48.9565 69.7742 49.5103 70.1698C50.3303 70.7555 48.7762 68.2922 48.3703 67.3698C47.8795 66.2542 47.1577 65.2209 46.6961 64.0925C46.4443 63.4771 46.2565 62.831 45.9907 62.233C45.8064 61.8183 45.5802 61.4191 45.378 61.0147C45.321 60.9006 45.5192 61.5804 45.6131 61.7272C46.1183 62.5165 46.6915 63.2521 47.1164 64.0925C47.6995 65.2458 48.1274 66.2102 48.9403 67.1988C49.4614 67.8326 50.04 68.3954 50.579 68.9942C50.8437 69.2884 50.9152 69.7722 51.1845 70.0415C51.628 70.485 50.7542 68.8521 50.4151 68.3245C50.1017 67.8371 50.1306 67.1893 49.7668 66.7215C49.4914 66.3675 49.197 66.1304 48.8833 65.8167C48.4949 65.4282 48.3142 64.5144 47.9429 63.8645C47.9038 63.7961 47.5439 63.0979 47.5439 63.4869C47.5439 65.0175 48.7538 66.8108 49.4248 68.1108C50.6349 70.4553 51.5357 73.4705 53.4288 75.3636C54.0023 75.9371 54.7055 76.2879 55.3524 76.76C55.4414 76.8249 55.8402 77.1906 55.787 77.0948C55.0106 75.6973 53.7251 74.6636 52.9443 73.2262C52.6524 72.6888 52.4859 72.1122 52.3387 71.5234C52.2608 71.2117 52.2746 70.2403 52.2746 70.5616C52.2746 72.1283 53.0094 73.6636 53.044 75.2211C53.0606 75.9661 53.044 76.7129 53.044 77.4582C53.044 77.9736 53.3086 79.433 53.0227 79.0042C52.2755 77.8835 51.264 76.9567 50.4792 75.8623C49.519 74.5232 48.8068 72.9812 47.8004 71.6873C47.6202 71.4556 47.2732 70.6884 47.2732 70.982C47.2732 71.3362 47.4278 71.6671 47.5795 71.9794C48.2044 73.266 49.0267 74.4607 49.838 75.6343C50.8502 77.0985 51.9235 78.5231 52.9657 79.966C53.3175 80.4532 52.0612 79.0338 51.9611 78.9401C50.2492 77.3377 48.4417 75.8376 46.6889 74.2806C46.5605 74.1665 43.9594 71.8753 43.7679 72.2858C43.5758 72.6974 43.9954 73.6776 44.1027 74.0313C44.5313 75.4429 45.0515 76.8462 45.606 78.2134C45.9335 79.021 46.4308 79.7517 46.7531 80.5574C47.0973 81.4179 45.7646 78.9855 45.1928 78.2561C44.5459 77.431 43.7387 76.3331 42.8631 75.7269C41.9175 75.0723 43.6789 77.8846 44.2239 78.8973C44.9499 80.2466 45.766 81.5012 46.5607 82.8016C46.8679 83.3043 46.5842 82.695 46.4752 82.5166C45.7063 81.2583 44.778 80.1924 43.7394 79.1538C43.6783 79.0928 42.5412 78.0065 42.5353 78.021C42.251 78.7319 43.806 80.5899 44.1384 81.0917C44.6347 81.8411 45.1127 82.801 45.7343 83.4571C45.9564 83.6916 45.4205 82.6166 45.3495 82.5024C45.2007 82.2626 44.6208 81.2012 44.7368 82.1034C44.8603 83.0637 45.3392 83.9757 45.8554 84.7822C46.7679 86.208 46.7557 84.1495 46.7602 83.3146C46.7699 81.5294 46.8776 79.6929 46.6961 77.9142C46.5727 76.7047 46.9109 78.2728 47.1877 78.7406C47.9046 79.9523 48.7051 81.0717 49.5031 82.2245C49.8876 82.7798 49.2795 81.3693 49.2395 81.2912C48.3247 79.5044 47.0464 77.4761 45.5633 76.1116C45.5259 76.0772 45.1694 75.7585 45.321 76.0618C45.6992 76.8181 46.3259 77.4972 46.8599 78.1421C47.6123 79.0508 48.442 80.2793 49.5245 80.8352C49.8047 80.9791 48.9245 78.5481 48.8121 78.2775C48.5732 77.7026 48.3234 77.1303 48.0569 76.5676C47.9558 76.3544 47.491 75.8732 47.7149 75.9478C47.9175 76.0153 48.2109 76.3587 48.3561 76.4892C49.0748 77.1352 49.798 77.7923 50.4507 78.5055C51.3449 79.4825 51.918 80.5279 52.6522 81.5833C52.7203 81.6812 53.0229 82.1933 53.1723 82.1746C53.4376 82.1415 53.4142 79.7498 53.4216 79.4958C53.4411 78.8358 53.2916 78.0293 53.4359 77.3798C53.4815 77.1744 54.0627 77.9235 54.0985 77.9711C54.4421 78.4292 55.4297 79.8066 55.217 79.2749C54.8897 78.4565 54.1481 77.5971 53.5855 76.9167C52.941 76.1374 53.7676 77.928 53.8919 78.135C54.1724 78.6025 54.6143 79.4722 55.0959 79.7665C55.2422 79.8559 56.3858 80.5827 55.9936 79.9945" stroke="white" stroke-width="3" stroke-linecap="round"/>
<path d="M49.3249 87.0478C49.3249 86.2449 48.1195 84.3975 47.4013 83.9985C47.2475 83.9131 47.7974 86.3664 47.843 86.5206C48.6038 89.0894 49.5446 91.7557 50.9137 94.0727C51.6793 95.3683 49.3879 91.4771 48.6837 90.147C48.4288 89.6656 47.6573 88.2585 48.0425 88.6437C48.174 88.7753 48.317 89.1248 48.413 89.2707C49.0187 90.1916 49.6144 91.1209 50.2511 92.0208C51.3697 93.6015 52.6454 95.0242 53.9132 96.4808C56.2375 99.1512 50.1083 90.5092 48.1921 87.5323C47.2561 86.0782 46.4921 84.432 45.4777 83.0438C45.3367 82.851 44.1268 81.4272 44.0742 81.9538C43.9052 83.6436 45.3513 85.75 46.1403 87.112C47.5626 89.5673 49.234 91.8597 51.0918 94.0014C51.9904 95.0372 52.9699 95.9989 53.8633 97.0365C54.222 97.453 54.6109 98.1522 55.0958 98.4329C55.3413 98.575 55.3761 98.5247 55.3238 98.2476C54.7638 95.2797 54.1876 92.3057 53.4144 89.3847C52.6937 86.662 51.6688 84.0036 50.3651 81.5049C49.9238 80.6591 49.604 79.6581 49.0685 78.8689C48.7796 78.4432 49.0297 79.9166 49.1825 80.4078C50.5426 84.7821 52.0805 89.0546 53.215 93.5027C53.622 95.0987 54.0745 96.6824 54.4831 98.2761C54.6501 98.9272 54.1975 97.5637 54.1198 97.4141C52.5273 94.3472 50.5694 91.4116 49.5814 88.0738C49.2733 87.0329 48.812 86.0269 48.812 84.939C48.812 84.5934 48.8258 84.4671 49.0328 84.7537C49.8197 85.8432 50.9923 86.7886 51.904 87.7746C53.1995 89.1755 54.5122 90.5678 55.5874 92.149C55.616 92.1911 56.5495 93.5087 56.6062 93.2462C56.7356 92.6477 56.5582 91.8605 56.5065 91.2656C56.4191 90.2602 56.2829 89.2646 56.0933 88.2733C55.695 86.1914 55.2737 84.0397 54.6826 82.0037C54.5622 81.589 54.2526 80.1388 53.8134 79.8948C53.4197 79.6761 53.5687 81.2952 53.5712 81.3411C53.7867 85.328 55.6854 89.2227 57.7105 92.5979C57.9419 92.9834 58.1583 93.4446 58.48 93.7663C59.2219 94.5082 57.4088 91.9619 56.8627 91.0661C55.1303 88.2244 53.5192 85.2819 52.4669 82.1248C52.2248 81.3987 52.2461 80.6612 52.2745 79.8948C52.2891 79.4997 52.7552 79.9655 52.8445 80.0515C53.5447 80.7259 54.2795 81.3583 54.9676 82.0464C56.1113 83.1902 56.69 85.0237 58.0383 85.9507C58.1489 86.0267 58.385 86.4017 58.423 86.1359C58.527 85.4078 58.3874 84.6398 58.2021 83.9415C57.9018 82.8094 57.5597 81.4252 56.763 80.5146C56.3089 79.9956 55.6088 79.4672 55.6088 78.7121C55.6088 78.3963 55.4986 77.4713 55.6159 77.7646C55.7722 78.1553 56.1649 78.4817 56.4424 78.7834C56.9098 79.2914 57.3255 79.8945 57.6892 80.479C58.0649 81.0829 58.4092 81.7401 58.8434 82.3029C59.2472 82.8265 59.7685 83.2278 60.0403 83.8489C60.3707 84.6041 60.8807 85.2805 61.2586 86.0362C61.6458 86.8105 62.0309 87.567 62.4341 88.3303C62.9685 89.3417 63.7944 90.3091 64.4575 91.2513C64.7075 91.6066 65.0266 91.941 65.1058 92.377C65.1913 92.8471 65.678 93.4073 65.8967 93.8447C66.0596 94.1705 66.2282 94.4624 66.3811 94.8065C66.7785 95.7005 67.3234 96.5557 67.7633 97.4354C67.8006 97.5101 68.0052 97.9054 67.7918 97.6919C67.3371 97.2372 66.9554 96.6556 66.5664 96.1459C65.1834 94.3337 63.7396 92.6874 62.5339 90.7384C61.1933 88.5714 59.767 85.9545 57.8459 84.255C57.7969 84.2117 57.3518 83.6438 57.4327 83.8703C57.561 84.2295 57.824 84.57 58.0312 84.882C58.8341 86.0909 59.6601 87.2866 60.4962 88.4728C62.1139 90.7676 63.5861 93.1022 64.771 95.6543C65.8071 97.8859 66.7146 100.174 67.9485 102.309C68.33 102.969 68.6576 103.696 69.0742 104.332C69.1629 104.467 69.6123 104.902 69.3734 104.467C67.9679 101.912 65.8979 99.8553 64.3293 97.4212C63.1636 95.6125 62.139 93.7241 61.1375 91.8213C60.6032 90.8062 59.9768 89.8515 59.5843 88.772C59.3324 88.0793 58.8444 86.7177 58.3019 86.2071C58.1436 86.0582 58.1998 86.4778 58.2021 86.4921C58.3152 87.1706 58.6199 87.8239 58.9003 88.4443C60.7437 92.522 62.8121 96.4979 64.7567 100.528C65.8991 102.895 67.1306 105.201 68.3404 107.531C68.5467 107.928 68.6716 108.314 68.946 108.657C69.9229 109.878 67.4172 105.927 66.6091 104.588C64.4917 101.081 62.3498 97.5426 60.1044 94.1154C59.6176 93.3724 59.1181 92.6366 58.5726 91.9353C58.2595 91.5327 58.1318 91.4532 58.2021 92.1633C58.4394 94.5571 59.3871 96.9488 60.0973 99.2308C60.8037 101.501 61.5842 103.73 62.3771 105.971C62.6665 106.788 62.861 107.809 63.3033 108.564C63.3935 108.718 63.6753 108.943 63.4886 108.649C61.9565 106.242 60.2473 103.977 58.9431 101.411C58.2093 99.9672 57.6361 98.4404 56.8912 97.008C56.7053 96.6504 56.4279 95.7274 56.0505 95.5118C55.7171 95.3213 55.8598 95.9317 55.8867 96.1245C56.0784 97.4984 56.977 98.7787 57.4612 100.064C58.3073 102.311 59.1281 104.603 60.2255 106.74C60.2551 106.798 60.5513 107.27 60.4535 107.025C60.2509 106.519 59.6647 106.118 59.2708 105.771C58.3771 104.985 57.6732 104.196 57.0195 103.206C56.7475 102.794 56.4709 102.366 56.25 101.924C56.0712 101.566 56.0649 101.135 55.8653 100.798C55.6872 100.498 55.8151 99.8319 55.5447 99.6156C55.2686 99.3947 55.0474 98.9259 54.7752 98.6537C54.495 98.3735 54.1195 98.1975 53.8419 97.9199C53.5629 97.6409 53.3767 97.2745 53.2007 96.9225C52.8534 96.2279 52.8977 97.4241 52.93 97.6421C53.1033 98.8123 54.0249 99.8101 54.6114 100.77C54.9144 101.266 55.4689 101.414 55.8582 101.803C58.0485 103.993 59.4865 106.742 61.5079 109.077C62.0054 109.651 62.5151 110.424 63.111 110.901C63.2216 110.989 63.1398 111.213 63.3603 111.15C63.5651 111.092 63.4332 109.625 63.4316 109.504C63.4021 107.368 62.9887 105.215 62.4056 103.164C62.0645 101.963 61.4558 100.87 61.1232 99.6726C61.0973 99.5795 60.8579 98.7641 60.8667 99.0028C60.909 100.144 61.8434 101.276 62.4199 102.195C63.7123 104.253 65.183 106.251 66.4096 108.336C66.6558 108.755 66.6376 107.981 66.6376 107.894C66.6376 106.031 66.9399 104.233 67.2147 102.394C67.7476 98.8281 69.7267 95.9727 71.3754 92.8401C71.4739 92.653 72.4208 90.5104 72.0238 90.5104C71.8153 90.5104 71.314 90.8061 71.1261 90.9236C70.8446 91.0995 70.799 91.4963 70.6131 91.7287C70.1777 92.273 69.5757 92.702 69.0742 93.2035C68.9262 93.3515 68.319 93.9736 68.319 94.1653C68.319 94.1888 69.7258 92.8433 69.8437 92.6905C70.7249 91.5482 71.6671 90.3684 72.6721 89.3633C73.2072 88.8283 73.6702 88.211 74.268 87.7461C74.5331 87.5398 74.7665 87.2646 75.0375 87.0478C75.2278 86.8956 75.7428 87.2842 75.7428 86.7629C75.7428 86.6051 75.7428 85.6696 75.7428 85.9578C75.7428 86.886 76.4899 87.7839 76.897 88.5868C77.7792 90.3268 78.6389 92.124 80.0389 93.5241C80.7704 94.2555 79.6012 92.6884 79.4547 92.5053C78.6461 91.4946 77.882 90.447 77.2104 89.3277C76.7705 88.5945 76.8741 87.0808 76.1916 86.5349C75.9447 86.3373 75.8953 85.8919 75.7143 85.6657C75.3927 85.2637 75.0729 87.2692 74.9805 87.5466C74.6331 88.5886 74.0327 89.1285 73.3703 90.0117C72.5351 91.1253 72.164 92.6772 71.8385 94.0014C71.3143 96.1346 71.0247 98.2736 70.8411 100.456C70.8336 100.546 70.6864 101.688 70.7699 101.354C71.102 100.025 71.5693 98.7389 72.1021 97.4782C72.7884 95.8546 73.4548 94.2185 74.3036 92.6905C74.7271 91.9282 74.1916 90.9609 74.4746 90.1827C74.5453 89.9883 75.5865 89.1353 75.6145 89.6127C75.6294 89.8648 75.4441 89.9653 75.3296 90.1827C74.7721 91.24 74.0852 92.2196 73.3774 93.1821C71.441 95.8156 70.3624 99.2966 69.4589 102.408C69.3548 102.767 68.9533 103.755 69.2309 103.506C69.4125 103.342 69.5496 103.026 69.7012 102.836C70.3394 102.036 71.0126 101.266 71.639 100.456C72.9107 98.8119 74.2391 97.2246 75.5291 95.5973C75.7099 95.3692 76.2479 94.6257 75.9209 95.3551C75.2516 96.8481 74.1757 98.133 73.4416 99.6013C73.0939 100.297 72.5039 101.115 72.4156 101.91C72.349 102.509 72.4774 101.207 72.494 101.126C72.859 99.3339 73.7957 97.6871 74.2751 95.925C74.7049 94.3455 74.8847 92.7619 74.2039 91.23C74.0044 90.7811 74.7493 92.0505 75.0731 92.4198C76.3552 93.8819 77.6356 95.3524 78.8918 96.837C78.9422 96.8964 79.4618 97.6695 79.4618 97.2787C79.4618 96.3921 79.0606 95.454 78.8206 94.6141C78.5571 93.692 78.3711 92.5935 77.8944 91.7501C77.3507 90.7881 77.8322 92.6932 77.8802 92.8544C78.3379 94.3922 78.8882 95.9482 79.5758 97.3998C79.9791 98.2513 79.7088 97.9844 79.3051 97.35C78.412 95.9466 77.5609 94.5192 76.6405 93.1322C76.4821 92.8936 75.1767 91.1879 76.0491 92.1063C77.3326 93.4573 78.5388 94.909 79.6898 96.3739C79.8296 96.5518 80.5036 97.6777 80.7941 97.6777C81.1081 97.6777 80.5446 97.1012 80.4307 96.8085C80.3369 96.5672 80.1135 96.2473 80.103 95.9963C80.0857 95.5794 79.9317 96.5097 79.9178 96.5662C79.5612 98.0104 78.8937 99.4 78.443 100.82C78.1485 101.747 77.981 102.688 77.7377 103.627C77.7024 103.763 77.6811 104.262 77.5382 103.976" stroke="white" stroke-width="3" stroke-linecap="round"/>
<path d="M80.8726 94.9989C80.8726 93.8785 80.8726 95.1683 80.8726 95.6686C80.8726 97.5664 80.6161 99.4635 80.6161 101.347C80.6161 102.325 80.902 103.999 80.3525 104.824C80.0598 105.263 79.7721 105.599 79.3266 105.85C78.867 106.108 78.0773 106.628 77.8233 107.111C77.3974 107.92 76.6964 108.649 76.1205 109.369C75.3517 110.33 74.77 111.459 73.9475 112.369C73.8322 112.496 72.5847 114.202 72.4371 113.922C72.089 113.26 72.2986 112.059 72.3587 111.378C72.5345 109.387 72.9752 107.37 73.7124 105.508C75.5426 100.884 79.6598 97.1294 80.2243 92.0493C80.2346 91.956 80.2717 91.2828 80.1031 91.5933C79.7078 92.3215 79.3357 93.065 78.9418 93.7948C78.3464 94.8982 77.657 96.0049 77.2106 97.179C76.7203 98.4681 76.4958 99.8926 76.3129 101.254C76.1493 102.472 75.9994 103.772 75.9994 105.002C75.9994 105.624 75.9385 106.339 75.7429 106.925" stroke="white" stroke-width="3" stroke-linecap="round"/>
<path d="M74.7172 104.745C74.6824 104.432 74.3331 104.085 74.1899 103.812C73.7684 103.007 73.4205 102.224 73.335 101.311C73.2808 100.733 73.3065 100.146 73.3065 99.5657C73.3065 98.8382 72.9283 99.731 72.8149 99.9504C71.9157 101.691 70.8741 103.362 70.0577 105.144C69.7335 105.852 69.2251 106.761 69.2027 107.567C69.2003 107.654 69.1397 108.065 69.2882 108.065C69.5837 108.065 69.9473 107.783 70.1574 107.624C71.1385 106.879 71.9488 105.91 72.7365 104.973C74.2159 103.214 75.5822 101.359 76.8118 99.4161C77.0015 99.1163 77.5242 98.4095 77.5242 98.0125C77.5242 97.3992 75.8614 98.1748 75.7431 98.2619C73.4038 99.9839 72.537 102.619 72.537 105.386" stroke="white" stroke-width="3" stroke-linecap="round"/>
<path d="M67.92 124.238C67.8387 122.531 67.1586 120.023 66.1246 118.624C65.4518 117.714 64.681 116.778 64.201 115.746C63.5125 114.265 62.3821 112.974 61.7929 111.442C61.2439 110.015 60.2174 108.537 59.171 107.41C58.6968 106.899 58.1571 106.383 57.8174 105.771C57.5093 105.217 58.5106 106.609 58.6438 106.754C60.2603 108.521 61.8065 110.328 63.346 112.162C64.5832 113.636 65.6794 115.675 67.3358 116.729C67.7125 116.968 67.7783 116.703 67.7917 116.387C67.8384 115.29 68.3341 114.043 68.7464 113.031C68.8889 112.681 69.2405 112.011 69.5871 111.827C69.8968 111.663 69.3509 113.53 69.3235 113.601C68.6892 115.25 67.92 116.702 67.92 118.496C67.92 118.647 67.862 120.107 68.148 119.849C68.616 119.428 69.0642 118.656 69.4019 118.132C70.1337 116.997 70.942 115.897 71.7387 114.805C72.0532 114.374 72.3109 113.923 72.5652 113.466C72.6705 113.276 73.0496 112.814 73.0496 113.031C73.0496 113.401 72.8882 113.518 72.7932 113.85C72.3158 115.521 71.3122 117.086 70.613 118.659C70.1278 119.751 69.3399 120.81 68.7535 121.866C68.5882 122.163 68.6894 120.766 68.6894 120.59C68.6894 117.998 69.1224 115.632 69.9077 113.159C70.644 110.841 71.5116 107.994 73.1209 106.092C73.4706 105.678 73.6781 105.136 74.2038 104.902C74.4069 104.812 74.3321 105.728 74.3321 105.842C74.3321 107.078 73.9147 108.063 73.5341 109.205C73.4868 109.347 73.2837 109.816 73.6267 109.74C74.0666 109.642 74.4139 108.547 74.5886 108.208C74.7075 107.976 75.6408 106.691 75.0801 107.196C73.4177 108.692 71.6144 110.041 69.9291 111.514C69.2747 112.086 68.4028 112.708 67.863 113.402C67.5535 113.8 67.5244 113.469 67.407 113.024C67.0438 111.647 66.8519 110.3 66.7729 108.877C66.7675 108.779 66.666 107.609 66.9582 107.901C67.92 108.863 68.8631 111.419 67.8487 112.618C66.8201 113.834 64.7601 111.356 64.5358 110.509C64.4439 110.162 64.0674 107.482 64.9775 107.709C66.1794 108.01 66.7395 110.183 67.0223 111.157C67.1263 111.516 67.3297 113.171 67.6635 113.337" stroke="white" stroke-width="3" stroke-linecap="round"/>
<path d="M100.58 60.9534C102.237 56.703 104.333 52.5941 106.275 48.4696C107.672 45.5012 108.932 42.4669 110.454 39.5585C111.434 37.6861 112.262 35.7263 113.289 33.8813C113.896 32.7924 114.552 31.7192 115.388 30.79C116.127 29.9685 113.888 32.4141 113.153 33.2393C111.86 34.6899 110.459 35.9678 109.057 37.3054C107.764 38.5389 106.677 40.0025 105.549 41.3835C104.083 43.1806 102.718 45.0583 101.162 46.7813C100.112 47.9445 99.0076 49.0483 97.9402 50.1935C97.2052 50.9822 96.3297 51.6518 95.5386 52.399C94.6664 53.2227 93.7639 54.2123 92.7446 54.8541C92.4014 55.0702 92.5936 54.3736 92.6316 54.2418C92.9647 53.089 93.8243 51.9983 94.3972 50.9544C95.7387 48.5102 97.2174 46.1391 98.5347 43.6841C98.9638 42.8845 99.2618 42.0461 99.7237 41.2646C100.345 40.2125 100.958 39.1748 101.543 38.102C102.571 36.2171 103.593 34.2583 104.271 32.2227C104.762 30.7502 105.637 29.4355 106.304 28.0495C107.137 26.3197 108.46 24.89 109.283 23.1333C109.394 22.8958 109.661 21.9087 110.044 21.9087C110.354 21.9087 110.024 22.5346 109.949 22.836C109.045 26.4482 107.022 29.895 105.312 33.1679C102.408 38.7238 99.404 44.4039 95.711 49.492C94.7584 50.8045 93.7454 52.0784 92.8991 53.4631C92.6034 53.947 92.4328 54.4759 92.1917 54.9849C92.1822 55.005 92.0797 55.223 92.2036 55.08C93.6553 53.405 94.9125 51.1856 96.1449 49.4029C98.8014 45.5602 101.454 41.7148 104.099 37.8642C105.046 36.4855 106.048 35.1196 106.905 33.6792C106.936 33.6266 107.686 32.2512 107.725 32.3C107.964 32.598 107.139 34.1899 107.036 34.4401C106.427 35.9111 105.713 37.3624 104.943 38.7559C103.808 40.811 102.59 43.0012 101.008 44.7422C99.1086 46.8312 97.0574 48.662 94.742 50.2589C93.7263 50.9594 92.8391 51.7735 91.9361 52.6071C91.4113 53.0915 90.9674 53.9266 90.3132 54.2537C90.261 54.2798 90.2961 54.1383 90.2835 54.0813C90.2075 53.7396 90.0771 53.4089 89.9862 53.0707C89.644 51.7967 89.3755 50.5153 88.5952 49.4207C87.9555 48.5233 87.0694 47.5588 86.2351 46.8288C85.9934 46.6173 85.4752 46.2884 85.3851 45.9728C85.2663 45.5572 84.995 45.0737 84.8025 44.6887C83.8933 42.8704 82.8749 41.1144 82.2819 39.1483C81.7182 37.279 80.9314 35.5907 80.0883 33.8397C79.6786 32.9887 79.2144 32.1709 78.5368 31.5272C78.3616 31.3608 77.9942 31.2914 77.9007 31.0575C77.4325 29.887 79.3851 33.0965 80.0883 34.1428C80.9238 35.3859 81.6073 36.5494 82.1749 37.9237C82.6695 39.1211 83.2927 40.3231 83.887 41.4786C84.5269 42.7228 85.4797 43.7852 86.2351 44.9562C86.8922 45.9747 87.2504 47.1562 87.8699 48.1961C88.6203 49.4556 89.5353 50.3032 90.6877 51.1922C90.8637 51.328 91.2871 51.7529 91.2703 51.2992C91.2526 50.8204 90.6223 49.8699 90.3073 49.5099C89.8571 48.9954 89.6308 48.3948 89.368 47.7681C88.9717 46.8232 88.6042 45.9214 88.1137 45.0157C87.675 44.2059 87.0938 43.4884 86.6929 42.6556C86.3116 41.8638 85.973 41.1982 85.498 40.4561C84.8444 39.4348 84.1408 38.4503 83.5065 37.4124C83.2049 36.9188 82.7488 36.513 82.4484 36.0214C81.9697 35.238 81.4728 34.5464 80.8076 33.9051C80.5704 33.6763 80.0348 33.4647 80.0348 33.0787C80.0348 32.3675 79.0359 32.4465 78.5368 32.1692C77.8078 31.7642 77.3887 30.7948 76.9317 30.1421C76.6434 29.7302 76.4735 29.4717 76.5037 28.9591C76.5117 28.8235 79.3191 29.1525 79.6484 29.1671C80.2387 29.1934 80.8349 29.1731 81.4259 29.1731C82.3543 29.1731 83.0838 28.5895 83.994 28.424C85.4409 28.161 86.9097 27.782 88.3812 27.782C90.9097 27.782 98.4833 28.21 95.9547 28.21C93.8618 28.21 91.7875 28.1176 89.7187 28.424C88.4311 28.6148 87.178 28.8867 85.8725 28.6381C85.4185 28.5516 84.9906 28.3427 84.529 28.317C84.4786 28.3142 84.3343 28.21 84.3923 28.21C85.0799 28.21 85.7675 28.21 86.4551 28.21C90.4136 28.21 94.371 28.424 98.3326 28.424C100.165 28.424 102.082 28.5621 103.897 28.2933C104.742 28.1681 105.599 28.21 106.453 28.21C107.068 28.21 107.58 27.9056 108.177 27.889C108.21 27.8881 108.657 27.8546 108.421 27.782C106.485 27.1863 104.413 26.8609 102.417 26.5693C98.6595 26.0205 94.8583 25.9709 91.0682 25.9629C88.4907 25.9575 85.9164 25.8714 83.3401 25.8559C81.302 25.8437 79.3255 25.4749 77.2943 25.4339C75.8085 25.4039 74.3108 25.4003 72.8299 25.5349C72.1226 25.5992 71.1054 25.547 70.4282 25.7727C69.4412 26.1017 72.5091 25.8286 73.5492 25.8024C77.0894 25.7135 80.6314 25.7565 84.1723 25.7489C86.2423 25.7445 88.3006 25.6934 90.3608 25.4874C90.6227 25.4612 91.8006 25.2723 90.9255 25.5587C88.5752 26.3279 86.1169 26.6393 83.673 26.9498C81.0166 27.2872 78.3421 27.6527 75.6595 27.675C75.3674 27.6775 74.8064 27.5933 75.3742 27.7285C75.6564 27.7957 75.9109 27.7469 76.2005 27.7166C77.9049 27.5383 79.6094 27.3628 81.3129 27.1757C85.94 26.6673 90.5796 26.2854 95.2057 25.7727C96.1452 25.6686 97.0828 25.5449 98.0235 25.4517C98.1357 25.4406 98.6171 25.4496 98.2613 25.2971C96.848 24.6914 95.2197 24.4266 93.7314 24.0844C90.8451 23.4207 87.9509 23.077 85.0284 22.6458C84.4177 22.5557 82.6084 22.3161 83.2212 22.2416C84.6018 22.0737 86.0712 22.1499 87.4538 22.1346C91.163 22.0935 94.8729 22.1108 98.5823 22.1108C101.919 22.1108 105.275 22.0091 108.611 22.1167C110.917 22.1911 104.014 22.5281 101.709 22.6399C97.2323 22.8569 92.7551 22.8598 88.2742 22.8598C87.1586 22.8598 86.0429 22.8598 84.9273 22.8598C84.7647 22.8598 83.1262 23.0146 83.0012 22.7825C82.9799 22.743 83.0485 22.6976 83.0904 22.6815C83.5491 22.5053 84.7837 22.28 85.0759 22.2297C89.9799 21.385 94.9584 20.8553 99.9139 20.4344C105.213 19.9843 110.529 19.7418 115.846 19.6735C117.718 19.6494 119.732 19.528 121.588 19.8875C122.275 20.0206 122.186 20.2082 121.547 20.3452C119.568 20.7692 117.459 20.8006 115.447 20.8624C108.5 21.0759 101.532 20.9337 94.5815 20.9337C91.4215 20.9337 88.196 21.1203 85.0403 20.91C84.527 20.8757 84.4393 20.7322 85.0165 20.5652C87.0352 19.9811 89.1855 19.6731 91.2584 19.3762C93.8368 19.007 96.4279 18.7612 99.0281 18.6153C101.099 18.4991 103.237 18.3677 105.306 18.6034C105.315 18.6045 107.712 18.9893 106.768 19.2633C106.147 19.4435 104.847 19.5026 104.355 19.5308C102.707 19.6252 101.103 19.6609 99.4502 19.6913C92.9589 19.8105 86.4953 19.6007 80.0111 19.3524C78.0574 19.2776 76.1035 19.2559 74.1496 19.1979C73.6632 19.1834 72.7049 19.3019 72.2354 19.0671C72.0112 18.955 72.6188 18.7267 72.8536 18.6391C75.081 17.8085 77.4612 17.2725 79.7792 16.7784C84.756 15.7176 90.0563 14.9026 95.17 15.1139C95.3724 15.1222 95.5756 15.1284 95.7764 15.1555C95.9203 15.1749 96.1744 15.2264 95.8715 15.3338C94.5618 15.7986 93.0178 15.8635 91.6508 15.9878C87.9834 16.3211 84.2631 16.4192 80.5817 16.3088C79.8809 16.2877 79.1807 16.2434 78.4833 16.172C78.3281 16.1562 77.4336 16.1529 77.3241 15.9521C77.1524 15.6374 77.995 15.689 78.3465 15.6192C80.8828 15.1152 83.4766 14.8724 86.0509 14.668C89.9868 14.3555 93.9179 14.2995 97.863 14.2995C98.0892 14.2995 99.2444 14.2416 98.1543 14.4302C96.3971 14.7344 94.6241 14.9582 92.8516 15.1496C88.8098 15.5858 84.7517 15.8458 80.7244 16.4158C79.9376 16.5271 79.1273 16.6341 78.3584 16.8438C78.2873 16.8632 78.1085 16.9569 78.1801 16.9746C78.4251 17.035 79.3872 17.0563 79.4523 17.0578C86.0536 17.2052 92.6633 17.0363 99.2659 17.0935C101.664 17.1142 104.061 17.1763 106.453 17.3491C107.082 17.3945 108.879 17.4932 108.302 17.7474C107.22 18.2241 105.69 18.3168 104.563 18.4964C101.387 19.0022 98.1925 19.3984 94.9917 19.7091C91.1116 20.0858 87.2 20.149 83.3282 20.5889C82.926 20.6346 82.5257 20.69 82.1214 20.7138C81.7178 20.7375 82.9083 20.5271 83.3044 20.4463C89.467 19.1886 95.5853 17.6738 101.81 16.7427C102.632 16.6198 103.666 16.364 104.515 16.4277C104.815 16.4502 103.95 16.6383 103.659 16.713C103.221 16.8252 100.084 17.596 99.9496 17.6285C93.3633 19.2163 86.7527 20.5007 79.9873 20.9932C78.4376 21.106 76.8912 21.1477 75.3385 21.1477C72.7575 21.1477 80.4936 21.4197 83.0726 21.5223C85.9871 21.6381 88.9595 21.6945 91.8529 22.1108C91.9414 22.1235 92.0423 22.1174 92.1144 22.1702C92.3261 22.3254 91.6077 22.3139 91.3476 22.3486C88.3577 22.7472 85.3436 23.011 82.3414 23.2938C75.766 23.9132 69.1674 24.5461 62.5574 24.5719C61.3094 24.5768 60.0166 24.6256 58.7766 24.4411C58.5877 24.413 57.9997 24.3515 57.8492 24.1677C57.7579 24.056 58.1289 24.0952 58.2713 24.0725C59.7263 23.8406 61.1908 23.6824 62.6585 23.5553C68.3239 23.0651 74.093 22.7764 79.7792 23.0382C81.4336 23.1143 83.0562 23.3367 84.6717 23.6921C84.8087 23.7222 84.9024 23.7673 84.6836 23.8229C84.061 23.9808 83.3811 23.993 82.7456 24.0606C81.4794 24.1954 80.2308 24.2509 78.9588 24.2509C76.1708 24.2509 84.535 24.2444 87.323 24.2568C88.0424 24.26 105.41 24.5753 105.347 25.1069C105.307 25.4455 103.433 25.3209 103.219 25.3209C103.037 25.3209 101.114 25.3607 102.149 25.2615C104.287 25.0564 106.448 25.1069 108.593 25.1069C109.271 25.1069 109.949 25.1069 110.626 25.1069C110.674 25.1069 110.816 25.1069 110.769 25.1069C110.579 25.1069 110.388 25.1069 110.198 25.1069C108.768 25.1069 107.332 25.1434 105.918 24.8929C105.858 24.8822 104.421 24.6416 104.765 24.4411C105.843 23.8123 107.393 23.7602 108.593 23.6148C109.58 23.4951 110.943 23.1115 111.946 23.2938C112.014 23.3061 111.862 23.4076 111.803 23.4424C111.349 23.7094 110.889 23.9602 110.448 24.2509C109.724 24.7281 109.128 25.2256 108.522 25.8322C106.935 27.4185 111.702 22.6659 113.337 21.1299C114.12 20.394 112.794 22.2058 112.743 22.2772C110.784 24.9803 108.66 27.5554 106.56 30.148C105.858 31.0155 104.72 32.0761 104.307 33.1501C104.166 33.5173 105.025 32.8228 105.359 32.6151C106.938 31.6335 108.448 30.5499 109.907 29.399C112.501 27.3525 114.87 25.06 117.391 22.9312C117.557 22.7911 119.119 21.4208 118.331 22.3961C115.668 25.6907 113.188 29.199 111.357 33.0371C111.222 33.3202 110.566 34.4085 111.209 33.6316C112.892 31.5971 114.298 29.3825 115.751 27.1816C116.978 25.3228 118.229 23.479 119.496 21.6471C119.806 21.199 120.455 20.4976 119.805 21.4688C116.797 25.9637 113.172 30.2045 109.437 34.1131C108.447 35.1493 109.507 33.7547 109.782 33.4057C113.013 29.3094 116.691 25.5645 120.221 21.7303C121.605 20.2267 122.998 18.7242 124.341 17.1826C124.695 16.7761 123.628 16.9746 123.419 16.9746C120.746 16.9746 118.073 16.9746 115.4 16.9746C112.297 16.9746 109.226 17.0018 106.364 15.643C105.805 15.3775 104.753 14.8727 104.753 14.1092C104.753 13.4961 106.554 13.4789 106.917 13.4434C107.861 13.351 108.85 13.272 109.8 13.3424C111.021 13.4328 107.434 13.9849 106.227 14.1925C103.879 14.5965 101.502 15.0272 99.1173 15.1317C98.2731 15.1687 97.1359 15.3274 96.3233 14.995C95.917 14.8288 96.2238 14.6778 96.5016 14.6205C97.7514 14.3624 99.0469 14.2142 100.318 14.1092C100.651 14.0817 101.401 14.0528 100.609 14.0914C99.8527 14.1283 99.1097 14.1925 98.3504 14.1925C95.1629 14.1925 104.721 14.4494 107.904 14.6205C109.318 14.6965 110.734 14.764 112.148 14.8404C113.027 14.8879 111.69 14.9405 111.506 14.9355C110.422 14.9066 109.329 14.8029 108.248 14.7037C106.889 14.5788 109.348 14.6205 109.556 14.6205C111.387 14.6205 113.206 14.6315 115.031 14.775C115.597 14.8196 116.208 14.9415 116.773 14.9415C117.15 14.9415 116.02 14.949 115.644 14.9415C115.417 14.937 113.746 14.622 114.217 14.5372C114.943 14.4066 115.76 14.5135 116.5 14.5135C117.201 14.5135 117.848 14.8345 118.556 14.8345C120.405 14.8345 122.295 14.7166 124.121 15.0485C125.215 15.2475 126.316 15.2625 127.432 15.2625C127.89 15.2625 128.347 15.2625 128.805 15.2625C128.919 15.2625 129.636 15.225 129.614 15.209C129.011 14.7783 127.718 14.7275 127.016 14.7275C126.443 14.7275 125.87 14.7275 125.298 14.7275C125.184 14.7275 124.241 14.7314 124.608 14.6264C125.074 14.4932 125.557 14.3596 126.023 14.2162C126.746 13.9937 127.614 13.9784 128.377 13.9784C128.795 13.9784 129.213 13.9784 129.631 13.9784C129.776 13.9784 129.917 13.9477 129.768 14.1092C129.283 14.6345 128.781 15.142 128.294 15.6667C126.805 17.2709 125.175 18.6368 123.913 20.4522C123.79 20.6282 123.592 20.8477 123.502 21.0407C123.464 21.1227 123.669 20.9656 123.74 20.91C124.192 20.5577 124.684 20.2605 125.155 19.935C126.015 19.3408 126.656 18.6246 127.378 17.9019C127.657 17.6237 127.999 17.4189 128.335 17.1945C128.445 17.1213 129.055 16.7963 129.019 16.8676C128.755 17.3966 128.118 17.7012 127.812 18.2111C127.351 18.9801 127.032 19.8267 126.558 20.5889C125.776 21.8458 124.578 22.949 123.639 24.0963C122.75 25.1832 121.797 26.2008 120.964 27.354C120.807 27.5719 120.374 28.2004 120.376 28.1863C120.404 27.9797 120.527 27.7928 120.625 27.6156C121.053 26.8403 121.439 26.0486 121.832 25.2555C122.602 23.7035 123.569 22.2689 124.364 20.7376C124.52 20.4374 125.002 19.5651 124.763 19.8042C123.724 20.8427 122.651 21.8535 121.553 22.836C120.114 24.1225 118.586 25.3022 117.142 26.5812C116.637 27.0275 116.119 27.4802 115.733 28.0376C114.938 29.1862 117.064 25.5808 117.683 24.3282C117.826 24.0379 118.571 22.899 118.271 22.5388C118.041 22.2629 117.426 22.3231 117.13 22.3248C116.181 22.3301 115.246 22.4465 114.324 22.6696C113.167 22.9495 112.006 23.3332 110.876 23.7099C109.967 24.013 110.949 23.279 111.221 23.1154C112.213 22.5169 113.343 21.9966 114.443 21.6233C115.336 21.3199 115.122 21.7309 114.764 22.3961C113.939 23.9286 112.836 25.392 111.768 26.7655C111.707 26.8436 111.654 26.9588 111.613 27.0449C110.741 28.8574 110.093 30.8 109.425 32.6923C109.208 33.3092 108.425 35.5545 108.225 36.378C108.191 36.5158 107.962 37.2577 108.427 36.925C109.384 36.2388 110.191 35.1266 111.007 34.2855C112.325 32.9272 113.628 31.4908 115.049 30.2372C115.819 29.5579 115.963 29.943 115.756 30.796C115.4 32.267 114.694 33.4686 113.741 34.6065C113.599 34.776 113.294 34.8958 113.212 35.0999C113.042 35.5261 113.696 34.3198 113.955 33.9407C115.661 31.4421 117.347 28.9193 119.103 26.4564C119.639 25.7059 120.157 24.9375 120.714 24.2033C120.826 24.056 121.155 23.6282 121.101 23.805C121.03 24.0366 120.852 24.2745 120.732 24.4768C120.196 25.3833 119.678 26.2998 119.151 27.2113C117.88 29.4086 116.464 31.4424 114.799 33.3581C114.471 33.7357 113.402 34.771 113.819 34.4936C114.613 33.9637 115.215 32.8855 115.834 32.1751C116.44 31.4791 117.094 30.7518 117.807 30.1599C118.53 29.56 117.023 31.725 116.928 31.8482C116.183 32.8102 115.278 33.6151 114.514 34.553C113.91 35.2945 115.282 33.8953 115.334 33.8397C116.497 32.5995 117.62 31.3174 118.806 30.1005C118.871 30.0339 119.794 29.1912 119.793 29.1969C119.694 29.838 118.693 30.7231 118.301 31.1883C117.875 31.6938 117.344 32.5717 116.702 32.8469C116.124 33.0946 117.449 31.8316 117.879 31.3726C118.84 30.3462 119.869 29.3803 120.821 28.3468C121.182 27.9552 121.443 27.6667 121.743 27.247C121.979 26.917 122.225 26.5473 122.527 26.278C122.686 26.1368 123.831 25.2772 123.669 25.9273C123.378 27.0921 122.041 27.6484 121.493 28.644C120.185 31.0227 119.323 33.5047 117.439 35.5398C116.649 36.393 115.465 36.8212 114.788 37.7334C113.657 39.2558 112.598 40.8465 111.518 42.4179C110.982 43.1974 110.488 44.0054 109.949 44.7898C109.539 45.3848 109.008 45.927 108.629 46.5316C107.998 47.5359 107.172 48.3361 106.619 49.4029C105.616 51.3408 104.22 53.0972 102.185 53.9981C101.902 54.1232 101.609 54.2624 101.311 54.3489C100.836 54.4867 101.354 53.4987 101.376 53.4453C102.028 51.8475 102.841 50.2591 103.766 48.8025C104.566 47.5416 107.182 43.9018 106.322 45.1227C104.415 47.8294 101.982 50.3272 99.581 52.5952C99.5239 52.649 98.7617 53.3516 98.5466 53.4631C98.4251 53.5261 98.551 53.1782 98.6179 53.0589C99.3487 51.7564 100.272 50.5437 101.162 49.3494C103.658 46.0033 106.418 42.8516 108.861 39.4693C109.105 39.131 108.148 40.4527 108.118 40.4918C106.044 43.1335 103.816 45.6791 101.567 48.1723C100.494 49.3608 99.4591 50.5741 98.4039 51.7748C97.562 52.7329 98.7215 51.5746 98.9806 51.3052C104.267 45.8069 109.655 40.3292 114.71 34.6422C114.75 34.5976 115.082 34.2561 115.109 34.3806C115.244 35.0112 114.428 35.8477 114.11 36.3008C113.467 37.217 112.665 38.0285 112.053 38.958C111.168 40.3015 110.526 41.7943 109.735 43.1907C108.954 44.5678 108.11 45.9097 107.339 47.2925C107.088 47.7429 106.751 48.3281 106.685 48.856C106.635 49.252 106.956 48.9086 107.095 48.7906C108.463 47.6258 109.707 46.4706 110.864 45.0811C111.839 43.9104 112.944 42.6573 113.688 41.3181C113.926 40.89 114.142 40.4835 114.514 40.1113C114.936 39.689 115.537 39.3592 115.78 38.7916C115.864 38.5968 116.108 38.1264 116.202 38.316C116.377 38.6657 115.093 39.9506 114.918 40.1708C113.187 42.3475 111.91 44.7937 110.216 46.9953C109.607 47.7872 109.143 48.7518 108.445 49.4504C108.282 49.6133 108.09 49.832 107.987 50.0389C107.969 50.0752 107.761 50.3699 107.761 50.2886C107.761 49.81 108.3 49.1995 108.557 48.856C109.457 47.6569 110.178 46.2988 110.983 45.0335C111.407 44.3676 112 43.7861 112.451 43.1372C113.058 42.2655 113.526 41.4039 114.086 40.4918C114.629 39.6076 115.566 39.0215 116.119 38.1615C116.179 38.0683 115.928 38.5425 115.81 38.6608C115.21 39.2612 114.667 39.9079 114.044 40.4858C113.038 41.4203 112.327 42.64 111.482 43.7138C111.037 44.2802 110.503 44.8444 110.127 45.4615C109.817 45.9711 109.536 46.494 109.194 46.9893C109.015 47.2478 108.912 47.5652 108.819 47.8632C108.477 48.9567 107.91 50.0091 107.369 51.0139C106.895 51.8937 106.727 52.6543 105.983 53.2491C105.669 53.5003 105.173 54.0602 105.08 54.4796C104.984 54.9113 104.579 55.2227 104.372 55.6032C104.11 56.0866 103.78 56.5039 103.427 56.9348C102.634 57.9036 101.707 59.1602 101.275 60.3589C101.234 60.4741 101.079 61.0327 100.984 60.7394C100.777 60.0989 100.426 59.5046 100.211 58.8609C100.167 58.7298 99.7441 57.0198 99.6285 57.0656C98.8658 57.3675 98.1005 58.4373 97.5955 59.0035C96.473 60.2619 95.4588 61.6029 94.4329 62.9389C94.2953 63.1181 94.1573 63.2971 94.0168 63.474C93.9043 63.6155 93.7071 64.0351 93.6422 63.8663C93.4557 63.3813 94.5304 61.7771 94.7301 61.4171C95.8575 59.3852 97.1802 57.4433 98.5169 55.5437C98.5343 55.519 99.1729 54.6538 98.8438 55.0682C98.5058 55.4939 98.0745 55.8613 97.6906 56.2452C97.4604 56.4754 96.9653 57.2246 96.9653 56.8991C96.9653 56.1113 98.1734 54.9742 98.6358 54.4024C98.74 54.2734 99.2823 53.6547 99.2481 53.7009C98.1565 55.1721 96.5061 56.3348 95.0868 57.4579C94.2511 58.1192 93.1722 59.1796 92.1026 59.4791C91.473 59.6554 92.8268 57.1133 92.8635 57.0537C93.9035 55.3619 95.0674 53.7939 96.3114 52.2504C96.4302 52.1029 97.0192 51.1278 97.1555 51.537" stroke="white" stroke-width="3" stroke-linecap="round"/>
<path d="M107.428 18.6867C108.5 18.3437 109.83 18.9267 110.852 18.4964C111.363 18.2814 110.4 18.3656 110.21 18.3656C109.141 18.3656 108.045 18.3183 107 18.5796" stroke="white" stroke-width="3" stroke-linecap="round"/>
<path d="M99.617 56.0312C99.617 56.9858 99.4975 57.9261 99.3792 58.8728C99.3071 59.4497 99.3096 59.4146 99.5932 58.8668C100.427 57.257 101.502 55.7947 102.334 54.1824C102.741 53.3929 103.192 52.6447 103.469 51.7986C103.602 51.3917 103.649 51.1087 103.136 51.4419C100.446 53.1903 98.3104 55.8314 95.2595 57.0299C94.7301 57.2379 94.9624 56.4914 95.0396 56.2214C95.273 55.4043 95.7447 54.6611 96.288 54.016C96.4126 53.8679 97.0774 53.2809 96.5257 53.2967C95.6004 53.3231 94.7065 54.0056 93.9933 54.5332C93.2265 55.1004 93.3716 55.4498 94.3738 55.5438C94.7984 55.5836 95.1779 55.4551 95.42 55.092C95.487 54.9915 95.858 54.603 95.5865 54.6639C94.136 54.9896 92.7315 55.8036 91.3598 56.3522C89.6025 57.0552 87.7083 57.9447 85.7777 57.9573C85.0029 57.9624 84.557 57.6897 84.2797 56.9586C84.0847 56.4445 83.7627 56.4069 83.3404 56.0015C81.4002 54.1389 80.6117 51.3227 79.3931 48.9927C78.438 47.1664 77.4044 45.4539 76.29 43.7316C75.033 41.789 73.3013 40.1165 71.665 38.5063C70.8779 37.7316 70.0524 36.9723 69.2337 36.2354C68.7749 35.8225 68.571 35.6529 68.4311 35.0702C67.7612 32.2786 67.4056 28.6238 64.9475 26.712C63.854 25.8614 62.7759 24.9749 61.6364 24.1914C61.1045 23.8258 60.483 23.3175 60.0253 22.8598C59.7044 22.5389 59.4545 22.2178 59.0029 22.2178C58.5729 22.2178 57.7 21.7431 57.6712 21.2548C57.6367 20.6673 57.4123 20.2874 57.1362 19.8043C56.8011 19.2178 56.49 18.5696 56.1256 17.9971C55.5296 17.0604 54.9767 15.8676 54.0866 15.1555C53.7251 14.8663 53.331 14.5855 52.9868 14.2757C52.5404 13.874 53.4944 14.0788 53.7775 14.0914C55.684 14.1761 57.5983 14.3319 59.4903 13.9785C60.5525 13.78 63.8107 13.8715 62.7302 13.8715C61.0815 13.8715 59.4329 13.8715 57.7842 13.8715C57.1166 13.8715 56.5059 13.9785 55.8522 13.9785C54.9129 13.9785 53.9592 13.8715 53.0463 13.8715C52.9644 13.8715 52.6795 13.9222 52.648 13.812C52.558 13.4972 53.6196 13.9009 53.7121 13.925C55.2711 14.3303 56.8377 14.5562 58.4203 14.8345C60.3107 15.1669 62.5336 14.9512 64.4125 14.5967C65.7199 14.35 67.0763 14.1124 68.3717 13.818C69.3899 13.5866 70.5828 13.8013 71.6056 13.8952C72.2393 13.9534 72.8598 13.9785 73.496 13.9785C73.7361 13.9785 74.0888 13.9088 74.3104 14.032C74.6714 14.2325 75.4179 14.0855 75.8204 14.0855C77.0754 14.0855 78.2773 14.0199 79.5239 13.8952C80.7959 13.768 82.0683 13.6575 83.3464 13.6575C83.4197 13.6575 83.8968 13.6161 83.6495 13.7645C82.8939 14.2179 81.7161 14.2529 80.8674 14.3827C76.4344 15.0607 71.9608 14.7002 67.5038 14.9891C64.3824 15.1914 61.2581 14.9415 58.1528 14.9415C57.6223 14.9415 57.0841 14.8761 56.6012 15.1317C55.8696 15.519 57.35 15.8133 57.5761 15.851C60.0618 16.2653 62.5555 15.3838 65.0308 15.1555C66.7942 14.9929 68.5485 14.7982 70.3037 15.102C72.3462 15.4555 74.4518 15.7975 76.5278 15.7975C77.1428 15.7975 75.5836 16.1384 75.5707 16.1423C73.1939 16.8599 70.8584 17.4605 68.3836 17.7177C65.4833 18.019 62.7173 17.777 59.8351 17.4858C58.5519 17.3562 57.319 17.2956 56.0246 17.2956C55.7861 17.2956 56.4986 17.3536 56.732 17.4026C57.6718 17.5998 58.6229 17.8038 59.5735 17.9376C61.7545 18.2446 63.8569 18.3656 66.0592 18.3656C66.7785 18.3656 67.4978 18.3656 68.2171 18.3656C68.4777 18.3656 68.4459 18.3656 68.1874 18.3656C66.814 18.3656 65.3744 18.2395 64.0083 18.3894C63.2124 18.4768 62.4085 18.5827 61.6245 18.6807C61.2727 18.7247 60.882 18.9007 60.5604 18.9007C59.9503 18.9007 59.1949 19.1863 58.5808 19.3227C58.5043 19.3397 58.2665 19.2912 58.4441 19.3525C59.3004 19.6477 60.167 19.923 61.0716 20.0302C63.3778 20.3033 65.1685 19.0298 67.367 18.5856C68.8669 18.2826 70.3218 18.0446 71.8493 18.0446C72.3015 18.0446 72.7959 18.4856 73.1869 18.6867C73.5318 18.864 74.4646 19.0452 73.8527 19.3406C72.4542 20.0157 70.8107 20.0695 69.311 20.3987C67.921 20.7038 66.4062 20.456 65.0486 20.8803C64.6428 21.0071 63.9812 21.0286 63.5565 21.0408C63.0325 21.0557 62.536 21.1478 62.0109 21.1478C61.73 21.1478 61.448 21.2548 61.1489 21.2548C60.9765 21.2548 60.1626 21.2548 60.7625 21.2548C62.873 21.2548 64.9904 21.469 67.0757 21.7898C68.468 22.004 69.9131 21.8968 71.3203 21.8968C72.097 21.8968 72.7024 21.803 73.4009 21.4926C73.6519 21.381 73.5252 21.6484 73.502 21.7838C73.2758 23.103 73.0851 24.4646 73.2582 25.8025C73.5827 28.31 75.0107 30.8305 76.7775 32.5972C77.1145 32.9343 76.1224 31.9048 75.7966 31.5569C74.7653 30.4557 73.9214 29.1587 73.2582 27.8058C72.7803 26.8309 72.2491 25.8301 71.8612 24.8156C71.8198 24.7074 71.6338 24.2448 71.7483 24.774C72.0348 26.0994 72.4238 27.4184 72.8362 28.7094C73.2337 29.954 74.5878 33.5966 73.9121 32.4783C73.2787 31.4298 72.8092 30.285 72.1644 29.2385C71.4151 28.0224 70.5706 26.8369 69.6439 25.749C69.2208 25.2524 69.7132 26.2634 69.7509 26.3434C70.6754 28.3064 71.6825 30.2373 72.7886 32.1038C73.4532 33.2253 75.364 36.634 74.792 35.4626C74.4718 34.807 74.3211 34.0521 74.0667 33.37C73.767 32.5665 73.3853 31.8028 72.9967 31.0397C72.524 30.1118 71.9801 29.2563 71.2133 28.543C70.931 28.2804 69.9168 27.1354 70.2086 28.1566C70.7657 30.1063 71.4851 31.9965 72.1644 33.9051C72.268 34.196 72.3974 34.527 72.0455 34.2142C71.5643 33.7864 71.1749 33.2476 70.7852 32.7399C69.8184 31.4803 68.837 30.2216 67.9139 28.9294C67.6283 28.5295 66.7116 27.4598 67.159 27.6631C67.2953 27.7251 67.4896 28.1175 67.5454 28.2041C68.0025 28.9139 68.4845 29.6053 68.9602 30.3026C69.6211 31.2713 70.1659 32.5728 71.029 33.3819C71.3148 33.6499 71.0717 33.181 71.023 32.9896C70.5682 31.203 69.9052 29.5406 69.0613 27.9009C68.6168 27.0374 68.1634 26.2163 67.581 25.4398C67.5603 25.4121 66.967 24.6331 66.9985 24.8691C67.0922 25.572 67.5726 26.3566 67.8367 27.0092C67.9973 27.4063 68.1816 27.792 68.3479 28.1863C68.3984 28.3059 68.5485 28.6223 68.4311 28.5667C67.8248 28.2795 67.2746 27.3483 66.8201 26.8784C66.1329 26.1679 65.4654 25.495 64.6384 24.9524C63.8256 24.4189 62.947 24.5719 62.0049 24.5719C61.3859 24.5719 60.9038 24.9671 60.3464 24.9999C59.6408 25.0414 59.8629 25.5389 60.2631 25.9392C61.1235 26.7996 61.9934 27.3681 62.4864 28.4776C62.7235 29.0108 62.7215 29.585 63.3425 29.9221C63.8285 30.186 64.6268 30.6811 64.8168 31.23C64.9909 31.733 65.2562 32.1553 65.3756 32.6924C65.4018 32.8103 65.4826 33.1038 65.4826 32.8112C65.4826 32.3136 65.5083 31.8087 65.4588 31.3132C65.3804 30.5296 65.1938 29.7336 65.0486 28.9591C65.0167 28.7891 64.4125 27.4709 64.4125 28.1268C64.4125 29.5776 64.9218 30.7258 65.4588 32.0384C65.6468 32.4979 65.736 33.0111 65.8036 33.5008C65.8226 33.6385 65.8361 34.222 65.9581 34.3034C66.1302 34.4181 65.6139 34.0648 65.4826 33.9051C65.1943 33.5545 64.8396 33.2149 64.6265 32.8112C64.4272 32.4335 64.2996 32.0458 64.0915 31.6818C63.938 31.4132 63.6291 31.3281 63.396 31.1467C62.9997 30.8385 63.057 30.6382 62.8907 30.2431C62.58 29.5052 63.4224 31.366 63.503 31.5212C64.0005 32.4795 64.677 33.3065 65.2686 34.2023C65.8828 35.1324 66.672 35.7218 67.1411 36.7645C67.3594 37.2494 67.6858 37.6083 67.8842 38.0782C68.1127 38.6195 68.6459 39.5057 69.0672 39.927C69.4091 40.2689 69.6892 40.656 70.0303 40.9971C70.2651 41.232 70.3494 41.4478 69.9768 41.2408C69.4549 40.9509 69.0041 40.3913 68.7165 39.8735C68.264 39.0591 67.8916 37.6918 67.1411 37.0914C67.0289 37.0016 66.3532 35.7694 66.7072 36.497C67.162 37.4319 67.862 38.262 68.3717 39.1721C68.6219 39.6188 68.802 40.329 69.1445 40.7058C69.9747 41.619 70.0771 42.9219 70.6723 43.9932C71.2647 45.0596 71.8403 46.0997 72.3309 47.2033C72.5515 47.6997 72.7389 48.184 72.9967 48.6479C73.134 48.895 73.3403 49.0269 73.5079 49.2364C73.7436 49.5311 73.7567 49.8351 73.9359 50.1935C74.2465 50.8147 74.8377 51.2922 75.113 51.9115C75.2661 52.2561 75.4995 52.5301 75.6242 52.9043C75.7441 53.264 75.7916 53.6513 75.9155 53.9981C76.1402 54.6272 76.2177 55.2729 76.611 55.841C76.8694 56.2142 77.1534 56.5649 77.4136 56.9408C77.7233 57.3881 77.8248 57.9267 78.1091 58.3615C78.2045 58.5074 78.4162 58.9699 78.5966 59.0214C79.0105 59.1397 79.6137 59.0273 80.0352 59.0273C80.7228 59.0273 81.3924 58.9203 82.0742 58.9203C82.8673 58.9203 83.6139 58.5993 84.3986 58.5993C84.8441 58.5993 86.3262 58.8412 86.5624 58.5458C86.6659 58.4165 86.4237 58.4946 86.3009 58.4923C85.4606 58.477 84.6098 58.2954 83.7803 58.1713C82.2697 57.9453 80.8786 57.3972 79.3991 57.1013C78.0175 56.8249 76.8093 56.2663 76.504 54.6758C76.1423 52.7908 76.4032 50.7639 75.4102 49.0759C75.209 48.7339 74.8508 48.5376 74.6612 48.1723C74.2691 47.4173 73.6917 46.8372 73.2939 46.0857C73.0403 45.6068 72.7311 45.1675 72.5211 44.665C72.2129 43.9276 72.1426 43.1165 72.0098 42.3346C71.9231 41.8237 71.736 41.3043 71.6948 40.789C71.681 40.6172 71.6888 40.0994 71.6888 40.2718C71.6888 41.167 72.5106 42.2014 72.9134 42.941C74.1383 45.1895 75.2585 47.4855 76.1592 49.8844C77.0914 52.367 77.9462 54.8622 79.2267 57.1904C79.533 57.7473 80.1905 58.3975 80.6772 58.7896C81.0685 59.1048 82.0773 60.2822 81.5095 59.0452C81.0659 58.079 80.4805 57.1873 80.0352 56.2214C79.4682 54.9917 79.1566 53.6636 78.6441 52.4109C78.0765 51.0234 77.2845 49.7468 76.5278 48.4577C76.5012 48.4123 76.2729 47.9021 76.2365 47.9167C75.8503 48.0712 78.4286 52.2342 78.442 52.2563C79.6699 54.2805 80.8949 56.4062 82.3893 58.2545C82.4566 58.3378 82.6541 58.5488 82.5319 58.2664C82.1103 57.2913 81.5926 56.3506 81.1409 55.3892C77.8257 48.3342 74.5481 41.2731 71.9504 33.917C71.5534 32.7927 71.3024 31.5965 70.8863 30.4869C70.8754 30.4579 70.7004 30.1943 70.809 30.3918C71.1005 30.9218 71.4675 31.4166 71.7839 31.9314C73.0128 33.9303 74.0645 36.0414 75.0416 38.1734C75.1476 38.4045 76.051 39.9754 75.9214 40.2778C75.8696 40.3987 75.7019 40.1305 75.6064 40.04C75.0578 39.5202 74.5379 38.9651 74.031 38.4052C72.8485 37.0989 71.8193 35.6821 70.7496 34.2855C70.5571 34.0342 70.2993 33.1958 70.2145 33.5008C70.109 33.8806 70.945 34.7245 71.1479 34.993C71.3163 35.2159 71.4885 35.4362 71.665 35.6528C71.7492 35.756 72.036 35.9738 71.9028 35.9738C71.8774 35.9738 71.522 35.6609 71.5105 35.6528C71.0208 35.3101 70.5601 34.9375 70.1075 34.5471C69.7741 34.2595 68.5344 33.4533 68.4727 32.9599C68.4605 32.8621 68.6508 33.0477 68.7284 33.1085C69.0398 33.3527 69.4847 33.7394 69.7568 33.9764C71.1855 35.2207 72.5601 36.5225 73.9597 37.7988C75.4144 39.1255 76.9534 40.5997 78.656 41.6213C79.0794 41.8753 79.0123 41.3943 79.0008 41.0744C78.9641 40.0533 78.8572 39.0168 78.7036 38.0069C78.6165 37.4347 78.3231 35.7339 78.3231 36.3127C78.3231 37.079 78.3728 37.818 78.5609 38.5657C78.6742 39.0164 78.8256 39.4566 78.9532 39.9033C79.0113 40.1063 79.0533 40.6632 79.2148 40.8247C79.5312 41.1411 79.0024 39.9553 78.8878 39.5228C78.5494 38.2453 78.1611 36.9833 77.8 35.7123C77.2509 33.7796 76.8823 31.832 76.7418 29.827C76.7343 29.7201 76.597 28.2267 76.611 28.7807C76.6682 31.0401 77.1762 33.3141 77.5206 35.5399C77.9104 38.0597 78.366 40.5646 78.7927 43.0777C78.9214 43.8355 78.7913 43.3818 78.5966 42.941C77.8301 41.2063 76.845 39.5749 75.9274 37.9177C75.3337 36.8455 74.7456 35.7742 74.1975 34.6779C73.2517 32.7864 76.433 38.2683 77.5503 40.0638C78.841 42.1379 80.0414 44.2956 81.45 46.2938C81.58 46.4782 81.9375 46.9891 81.9375 46.7634C81.9375 46.1142 81.6616 45.3534 81.5095 44.7363C80.9915 42.6356 80.337 40.5729 79.8212 38.4706C79.6791 37.8916 79.5575 37.3246 79.4764 36.7347C79.447 36.5209 79.3622 36.3318 79.4407 36.6991C80.159 40.062 81.3954 43.3484 82.4963 46.597C83.6419 49.9774 84.8692 53.3286 85.9799 56.7208C86.0275 56.8662 86.5953 58.3389 86.4911 58.0643C85.8674 56.42 85.635 54.6769 85.2249 52.9756C85.0293 52.1643 84.0403 49.8893 84.5175 50.574C86.0132 52.7201 87.2049 55.1267 88.6074 57.339C89.2552 58.3609 90.0131 59.9138 91.0329 60.6502C91.2244 60.7886 91.1144 60.4986 91.0923 60.4362C90.8603 59.7824 90.4384 59.199 90.0223 58.6528C88.603 56.7901 87.0782 55.0801 85.8372 53.0826C85.4106 52.396 85.005 51.6823 84.5413 51.0198C83.4271 49.4282 86.7157 54.2401 87.7989 55.8529C88.0164 56.1766 88.4885 57.1881 88.4885 56.7981C88.4885 55.4945 88.5038 54.1899 88.4826 52.8865C88.4664 51.889 88.4769 50.7776 88.1675 49.8131C88.1189 49.6615 88.0428 49.6058 88.0843 49.8131C88.183 50.3067 88.4273 50.7675 88.6193 51.2279C89.212 52.6488 89.6446 54.1296 90.2363 55.5497C90.5445 56.2894 90.6935 56.5099 90.0758 55.7459C89.2713 54.7509 88.4468 53.7508 87.7633 52.6665C86.6788 50.9463 86.2735 48.8985 85.5875 47.0072C85.5761 46.9756 84.9693 45.5614 84.9693 45.9728C84.9693 46.9457 85.5011 48.0776 85.8075 48.957C86.3683 50.567 86.9735 52.1609 87.579 53.7544C87.6686 53.9903 88.0274 54.4932 87.7752 54.4856C87.2398 54.4694 86.2585 53.2955 85.968 53.0113C84.5527 51.627 83.0217 50.0063 82.306 48.1129C81.9489 47.168 81.7209 46.2036 81.236 45.3308C81.175 45.2209 80.86 44.414 80.6296 44.6115C80.5336 44.6938 80.5696 45.0784 80.5702 45.1524C80.5773 46.0507 80.6842 46.9423 80.8318 47.8275C81.2503 50.3385 81.9084 52.8105 82.5557 55.2703C82.8007 56.2011 83.0454 58.16 84.2083 58.4923C84.677 58.6262 85.0535 59.1065 85.54 59.176C85.6976 59.1985 85.424 58.8045 85.433 58.7777C85.5075 58.5541 85.7636 59.1149 85.9085 59.3008C86.5182 60.0827 87.1159 60.8633 87.7871 61.5954C88.7958 62.6959 89.8462 63.8419 91.1339 64.6213C91.5478 64.8718 91.6896 64.8146 92.0137 64.4905C92.5681 63.9361 93.2156 63.9966 93.922 63.7355C94.6365 63.4715 95.0713 63.252 95.634 62.6893C96.4291 61.8942 95.1247 62.0998 94.5937 62.3029C94.1949 62.4554 92.9564 63.5532 94.136 63.0697C95.2708 62.6046 96.2567 61.7588 97.3045 61.1199C98.2375 60.551 99.1847 59.8834 100.307 59.8834C100.864 59.8834 101.502 60.0317 101.918 59.6159C102.232 59.3012 102.752 59.1424 103.148 58.9441C103.693 58.6715 103.518 58.5724 102.976 58.6112C101.344 58.7278 99.8543 59.4443 98.3448 60.0142C96.2211 60.8158 94.0954 61.4814 91.8294 61.7024C90.8697 61.7961 89.5786 62.1384 88.5955 61.8927C87.9621 61.7343 87.336 60.871 86.8835 60.4184C86.5473 60.0823 86.1368 59.6004 85.6232 59.5624C85.3274 59.5405 84.3926 59.1157 84.1608 59.4137C83.9423 59.6947 83.9497 60.5879 84.0895 60.8821C84.4254 61.5893 85.8442 61.5836 86.4852 61.5836C87.0053 61.5836 87.5051 61.4819 87.9297 61.1674C88.2209 60.9517 88.2082 60.1004 88.2745 59.7764C88.3242 59.5335 88.6386 58.7851 88.4172 58.5637C88.1926 58.3391 87.2228 58.4763 86.937 58.5042C84.981 58.695 84.5409 61.6546 85.0287 63.1292C85.2404 63.7689 85.8175 64.4889 86.5089 64.6213C87.4549 64.8024 87.8604 63.7334 87.9713 62.9568C88.1674 61.5842 85.9221 60.9153 84.8742 60.7632C84.3139 60.6819 84.2854 60.9226 84.2916 61.5003C84.3093 63.1655 84.8023 64.8401 86.075 65.9648C86.7073 66.5236 87.1633 66.6247 87.9535 66.6247" stroke="white" stroke-width="3" stroke-linecap="round"/>
<path d="M75.7544 37.1984C73.438 35.7159 71.9495 33.13 69.774 31.438C68.3407 30.3232 66.7485 29.4466 65.3274 28.323C64.9167 27.9982 61.6347 25.5419 61.3564 26.4564C61.124 27.2199 60.3809 28.6813 61.3088 29.1969C62.1877 29.6851 62.9513 30.4074 63.7699 30.9922" stroke="white" stroke-width="3" stroke-linecap="round"/>
<path d="M80.677 62.3445C80.677 61.8051 80.0828 61.206 79.7615 60.7929C79.2839 60.1788 79.7651 61.2796 79.8685 61.4884C80.2508 62.2603 80.6765 63.0318 81.1644 63.7415C81.5471 64.2981 82.091 64.8495 82.5555 65.3406C82.8658 65.6686 83.0907 65.989 82.9716 65.2574C82.7548 63.9258 82.5152 62.6289 82.175 61.322C82.1134 61.085 81.7846 60.2224 81.8659 60.995C82.0304 62.5575 82.7505 64.1951 83.2391 65.6854C83.5273 66.5643 83.9751 67.3419 84.4221 68.1465C84.8411 68.9006 85.333 69.9592 86.0212 70.5184C86.1963 70.6606 86.373 70.8116 86.479 71.0118C86.884 71.7769 87.4284 72.4742 87.9295 73.1757C88.499 73.9731 90.0731 76.4452 89.6416 75.5655C88.9637 74.1837 88.3368 72.7857 87.6322 71.4161C86.7143 69.6316 86.3624 67.7894 85.9737 65.8459C85.8453 65.2038 85.8857 64.5878 85.7894 63.9495C85.723 63.5097 85.81 62.9259 85.6527 62.5169C84.8917 60.5383 86.6958 66.6424 87.5134 68.5983C88.1279 70.0686 88.9427 71.3682 89.8675 72.6526C90.2203 73.1426 90.3013 73.0906 90.3074 72.498C90.3218 71.097 90.5215 69.7352 90.2479 68.3427C90.0569 67.3704 89.629 66.3736 89.1779 65.4951C88.7289 64.6209 88.9608 66.2262 88.9876 66.4701C89.2345 68.7143 89.914 71.036 90.6046 73.1876C90.6477 73.3219 90.6797 73.6194 90.7889 73.7285C90.8482 73.7878 90.8414 73.6588 90.8424 73.6394C90.9436 71.5998 91.0503 69.5609 91.1693 67.5223C91.2027 66.9519 91.3799 63.5745 91.526 62.5228C91.6671 61.5073 92.0305 63.1407 92.067 63.2362C92.7108 64.9234 93.3183 66.6112 93.8147 68.3486C94.1153 69.4007 94.7989 72.5351 94.9026 71.4458C95.0648 69.7432 94.9086 67.9552 94.9086 66.2442C94.9086 65.3855 95.1891 63.8577 94.748 63.0638C94.66 62.9054 94.6945 63.4235 94.6945 63.6047C94.6945 64.9506 94.6916 66.2965 94.7599 67.6412C94.833 69.0776 94.9576 70.525 95.2296 71.9392C95.3084 72.3492 95.3646 73.0478 95.5744 73.4254C95.7006 73.6526 95.8224 72.9632 95.8894 72.712C96.2584 71.3285 96.7309 69.979 97.2032 68.628C97.7535 67.0538 98.3502 65.5093 98.7607 63.8901C98.8736 63.445 98.936 63.0847 99.2303 62.7249C99.5394 62.3471 99.4043 63.1397 99.4027 63.3551C99.3901 65.0655 99.2957 70.1958 99.2957 68.4853C99.2957 68.2756 99.3681 68.0753 99.4503 67.8849C99.9209 66.7951 100.444 65.7264 100.865 64.6153C101.158 63.8431 101.057 62.9738 101.376 62.2434C101.458 62.0574 101.891 60.8829 101.751 61.6549C101.631 62.3121 101.33 62.9266 101.246 63.6047C101.135 64.4914 101.115 65.3572 101.115 66.2501C101.115 67.2845 101.115 68.3189 101.115 69.3532C101.115 69.9511 101.031 70.6127 101.139 71.202C101.202 71.5527 101.258 71.8967 101.335 72.2424C101.354 72.328 101.524 72.9481 101.388 72.6763C99.8802 69.6603 98.6934 66.4037 97.9285 63.1173C97.8119 62.6165 97.6837 61.1768 97.1319 60.8702C96.8969 60.7397 97.0477 61.404 97.0546 61.6727C97.096 63.2876 97.1987 64.9127 97.3815 66.5176C97.6424 68.807 98.0963 71.0692 98.3089 73.3659C98.347 73.7777 98.3872 74.9685 98.5408 74.5846C98.6075 74.4177 98.4496 74.0336 98.4159 73.889C98.1505 72.7487 97.8513 71.6167 97.5837 70.4768C97.199 68.8385 96.8969 67.0332 96.258 65.4714C96.2391 65.4251 96.1799 65.1735 96.1926 65.3644C96.2464 66.1709 96.679 67.0165 96.9892 67.7422C97.9945 70.0942 99.0536 72.5577 100.413 74.7332C100.643 75.1011 100.815 75.6346 101.115 75.934" stroke="white" stroke-width="3" stroke-linecap="round"/>
<path d="M101.436 75.613C101.436 74.5995 100.486 71.6842 100.853 72.6288C101.137 73.3603 101.752 73.9461 102.185 74.5905C102.95 75.7318 103.657 76.9124 104.42 78.0563C104.841 78.6886 105.272 79.3171 105.609 80.0002C105.78 80.3476 105.844 80.8166 106.09 81.1178C106.353 81.4392 106.416 81.8422 106.572 82.2235C107.033 83.3509 107.488 84.4651 108.07 85.5406C108.63 86.5766 109.161 87.6434 109.782 88.6438C110.037 89.0549 110.236 89.5463 110.531 89.9278C110.79 90.2634 110.868 90.2025 110.828 89.7733C110.742 88.8521 110.518 87.8985 110.21 87.0268C109.967 86.3371 109.685 85.5957 109.294 84.9818C109.096 84.6705 108.892 84.4124 108.664 84.1199C108.41 83.7934 108.338 83.2724 108.022 83.0023C107.244 82.335 109.248 84.6461 109.883 85.4515C110.943 86.7967 111.62 88.1933 112.344 89.7317C112.668 90.4206 113.019 91.1609 113.266 91.8777C113.403 92.2768 113.696 92.5828 113.848 92.9715C113.985 93.3218 113.987 93.7084 114.116 94.0653C114.381 94.8013 114.739 95.8084 115.263 96.3957C116.403 97.6726 117.093 99.4066 117.938 100.866C118.087 101.124 118.527 101.614 118.217 100.955C117.489 99.4066 116.263 98.0581 115.334 96.6275C113.715 94.1342 111.875 91.8069 110.281 89.2858C109.158 87.5077 107.78 85.9379 106.726 84.1258C105.326 81.7165 103.007 79.9971 101.138 77.9671C100.359 77.1201 99.8952 76.2682 99.2955 75.3158C99.1202 75.0374 98.9832 74.6727 98.7605 74.436C96.895 72.4539 102.55 78.3574 104.23 80.4995C104.675 81.0677 105.085 81.6638 105.585 82.1641C105.957 82.5359 106.68 82.9207 107.214 82.8893C107.438 82.8761 107.321 81.9224 107.321 81.7777C107.321 81.2684 107.344 81.5665 107.582 81.8728C108.094 82.5302 106.582 80.5396 106.043 79.9051C104.975 78.6489 103.687 77.9486 102.22 77.2062C98.7319 75.4399 95.0265 73.5911 92.2332 70.7978C91.9734 70.5381 91.6996 70.2886 91.4842 69.9893C91.3184 69.7591 91.1825 69.3404 90.9729 69.1571C90.5246 68.7648 91.5228 70.2144 91.8171 70.7324C92.7072 72.2991 93.2644 73.9871 93.7313 75.72C94.4431 78.3626 94.8432 81.1482 95.806 83.7156C95.908 83.9878 95.789 83.9793 95.6098 83.8048C95.1113 83.3194 94.5944 82.8328 94.1593 82.2889C93.0642 80.92 92.0791 79.2226 91.4842 77.5866C91.3643 77.257 91.0365 76.8774 90.7886 76.6296C90.5725 76.4134 90.3071 75.8241 90.3071 76.5107C90.3071 78.3106 90.3865 80.0365 91.0026 81.7479C91.0144 81.7807 91.2914 82.2938 91.3534 82.0689C91.5125 81.4922 91.1087 80.6003 90.9491 80.0596C90.3571 78.0532 89.6521 75.9443 88.488 74.1982C88.1109 73.6325 87.7905 73.0884 87.5012 72.5099C87.373 72.2534 87.0436 72.1005 86.9067 71.8679C86.769 71.6337 86.673 71.3963 86.4787 71.202C86.3432 71.0665 86.4197 72.9416 86.455 73.2589C86.4945 73.6145 87.0723 74.1831 87.2634 74.4835C87.5511 74.9356 87.8742 75.3366 88.1195 75.827C88.4407 76.4695 88.598 77.0881 88.8566 77.7531C89.1857 78.5993 89.4163 79.9256 90.3666 80.2677C90.8577 80.4445 91.3765 80.7397 91.5436 80.1429C91.8681 78.984 91.9122 77.7738 91.9122 76.576C91.9122 75.723 91.8053 75.0901 91.4247 74.329C91.3721 74.2237 90.9991 73.299 90.9729 73.3065C90.821 73.3499 92.0036 75.2353 92.0132 75.2504C93.3556 77.3424 94.8209 79.3276 96.3826 81.2605C98.3122 83.6487 100.408 85.9001 102.22 88.3822C103.112 89.6037 102.452 87.3503 102.339 86.9436C101.556 84.1091 101.356 80.9002 99.997 78.2762C99.5327 77.3801 98.9042 76.7385 98.2492 75.9935C97.7944 75.4762 97.4624 74.8518 97.0603 74.2933C96.9752 74.1751 96.5682 73.5379 96.3588 73.5978C95.8847 73.7332 98.5984 81.5415 98.8437 82.2592C99.1108 83.0407 99.2931 83.9428 99.6641 84.6846C99.7178 84.7921 99.3591 83.9785 99.2955 83.8524C98.1592 81.6008 97.1725 79.1841 95.8713 77.0278C95.7075 76.7564 95.5193 76.4994 95.3601 76.2253C95.3012 76.1238 95.2293 75.781 95.2293 75.8984C95.2293 76.339 95.2846 76.7718 95.3601 77.2062C95.7868 79.6598 96.4399 82.2507 97.2862 84.6014C97.7575 85.9106 97.9587 87.3001 98.3087 88.6438C98.4679 89.2552 98.5789 90.2118 97.8806 89.2858C97.0721 88.2136 96.0011 87.2703 95.3601 86.0757C94.8538 85.1321 94.8618 84.0392 94.2663 83.1033C93.9776 82.6496 93.6274 82.278 93.3032 81.8728C93.1566 81.6895 93.1959 82.2689 93.1962 82.2948C93.2083 83.1627 93.4207 83.9995 93.5648 84.8511C93.7397 85.8846 93.9593 86.8555 94.2663 87.8531C94.33 88.0601 94.5564 88.3884 94.3971 87.9423C94.1122 87.1448 93.5618 86.4338 93.327 85.612C93.2483 85.3364 93.3895 85.888 93.4221 85.9508C93.751 86.585 94.0734 87.222 94.3971 87.8591C95.0984 89.2394 95.958 90.5551 96.7274 91.9015C97.2762 92.8619 97.7279 93.7804 98.3919 94.6657C98.9171 95.3661 99.4502 96.0587 99.9851 96.7464C100.19 97.0103 100.5 97.1486 100.74 97.3884C101.475 98.1238 102.139 99.0887 102.714 99.9506C102.85 100.155 102.57 99.4792 102.482 99.2491C101.967 97.8985 101.459 96.5492 100.906 95.2127C100.415 94.0228 100.016 92.8267 99.6165 91.6042C99.41 90.9728 99.1056 90.2982 98.9864 89.6425C98.8353 88.8115 98.7545 88.0909 98.4157 87.3003C98.0908 86.5421 97.2145 84.2322 97.5834 84.97C97.9633 85.7297 98.1919 86.6756 98.5286 87.4667C99.6091 90.0051 100.634 92.5676 101.757 95.0878C102.606 96.9946 103.443 99.4154 104.943 100.949C105.579 101.599 105.551 101.28 105.49 100.42C105.337 98.2758 104.202 96.2303 103.368 94.2912C102.713 92.7712 102.301 91.0525 101.543 89.589C101.512 89.5299 101.135 88.9446 101.269 89.2739C101.85 90.6978 102.721 92.0377 103.469 93.3757C105.23 96.5303 106.835 99.7866 108.641 102.911C108.691 102.999 109.29 104.176 109.39 103.69C109.632 102.514 109.158 100.986 108.819 99.8792C107.855 96.7354 106.646 93.6181 105.074 90.7244C104.195 89.1076 102.898 87.685 101.78 86.2302C101.176 85.4438 100.698 84.5127 100.235 83.6383C99.9683 83.1351 100.851 84.5962 101.174 85.0651C102.873 87.5306 104.319 90.1464 105.644 92.8288C106.437 94.433 107.288 96.0143 108.052 97.6321C108.347 98.2572 108.54 98.9553 108.926 99.5344C109.046 99.7151 109.931 100.787 109.972 100.45C110.097 99.4144 109.822 98.2168 109.651 97.2041C109.353 95.4362 108.797 93.734 107.951 92.1511C106.811 90.0194 105.318 88.0477 104.479 85.7665C103.787 83.8828 102.604 82.314 101.715 80.5352C101.423 79.9521 101.159 79.3389 100.901 78.7399C100.694 78.2623 101.477 79.4524 101.537 79.5246C104.678 83.3142 106.844 87.7112 108.795 92.1987C109.191 93.1089 109.783 94.0836 109.895 95.0878C110.032 96.3182 111.067 97.2766 111.72 98.2563C112.116 98.8509 112.488 99.3986 112.992 99.903C113.085 99.9961 113.7 100.847 113.61 100.343C113.122 97.6104 109.083 90.2121 110.365 92.6743C111.167 94.216 112.309 95.5806 113.099 97.1209C113.463 97.83 113.69 98.5952 114.145 99.261C114.652 100.001 115.157 100.756 115.667 101.508C115.905 101.858 116.349 102.231 116.523 102.578" stroke="white" stroke-width="3" stroke-linecap="round"/>
<path d="M115.667 96.0509C115.667 95.4839 115.698 94.9054 115.667 94.3388C115.663 94.2656 115.515 93.8437 115.477 93.9821C115.219 94.9162 115.557 96.1486 115.72 97.0734C115.974 98.5088 116.06 99.9669 116.315 101.401C116.574 102.856 116.883 104.255 116.844 105.741C116.824 106.512 115.216 104.855 115.132 104.754C113.872 103.232 112.92 101.472 112.041 99.7128C111.853 99.3385 111.892 99.0395 111.583 99.4572C110.77 100.555 110.059 101.741 109.086 102.715C108.087 103.714 104.978 104.569 104.217 102.768C103.908 102.035 103.839 101.329 103.575 100.605C103.426 100.193 102.76 99.9915 102.482 99.7128C102.404 99.6353 102.222 99.3896 102.232 99.4988C102.303 100.277 103.109 101.087 103.468 101.746C104.288 103.25 104.615 104.985 105.448 106.484C105.663 106.872 105.929 107.179 106.143 107.607C106.399 108.118 106.919 108.65 107.106 109.165C107.623 110.585 108.779 111.751 109.514 113.059C109.606 113.222 109.775 113.507 109.936 113.6C110.026 113.651 110.056 113.901 110.091 113.98C110.432 114.747 110.821 115.509 111.256 116.227C111.67 116.911 112.077 117.553 112.558 118.195C112.778 118.489 113.025 118.859 113.105 119.217C113.219 119.733 113.25 120.616 113.527 121.066C113.86 121.608 113.86 122.493 114.329 122.962C114.756 123.389 114.878 124.472 115.156 123.444C115.457 122.33 116.188 121.222 116.838 120.287C117.515 119.314 118.216 118.302 119.043 117.452C119.582 116.898 120.266 116.176 120.482 115.419C120.683 114.715 121.274 114.188 121.659 113.576C122.342 112.491 122.622 111.419 122.622 110.122C122.622 108.909 122.732 107.688 121.927 106.704C121.475 106.152 121.152 105.418 120.72 104.825C120.421 104.416 120.162 103.936 119.816 103.565C119.521 103.248 119.447 102.862 119.251 102.471C119.113 102.194 118.968 101.857 118.877 101.562C118.806 101.331 118.664 100.698 118.556 100.914C118.481 101.063 118.556 101.485 118.556 101.639C118.556 102.357 118.602 103.064 118.663 103.779C118.833 105.77 118.996 107.746 119.251 109.73C119.346 110.463 119.527 111.115 119.727 111.816C119.875 112.333 119.651 110.743 119.573 110.211C119.332 108.581 119.364 106.885 119.418 105.241C119.458 104.006 119.679 104.564 119.864 105.408C120.108 106.519 120.361 107.616 120.375 108.761C120.383 109.362 120.268 109.952 120.268 110.544C120.268 111.085 120.245 111.835 120.054 112.339C119.373 114.143 118.36 115.763 117.403 117.428C117.054 118.035 116.54 118.534 116.226 119.164C115.969 119.677 115.808 120.225 115.619 120.763C115.541 120.987 115.258 121.979 115.108 121.363C114.658 119.515 114.467 117.621 113.901 115.799C113.414 114.228 112.479 112.936 111.601 111.567C110.056 109.159 108.355 106.996 107.725 104.159C107.639 103.774 107.439 103.408 107.427 103.006C107.412 102.45 108.377 103.17 108.759 103.268C109.192 103.379 109.838 103.687 110.281 103.458C110.874 103.151 111.64 102.15 112.35 102.15C112.709 102.15 111.9 103.145 111.838 103.22C111.37 103.796 110.87 104.391 110.43 104.986C110.222 105.266 110.052 105.57 109.841 105.842C109.309 106.526 110.357 105.397 110.471 105.289C111.317 104.492 112.211 103.594 113.182 102.947C113.386 102.811 112.827 104.163 112.754 104.29C112.171 105.313 111.497 106.301 110.852 107.286C110.315 108.107 110.89 107.554 111.351 107.215C111.891 106.818 112.406 106.393 112.968 106.026C113.107 105.935 113.487 105.586 113.675 105.586C113.974 105.586 113.248 106.003 113.027 106.204C112.256 106.908 111.466 107.591 110.685 108.285C110.527 108.426 109.62 109.063 110.257 108.63C111.333 107.9 112.458 107.084 113.622 106.502C114.271 106.177 112.882 108.367 112.736 108.553C112.49 108.865 112.241 109.172 112.029 109.51C111.912 109.696 112.865 109.1 112.932 109.058C113.62 108.629 114.287 108.169 115.001 107.786C115.025 107.773 115.903 107.316 115.893 107.465C115.864 107.873 115.03 108.424 114.769 108.671C114.339 109.078 113.939 109.508 113.491 109.896C113.083 110.25 114.363 109.157 114.49 109.058C114.652 108.931 116.143 107.71 115.94 108.344C115.681 109.156 115.041 109.834 114.543 110.502C113.955 111.292 113.372 112.09 112.825 112.91C112.794 112.957 112.282 113.72 112.504 113.558C113.27 113.001 114.051 112.462 114.805 111.888C115.483 111.371 117.42 109.721 116.862 110.366C116.068 111.281 115.24 112.2 114.561 113.207C114.318 113.567 114.017 113.983 113.854 114.39C113.762 114.619 114.215 114.054 114.395 113.885C115.492 112.854 116.535 111.768 117.652 110.758C117.74 110.679 119.812 108.853 119.424 109.629C118.542 111.393 117.249 112.966 116.428 114.759C116.382 114.859 115.969 116.045 116.059 115.972C117.076 115.139 117.677 113.813 118.746 113.005C119.742 112.253 117.735 115.295 117.082 116.358C116.675 117.021 116.25 117.673 115.845 118.338C115.803 118.407 115.443 119.154 115.471 118.682C115.598 116.518 116.732 114.392 117.308 112.327C117.798 110.57 117.807 108.843 117.807 107.037C117.807 106.123 117.894 105.222 117.914 104.314C117.918 104.14 117.982 103.539 117.902 104.041C117.729 105.121 117.294 106.177 117.123 107.274C117.019 107.948 117.058 108.64 117.058 109.319" stroke="white" stroke-width="3" stroke-linecap="round"/>
<path d="M98.9965 40.676C98.4904 41.4099 97.8298 42.0258 97.3315 42.7641C97.0697 43.152 96.9653 43.5842 96.6925 43.9701C96.2544 44.5896 95.7017 45.2757 95.4505 46.0041C95.3402 46.324 95.2211 46.5726 95.032 46.8681C94.7506 47.3078 94.5211 47.8162 94.2085 48.2181C93.7231 48.8422 93.2801 49.5075 92.8089 50.1442C92.6366 50.3771 92.4625 50.6177 92.3094 50.8642C92.2857 50.9024 92.2734 51.0654 92.2734 50.9632" stroke="white" stroke-width="3" stroke-linecap="round"/>
<path d="M43.3779 55.7669C44.0378 56.7237 44.7664 57.6594 45.3025 58.678C45.5545 59.1567 45.979 59.5088 46.1758 60.0203C46.371 60.5278 46.9495 60.8715 47.0168 61.4435C47.0437 61.6725 47.6946 62.6557 47.8901 62.7535" stroke="white" stroke-width="3" stroke-linecap="round"/>
<path d="M102.473 71.9234C102.571 72.8064 103.976 73.6561 104.43 74.3978C104.75 74.9226 105.094 75.4263 105.384 75.9342C105.645 76.3906 106.04 76.9417 106.225 77.4221C106.42 77.9296 106.955 78.2379 107.13 78.7644" stroke="white" stroke-width="3" stroke-linecap="round"/>
<path d="M117.028 95.5031C117.028 96.6218 118.359 98.934 119.357 99.433" stroke="white" stroke-width="3" stroke-linecap="round"/>
</svg>
